<?xml version="1.0" encoding="UTF-8" standalone="no"?>
<svg
   xmlns:dc="http://purl.org/dc/elements/1.1/"
   xmlns:cc="http://creativecommons.org/ns#"
   xmlns:rdf="http://www.w3.org/1999/02/22-rdf-syntax-ns#"
   xmlns:svg="http://www.w3.org/2000/svg"
   xmlns="http://www.w3.org/2000/svg"
   xmlns:sodipodi="http://sodipodi.sourceforge.net/DTD/sodipodi-0.dtd"
   xmlns:inkscape="http://www.inkscape.org/namespaces/inkscape"
   id="svg2"
   width="16"
   height="16"
   version="1.1"
   viewBox="0 0 16 16"
   sodipodi:docname="gimp-prefs-folders-fonts.svg"
   inkscape:version="0.92.2 5c3e80d, 2017-08-06">
  <sodipodi:namedview
     pagecolor="#ffffff"
     bordercolor="#666666"
     borderopacity="1"
     objecttolerance="10"
     gridtolerance="10"
     guidetolerance="10"
     inkscape:pageopacity="0"
     inkscape:pageshadow="2"
     inkscape:window-width="764"
     inkscape:window-height="480"
     id="namedview20"
     showgrid="false"
     inkscape:zoom="14.75"
     inkscape:cx="8"
     inkscape:cy="8"
     inkscape:window-x="284"
     inkscape:window-y="131"
     inkscape:window-maximized="0"
     inkscape:current-layer="svg2" />
  <metadata
     id="metadata90">
    <rdf:RDF>
      <cc:Work>
        <dc:format>image/svg+xml</dc:format>
        <dc:type
           rdf:resource="http://purl.org/dc/dcmitype/StillImage" />
        <dc:title>Gimp Color Icon Theme</dc:title>
        <dc:contributor>
          <cc:Agent>
            <dc:title>many unknown and unnamed, Andrew Chadwick, Alexandre Prokoudine, Aryeom Han, Benoit Touchette, Jakub Steiner, Jehan, Johannes Matschke, Kevin Payne, Klaus Staedtler, Marek Dvoroznak, Michael Natterer</dc:title>
          </cc:Agent>
        </dc:contributor>
        <dc:description>Enhanced, extended tango-art-libre for GIMP</dc:description>
      </cc:Work>
    </rdf:RDF>
  </metadata>
  <defs
     id="defs7386">
    <linearGradient
       id="linearGradient3104-2-5"
       x1="18.113"
       x2="15.515"
       y1="31.368"
       y2="6.1803"
       gradientTransform="matrix(.39071 0 0 .39071 767.81 225.81)"
       gradientUnits="userSpaceOnUse">
      <stop
         id="stop3098"
         stop-color="#424242"
         offset="0" />
      <stop
         id="stop3100"
         stop-color="#777"
         offset="1" />
    </linearGradient>
    <linearGradient
       id="linearGradient322-4"
       x1="13.036"
       x2="12.854"
       y1="32.567"
       y2="46.689"
       gradientTransform="matrix(.51476 0 0 .31892 767.47 225.3)"
       gradientUnits="userSpaceOnUse">
      <stop
         id="stop8342"
         stop-color="#fff"
         stop-opacity=".79608"
         offset="0" />
      <stop
         id="stop8344"
         stop-color="#fff"
         stop-opacity=".21569"
         offset="1" />
    </linearGradient>
  </defs>
  <g
     id="preferences"
     transform="translate(-391.98 -35.934)">
    <g
       id="gimp-prefs-folders-fonts"
       transform="translate(391.98 2.4974)">
      <path
         id="path216-1"
         d="m0.575 48.916c0.008516 0.16265 0.17969 0.32531 0.34235 0.32531h12.24c0.16265 0 0.31679-0.16266 0.30828-0.32531l-0.36588-10.638c-0.0085-0.16265-0.17969-0.32531-0.34234-0.32531h-5.1851c-0.18952 0-0.48232-0.1233-0.54764-0.43237l-0.23888-1.1304c-0.060744-0.28744-0.34469-0.40551-0.50735-0.40551h-5.7743c-0.16266 0-0.3168 0.16266-0.30828 0.32531z"
         style="fill:#666666;stroke-linecap:round;stroke-linejoin:round;stroke-width:0.39071;stroke:#666666;stroke-opacity:1" />
      <g
         id="g3962-5-5"
         transform="matrix(.64606 0 0 .64606 5.0243 28.257)">
        <path
           id="text2841-6"
           d="m5.3597 11.407c-0.90904 3e-6 -1.5388 0.0917-1.8894 0.27508-0.35057 0.18339-0.52586 0.49622-0.52585 0.93849-2.2e-6 0.35239 0.13044 0.63286 0.39133 0.84141 0.26496 0.20496 0.62368 0.30744 1.0762 0.30744 0.62368 2e-6 1.123-0.19417 1.4981-0.58251 0.3791-0.39194 0.56865-0.91152 0.56865-1.5588v-0.22114h-1.119m2.244-0.40992v3.4465h-1.1251v-0.91692c-0.25682 0.36677-0.57681 0.63825-0.95999 0.81444-0.38318 0.1726-0.85197 0.2589-1.4063 0.2589-0.70114 0-1.2596-0.1726-1.6754-0.51779-0.41171-0.34879-0.61757-0.81444-0.61757-1.397-1.2e-6 -0.6796 0.25681-1.192 0.77043-1.5372 0.5177-0.34519 1.2881-0.51779 2.3113-0.51779h1.5776v-0.09709c-6.3e-6 -0.45665-0.17121-0.80904-0.51362-1.0571-0.33834-0.2517-0.81528-0.37755-1.4308-0.37755-0.39134 5.2e-6 -0.77248 0.041356-1.1434 0.12405-0.37095 0.082707-0.72763 0.20676-1.07 0.37216v-0.91692c0.41171-0.14023 0.8112-0.24451 1.1985-0.31283 0.38725-0.071909 0.76432-0.10787 1.1312-0.10787 0.99055 6.3e-6 1.7304 0.22654 2.2196 0.6796 0.48916 0.45307 0.73374 1.1399 0.73375 2.0604"
           style="stroke-width:0.15478;stroke:#fff;fill:#2d2d2d" />
        <path
           id="text2849-7"
           d="m11.674 17.987c0.357 1e-6 0.62863-0.13614 0.81489-0.40844 0.18936-0.27229 0.28404-0.66777 0.28405-1.1864-5e-6 -0.51865-0.09469-0.91413-0.28405-1.1864-0.18627-0.27229-0.4579-0.40844-0.81489-0.40844-0.357 5e-6 -0.63174 0.13777-0.82421 0.4133-0.18937 0.2723-0.28405 0.66615-0.28405 1.1816-3e-6 0.51542 0.09467 0.91089 0.28405 1.1864 0.19247 0.2723 0.4672 0.40844 0.82421 0.40844m-1.1083-3.5252c0.22972-0.31767 0.48428-0.55106 0.76367-0.70018 0.27939-0.15235 0.60069-0.22853 0.9639-0.22853 0.6426 5e-6 1.1703 0.26744 1.5832 0.8023 0.41287 0.53163 0.61931 1.2172 0.61932 2.0568-8e-6 0.83958-0.20645 1.5268-0.61932 2.0617-0.41288 0.53162-0.94063 0.79743-1.5832 0.79743-0.36321 0-0.68452-0.07456-0.9639-0.22367-0.27939-0.15236-0.53395-0.38737-0.76367-0.70505v0.78771h-1.667v-7.5659h1.667v2.9174"
           style="stroke-width:0.15478;stroke:#787878;fill:#2d2d2d" />
      </g>
      <path
         id="path233-3"
         d="m14.352 49.237c0.44693-0.01722 0.767-0.42834 0.7998-0.90684 0.30936-4.5122 0.64833-8.2956 0.64833-8.2956 0.02819-0.09669-0.0656-0.19339-0.1876-0.19339h-13.429s-0.72294 8.5436-0.72294 8.5436c-0.044758 0.3837-0.18207 0.70512-0.60554 0.8532l13.497-0.0011z"
         style="color:#000000;display:block;fill:#0084c8;stroke-linejoin:round;stroke-width:0.39071;stroke:#0084c8;stroke-opacity:1" />
      <rect
         id="rect3965-0-3"
         x="8.6703e-9"
         y="33.437"
         width="16"
         height="16"
         style="color-rendering:auto;color:#000000;image-rendering:auto;isolation:auto;mix-blend-mode:normal;opacity:0;shape-rendering:auto;solid-color:#000000;stroke-width:.493" />
    </g>
  </g>
</svg>
