<?xml version="1.0" encoding="UTF-8" standalone="no"?>
<svg
   xmlns:dc="http://purl.org/dc/elements/1.1/"
   xmlns:cc="http://creativecommons.org/ns#"
   xmlns:rdf="http://www.w3.org/1999/02/22-rdf-syntax-ns#"
   xmlns:svg="http://www.w3.org/2000/svg"
   xmlns="http://www.w3.org/2000/svg"
   xmlns:sodipodi="http://sodipodi.sourceforge.net/DTD/sodipodi-0.dtd"
   xmlns:inkscape="http://www.inkscape.org/namespaces/inkscape"
   id="svg2"
   width="16"
   height="16"
   version="1.1"
   viewBox="0 0 16 16"
   sodipodi:docname="gimp-prefs-folders-environ.svg"
   inkscape:version="0.92.2 5c3e80d, 2017-08-06">
  <sodipodi:namedview
     pagecolor="#ffffff"
     bordercolor="#666666"
     borderopacity="1"
     objecttolerance="10"
     gridtolerance="10"
     guidetolerance="10"
     inkscape:pageopacity="0"
     inkscape:pageshadow="2"
     inkscape:window-width="1000"
     inkscape:window-height="588"
     id="namedview32"
     showgrid="false"
     inkscape:zoom="14.75"
     inkscape:cx="8"
     inkscape:cy="8"
     inkscape:window-x="201"
     inkscape:window-y="53"
     inkscape:window-maximized="0"
     inkscape:current-layer="svg2" />
  <metadata
     id="metadata90">
    <rdf:RDF>
      <cc:Work>
        <dc:format>image/svg+xml</dc:format>
        <dc:type
           rdf:resource="http://purl.org/dc/dcmitype/StillImage" />
        <dc:title>Gimp Color Icon Theme</dc:title>
        <dc:contributor>
          <cc:Agent>
            <dc:title>many unknown and unnamed, Andrew Chadwick, Alexandre Prokoudine, Aryeom Han, Benoit Touchette, Jakub Steiner, Jehan, Johannes Matschke, Kevin Payne, Klaus Staedtler, Marek Dvoroznak, Michael Natterer</dc:title>
          </cc:Agent>
        </dc:contributor>
        <dc:description>Enhanced, extended tango-art-libre for GIMP</dc:description>
      </cc:Work>
    </rdf:RDF>
  </metadata>
  <defs
     id="defs7386">
    <linearGradient
       id="linearGradient1971"
       x1="33.5"
       x2="32.615"
       y1="38.101"
       y2="30.146"
       gradientTransform="matrix(.52866 0 0 .82235 1245.5 280.97)"
       gradientUnits="userSpaceOnUse">
      <stop
         id="stop2844"
         style="stop-color:#babdb6"
         offset="0" />
      <stop
         id="stop2846"
         style="stop-color:#eeeeec"
         offset="1" />
    </linearGradient>
    <linearGradient
       id="linearGradient1973"
       x1="29.375"
       x2="32"
       y1="17.625"
       y2="36.688"
       gradientTransform="matrix(.52866 0 0 .82235 1245.5 280.97)"
       gradientUnits="userSpaceOnUse">
      <stop
         id="stop2890"
         stop-color="#888a85"
         offset="0" />
      <stop
         id="stop2892"
         stop-color="#555753"
         offset="1" />
    </linearGradient>
    <linearGradient
       id="linearGradient9933"
       x1="18.113"
       x2="15.515"
       y1="31.368"
       y2="6.1803"
       gradientTransform="matrix(.39071 0 0 .39071 745.9 224.38)"
       gradientUnits="userSpaceOnUse">
      <stop
         id="stop3098"
         stop-color="#424242"
         offset="0" />
      <stop
         id="stop3100"
         stop-color="#777"
         offset="1" />
    </linearGradient>
    <linearGradient
       id="linearGradient9935"
       x1="22.176"
       x2="22.065"
       y1="36.988"
       y2="32.05"
       gradientTransform="matrix(.39071 0 0 .39071 745.9 224.38)"
       gradientUnits="userSpaceOnUse">
      <stop
         id="stop9768"
         stop-color="#6194cb"
         offset="0" />
      <stop
         id="stop9770"
         stop-color="#729fcf"
         offset="1" />
    </linearGradient>
    <linearGradient
       id="linearGradient9937"
       x1="13.036"
       x2="12.854"
       y1="32.567"
       y2="46.689"
       gradientTransform="matrix(.51476 0 0 .31892 745.55 223.86)"
       gradientUnits="userSpaceOnUse">
      <stop
         id="stop8342"
         stop-color="#fff"
         stop-opacity=".79608"
         offset="0" />
      <stop
         id="stop8344"
         stop-color="#fff"
         stop-opacity=".21569"
         offset="1" />
    </linearGradient>
  </defs>
  <g
     id="preferences"
     transform="translate(-370.07 -35.934)">
    <g
       id="gimp-prefs-folders-environ"
       transform="translate(370.07 3.9339)">
      <path
         id="path216-5-3"
         d="m0.575 47.479c0.008516 0.16265 0.17969 0.32531 0.34235 0.32531h12.24c0.16265 0 0.31679-0.16266 0.30828-0.32531l-0.36588-10.638c-0.0085-0.16265-0.17969-0.32531-0.34234-0.32531h-5.1851c-0.18952 0-0.48232-0.1233-0.54764-0.43237l-0.23888-1.1304c-0.060744-0.28744-0.34469-0.40551-0.50735-0.40551h-5.7743c-0.16266 0-0.3168 0.16266-0.30828 0.32531z"
         style="fill:#999999;stroke-linecap:round;stroke-linejoin:round;stroke-width:0.39071;stroke:#999999;stroke-opacity:1" />
      <g
         id="g9733"
         transform="matrix(.75 0 0 .75 -191.17 1.0925)">
        <path
           id="path1934"
           d="m266.79 41.809c-1.4671 0-2.729 1.4292-3.2215 3.4436-0.23837-0.0891-0.48756-0.15419-0.74342-0.15419-1.7509 0-3.1719 2.2105-3.1719 4.9341s1.421 4.9341 3.1719 4.9341c0.40854 0 0.79767-0.14065 1.1564-0.35978 0.57816 1.2114 1.5004 2.0045 2.5442 2.0045 0.81236 0 1.5532-0.47705 2.1146-1.2592 0.30989 0.27719 0.67441 0.43687 1.0573 0.43687 0.57508 0 1.089-0.37077 1.4703-0.95084 0.20803 0.082 0.41996 0.12849 0.6443 0.12849 1.4591 0 2.6433-1.8421 2.6433-4.1118 0-1.3407-0.41838-2.5386-1.0573-3.2894 0-2.2697-1.1842-4.1118-2.6433-4.1118-0.44522 0-0.85432 0.18544-1.2225 0.48827-0.62731-1.2942-1.6209-2.133-2.7424-2.133z"
           style="color:#000000;fill-rule:evenodd;fill:#2d2d2d;stroke-linecap:round;stroke-linejoin:round;stroke-width:1.1977;stroke:#2d2d2d;stroke-opacity:1" />
        <g
           id="g9939"
           transform="matrix(.99805 0 0 .99805 259.07 39.23)">
          <path
             id="text2858"
             d="m6 8 3 6e-6v1h-2v1h1v1h-1v1.0439l2-0.043868v1l-3-1.3e-5v-5m3.9745 0 1.0256 6e-6 1 2.5214v-2.5214l1.0279 7e-6v5h-1.0279l-1-2.5214v2.5214l-1.0256-1.3e-5v-5"
             style="fill:#ffffff" />
          <path
             id="text2868"
             d="m4.7431 8.2453v0.63589c-0.21884-0.11835-0.42531-0.20658-0.61941-0.26469-0.1941-0.058098-0.38154-0.087148-0.56232-0.087153-0.31399 5e-6 -0.55661 0.068866-0.72788 0.20658-0.16936 0.13773-0.25404 0.33355-0.25404 0.58748-1.2e-6 0.21304 0.056136 0.37444 0.16841 0.48418 0.11418 0.1076 0.32921 0.19475 0.6451 0.26146l0.34824 0.0807c0.43006 0.09253 0.74691 0.25608 0.95052 0.49064 0.20552 0.23241 0.30827 0.54444 0.30828 0.93608-3.6e-6 0.46697-0.13892 0.82096-0.41675 1.062-0.27593 0.24102-0.68126 0.36152-1.216 0.36152-0.20171-1e-6 -0.41675-0.025823-0.6451-0.077469-0.22645-0.051647-0.46147-0.12804-0.70504-0.22918v-0.6714c0.23406 0.14848 0.46337 0.26038 0.68792 0.3357 0.22455 0.07532 0.44529 0.11298 0.66223 0.11298 0.32921 1e-6 0.58325-0.07316 0.76213-0.2195 0.17887-0.14633 0.26831-0.35507 0.26832-0.62621-3e-6 -0.23671-0.064703-0.42178-0.1941-0.5552-0.1275-0.13342-0.33778-0.23348-0.63083-0.30019l-0.35109-0.077469c-0.43007-0.096834-0.7412-0.24854-0.9334-0.45513-0.1922-0.20658-0.2883-0.49386-0.2883-0.86185-6e-7 -0.42608 0.13225-0.76178 0.39676-1.0071 0.26641-0.24531 0.63273-0.36797 1.099-0.36798 0.19981 5e-6 0.40342 0.020448 0.61085 0.061329 0.20742 0.040892 0.4196 0.10222 0.63654 0.18399"
             style="fill:#ffffff" />
          <path
             id="path2876"
             d="m3.5 7.4723v6.0277"
             style="fill:#ffffff;stroke-linecap:square;stroke-width:1px;stroke:#ffffff;fill-opacity:1;stroke-opacity:1" />
        </g>
      </g>
      <path
         id="path233-5-19"
         d="m14.352 47.801c0.44693-0.01722 0.767-0.42834 0.7998-0.90684 0.30936-4.5122 0.64833-8.2956 0.64833-8.2956 0.02819-0.09669-0.0656-0.19339-0.1876-0.19339h-13.429s-0.72294 8.5436-0.72294 8.5436c-0.044758 0.3837-0.18207 0.70512-0.60554 0.8532l13.497-0.0011z"
         style="color:#000000;display:block;fill:#0084c8;stroke-linejoin:round;stroke-width:0.39071;stroke:#0084c8;stroke-opacity:1" />
    </g>
  </g>
</svg>
