<?xml version="1.0" encoding="UTF-8" standalone="no"?>
<!-- Created with Inkscape (http://www.inkscape.org/) -->

<svg
   xmlns:dc="http://purl.org/dc/elements/1.1/"
   xmlns:cc="http://creativecommons.org/ns#"
   xmlns:rdf="http://www.w3.org/1999/02/22-rdf-syntax-ns#"
   xmlns:svg="http://www.w3.org/2000/svg"
   xmlns="http://www.w3.org/2000/svg"
   xmlns:xlink="http://www.w3.org/1999/xlink"
   xmlns:sodipodi="http://sodipodi.sourceforge.net/DTD/sodipodi-0.dtd"
   xmlns:inkscape="http://www.inkscape.org/namespaces/inkscape"
   id="svg11300"
   width="16"
   height="16"
   version="1.0"
   viewBox="0 0 16 16"
   sodipodi:docname="gimp-web.svg"
   inkscape:version="0.92.4 (unknown)">
  <sodipodi:namedview
     pagecolor="#ffffff"
     bordercolor="#666666"
     borderopacity="1"
     objecttolerance="10"
     gridtolerance="10"
     guidetolerance="10"
     inkscape:pageopacity="0"
     inkscape:pageshadow="2"
     inkscape:window-width="1375"
     inkscape:window-height="786"
     id="namedview91"
     showgrid="false"
     inkscape:zoom="37.854492"
     inkscape:cx="8"
     inkscape:cy="8"
     inkscape:window-x="65"
     inkscape:window-y="24"
     inkscape:window-maximized="1"
     inkscape:current-layer="svg11300" />
  <defs
     id="defs3">
    <radialGradient
       id="radialGradient1460"
       cx="18.634"
       cy="17.486"
       r="40.693"
       fx="18.934"
       fy="17.81"
       gradientTransform="scale(1.0368 .96449)"
       gradientUnits="userSpaceOnUse"
       xlink:href="#linearGradient4750" />
    <linearGradient
       id="linearGradient4750">
      <stop
         id="stop4752"
         style="stop-color:#fff"
         offset="0" />
      <stop
         id="stop4758"
         style="stop-color:#fefefe"
         offset=".37931" />
      <stop
         id="stop4754"
         style="stop-color:#1d1d1d"
         offset="1" />
    </linearGradient>
    <radialGradient
       id="radialGradient4132"
       cx="15.601"
       cy="12.142"
       r="43.527"
       gradientTransform="scale(.99999 1)"
       gradientUnits="userSpaceOnUse">
      <stop
         id="stop4128"
         style="stop-color:#fff"
         offset="0" />
      <stop
         id="stop4130"
         style="stop-color:#fff;stop-opacity:.16495"
         offset="1" />
    </radialGradient>
  </defs>
  <metadata
     id="metadata4">
    <rdf:RDF>
      <cc:Work
         rdf:about="">
        <dc:format>image/svg+xml</dc:format>
        <dc:type
           rdf:resource="http://purl.org/dc/dcmitype/StillImage" />
        <dc:creator>
          <cc:Agent>
            <dc:title>Jakub Steiner</dc:title>
          </cc:Agent>
        </dc:creator>
        <dc:source>http://jimmac.musichall.cz</dc:source>
        <cc:license
           rdf:resource="http://creativecommons.org/licenses/GPL/2.0/" />
        <dc:title></dc:title>
      </cc:Work>
      <cc:License
         rdf:about="http://creativecommons.org/licenses/GPL/2.0/">
        <cc:permits
           rdf:resource="http://web.resource.org/cc/Reproduction" />
        <cc:permits
           rdf:resource="http://web.resource.org/cc/Distribution" />
        <cc:requires
           rdf:resource="http://web.resource.org/cc/Notice" />
        <cc:permits
           rdf:resource="http://web.resource.org/cc/DerivativeWorks" />
        <cc:requires
           rdf:resource="http://web.resource.org/cc/ShareAlike" />
        <cc:requires
           rdf:resource="http://web.resource.org/cc/SourceCode" />
      </cc:License>
    </rdf:RDF>
  </metadata>
  <g
     id="layer1">
    <g
       id="g4462"
       transform="matrix(0.4022,0,0,0.4022,-1.8818,-1.4463)">
      <path
         id="path3214"
         d="m 43.96,23.485 c 0,10.71 -8.6821,19.392 -19.39,19.392 -10.709,0 -19.391,-8.6821 -19.391,-19.392 0,-10.709 8.6816,-19.39 19.391,-19.39 10.708,0 19.39,8.6811 19.39,19.39 z"
         style="fill:#36486c;stroke:none"
         inkscape:connector-curvature="0" />
      <g
         id="g4136"
         transform="matrix(0.98237,0,0,0.98237,0.12108,0.23291)"
         style="fill-opacity:0.71344999">
        <g
           id="g4138">
          <g
             id="g4142">
            <path
               id="path4144"
               d="m 44.071,20.714 v 0 l -0.5449,0.6172 c -0.334,-0.3936 -0.709,-0.7246 -1.0898,-1.0703 l -0.8359,0.123 -0.7637,-0.8633 v 1.0684 l 0.6543,0.4951 0.4355,0.4932 0.582,-0.6582 c 0.1465,0.2744 0.291,0.5488 0.4365,0.8232 v 0.8223 l -0.6553,0.7402 -1.1992,0.8232 -0.9082,0.9063 -0.582,-0.6602 0.291,-0.7402 -0.5811,-0.6582 -0.9814,-2.0977 -0.8359,-0.9453 -0.2188,0.2461 0.3281,1.1934 0.6172,0.6992 c 0.3525,1.0176 0.7012,1.9902 1.1641,2.9629 0.7178,0 1.3945,-0.0762 2.1074,-0.166 v 0.5762 l -0.8721,2.1392 -0.7998,0.9043 -0.6543,1.4004 v 2.3027 l 0.2188,0.9063 -0.3633,0.4102 -0.8008,0.4941 -0.8359,0.6992 0.6914,0.7813 -0.9453,0.8242 0.1816,0.5332 -1.418,1.6055 h -0.9443 l -0.7998,0.4941 H 33.6393 V 38.281 l -0.2168,-1.3184 c -0.2813,-0.8262 -0.5742,-1.6465 -0.8721,-2.4668 0,-0.6055 0.0361,-1.2051 0.0723,-1.8105 l 0.3643,-0.8223 -0.5098,-0.9883 0.0371,-1.3574 -0.6914,-0.7813 0.3457,-1.1309 -0.5625,-0.6382 h -0.9824 l -0.3271,-0.3701 -0.9814,0.6177 -0.3994,-0.4536 -0.9092,0.7817 c -0.6172,-0.6997 -1.2354,-1.3989 -1.8535,-2.0981 l -0.7266,-1.7285 0.6543,-0.9863 -0.3633,-0.4111 0.7988,-1.8936 c 0.6563,-0.8164 1.3418,-1.5996 2.0352,-2.3857 l 1.2363,-0.3291 1.3809,-0.1641 0.9453,0.2471 1.3447,1.3564 0.4727,-0.5342 0.6533,-0.082 1.2363,0.4111 h 0.9453 l 0.6543,-0.5762 0.291,-0.4111 -0.6553,-0.4111 -1.0908,-0.082 c -0.3027,-0.4199 -0.584,-0.8613 -0.9434,-1.2344 l -0.3643,0.1641 -0.1455,1.0703 -0.6543,-0.7402 -0.1445,-0.8242 -0.7266,-0.5742 h -0.292 l 0.7275,0.8223 -0.291,0.7402 -0.5811,0.1641 0.3633,-0.7402 -0.6553,-0.3281 -0.5801,-0.6582 -1.0918,0.2461 -0.1445,0.3281 -0.6543,0.4121 -0.3633,0.9053 -0.9082,0.4521 -0.4004,-0.4521 h -0.4355 v -1.4814 l 0.9453,-0.4941 h 0.7266 l -0.1465,-0.5752 -0.5801,-0.5762 0.9805,-0.2061 0.5449,-0.6162 0.4355,-0.7412 h 0.8008 l -0.2188,-0.5752 0.5098,-0.3291 v 0.6582 l 1.0898,0.2461 1.0898,-0.9043 0.0732,-0.4121 0.9443,-0.6577 c -0.3418,0.0425 -0.6836,0.0737 -1.0176,0.1646 V 9.9762 L 34.221,9.1534 h -0.3633 l -0.7984,0.7402 -0.2188,0.4116 0.2188,0.5767 -0.3643,0.9863 -0.5811,-0.3291 -0.5078,-0.5752 -0.8008,0.5752 -0.291,-1.3159 1.3809,-0.9048 V 8.8243 l 0.873,-0.5757 1.3809,-0.3296 0.9453,0.3296 1.7441,0.3291 -0.4355,0.4932 h -0.9453 l 0.9453,0.9873 0.7266,-0.8223 0.2207,-0.3618 c 0,0 2.7871,2.498 4.3799,5.2305 1.5928,2.7334 2.3408,5.9551 2.3408,6.6094 z"
               inkscape:connector-curvature="0" />
          </g>
        </g>
        <g
           id="g4146">
          <g
             id="g4150">
            <path
               id="path4152"
               d="m 26.07,9.2363 -0.0732,0.4932 0.5098,0.3291 0.8711,-0.5757 -0.4355,-0.4937 -0.582,0.3296 -0.29,-0.0825"
               inkscape:connector-curvature="0" />
          </g>
        </g>
        <g
           id="g4154">
          <g
             id="g4158">
            <path
               id="path4160"
               d="m 26.87,5.8633 -1.8906,-0.7407 -2.1797,0.2466 -2.6904,0.7402 -0.5088,0.4941 1.6719,1.1514 v 0.6582 l -0.6543,0.6582 0.873,1.729 0.5801,-0.3301 0.7285,-1.1514 C 23.9227,8.9716 24.9296,8.5781 25.997,8.0844 L 26.87,5.8632"
               inkscape:connector-curvature="0" />
          </g>
        </g>
        <g
           id="g4162">
          <g
             id="g4166">
            <path
               id="path4168"
               d="m 28.833,12.775 -0.291,-0.7412 -0.5098,0.165 0.1465,0.9043 0.6543,-0.3281"
               inkscape:connector-curvature="0" />
          </g>
        </g>
        <g
           id="g4170">
          <g
             id="g4174">
            <path
               id="path4176"
               d="m 29.123,12.609 -0.1455,0.9883 0.7998,-0.165 0.5811,-0.5752 -0.5088,-0.4941 C 29.6787,11.9079 29.4824,11.4831 29.2685,11.0466 H 28.833 v 0.4932 l 0.29,0.3291 v 0.7402"
               inkscape:connector-curvature="0" />
          </g>
        </g>
        <g
           id="g4178">
          <g
             id="g4182">
            <path
               id="path4184"
               d="m 18.365,28.242 -0.582,-1.1523 -1.0903,-0.2466 -0.5815,-1.5625 -1.4536,0.1641 -1.2354,-0.9043 -1.3091,1.1514 v 0.1816 c -0.396,-0.1143 -0.8828,-0.1299 -1.2354,-0.3467 l -0.291,-0.8223 v -0.9053 l -0.8721,0.082 c 0.0728,-0.5762 0.145,-1.1514 0.2183,-1.7275 H 9.4236 L 8.9153,22.8118 8.406,23.0579 7.6789,22.6477 7.6061,21.7424 7.7516,20.7551 8.8424,19.9328 h 0.8721 l 0.145,-0.4941 1.0903,0.2461 0.7998,0.9883 0.1455,-1.6465 1.3813,-1.1514 0.5088,-1.2344 1.0176,-0.4111 0.5815,-0.8223 1.3081,-0.248 0.6548,-0.9863 h -1.9629 l 1.2358,-0.5762 h 0.8716 l 1.2363,-0.4121 0.1455,-0.4922 -0.4365,-0.4121 -0.5088,-0.165 0.1455,-0.4932 -0.3633,-0.7402 -0.8726,0.3281 0.1455,-0.6577 -1.0176,-0.5762 -0.7993,1.3979 0.0723,0.4941 -0.7993,0.3301 -0.5093,1.0693 L 13.7123,12.2804 12.331,11.7042 12.1127,10.964 13.9301,9.8937 14.7299,9.1535 14.8027,8.2487 14.3667,8.0016 13.7852,7.9191 13.4219,8.8244 c 0,0 -0.6079,0.1191 -0.7642,0.1577 -1.9961,1.8394 -6.0293,5.8101 -6.9663,13.306 0.0371,0.1738 0.6792,1.1816 0.6792,1.1816 l 1.5264,0.9043 1.5264,0.4121 0.6548,0.8232 1.0171,0.7402 0.5815,-0.082 0.436,0.1963 v 0.1328 l -0.5811,1.563 -0.4365,0.6582 0.1455,0.3301 -0.3633,1.2324 1.3086,2.3867 1.3081,1.1523 0.582,0.8223 -0.0732,1.7285 0.4365,0.9863 -0.4365,1.8926 c 0,0 -0.0342,-0.0117 0.0215,0.1777 0.0562,0.1895 2.3291,1.4512 2.4736,1.3438 0.144,-0.1094 0.2671,-0.2051 0.2671,-0.2051 l -0.145,-0.4102 0.5811,-0.5762 0.2183,-0.5762 0.9453,-0.3301 0.7266,-1.8105 -0.2178,-0.4922 0.5078,-0.7402 1.0908,-0.248 0.582,-1.3164 -0.1455,-1.6445 0.8721,-1.2344 0.1455,-1.2344 c -1.1934,-0.5918 -2.377,-1.2012 -3.5615,-1.8105"
               inkscape:connector-curvature="0" />
          </g>
        </g>
        <g
           id="g4186">
          <g
             id="g4190">
            <path
               id="path4192"
               d="m 16.766,9.5649 0.7266,0.4937 h 0.582 V 9.4829 L 17.348,9.1538 16.766,9.5649"
               inkscape:connector-curvature="0" />
          </g>
        </g>
        <g
           id="g4194">
          <g
             id="g4198">
            <path
               id="path4200"
               d="M 14.876,8.9072 14.5122,9.812 h 0.7271 L 15.6031,8.9892 C 15.9166,8.7675 16.2286,8.5444 16.5479,8.331 l 0.7271,0.2471 c 0.4844,0.3291 0.9688,0.6582 1.4536,0.9868 L 19.4561,8.9072 18.6558,8.5781 18.292,7.8374 16.9111,7.6728 16.8383,7.2612 16.184,7.4262 15.8936,8.002 15.5298,7.2613 l -0.145,0.3291 0.0728,0.8228 -0.5816,0.494"
               inkscape:connector-curvature="0" />
          </g>
        </g>
        <g
           id="g4202">
          <g
             id="g4204"
             style="opacity:0.75" />
          <g
             id="g4208" />
        </g>
        <g
           id="g4212">
          <g
             id="g4214"
             style="opacity:0.75" />
          <g
             id="g4218" />
        </g>
        <g
           id="g4222">
          <g
             id="g4226">
            <path
               id="path4228"
               d="M 17.492,6.8496 17.8558,6.521 18.5829,6.3564 c 0.498,-0.2422 0.998,-0.4053 1.5264,-0.5762 l -0.29,-0.4937 -0.9385,0.1348 -0.4434,0.4419 -0.731,0.106 -0.6499,0.3052 -0.3159,0.1528 -0.1929,0.2583 0.9443,0.1641"
               inkscape:connector-curvature="0" />
          </g>
        </g>
        <g
           id="g4230">
          <g
             id="g4234">
            <path
               id="path4236"
               d="m 18.728,14.666 0.4365,-0.6582 -0.6548,-0.4932 0.2183,1.1514"
               inkscape:connector-curvature="0" />
          </g>
        </g>
      </g>
      <g
         id="g3216"
         transform="matrix(0.98237,0,0,0.98237,-0.080952,0.030883)"
         style="color:#000000;fill:url(#radialGradient1460);stroke-width:1.01789999">
        <g
           id="g3218"
           style="color:#000000;fill:url(#radialGradient1460)">
          <g
             id="g3222"
             style="color:#000000;fill:url(#radialGradient1460)">
            <path
               id="path3224"
               d="m 44.071,20.714 v 0 l -0.5449,0.6172 c -0.334,-0.3936 -0.709,-0.7246 -1.0898,-1.0703 l -0.8359,0.123 -0.7637,-0.8633 v 1.0684 l 0.6543,0.4951 0.4355,0.4932 0.582,-0.6582 c 0.1465,0.2744 0.291,0.5488 0.4365,0.8232 v 0.8223 l -0.6553,0.7402 -1.1992,0.8232 -0.9082,0.9063 -0.582,-0.6602 0.291,-0.7402 -0.5811,-0.6582 -0.9814,-2.0977 -0.8359,-0.9453 -0.2188,0.2461 0.3281,1.1934 0.6172,0.6992 c 0.3525,1.0176 0.7012,1.9902 1.1641,2.9629 0.7178,0 1.3945,-0.0762 2.1074,-0.166 v 0.5762 l -0.8721,2.1392 -0.7998,0.9043 -0.6543,1.4004 v 2.3027 l 0.2188,0.9063 -0.3633,0.4102 -0.8008,0.4941 -0.8359,0.6992 0.6914,0.7813 -0.9453,0.8242 0.1816,0.5332 -1.418,1.6055 h -0.9443 l -0.7998,0.4941 H 33.6393 V 38.281 l -0.2168,-1.3184 c -0.2813,-0.8262 -0.5742,-1.6465 -0.8721,-2.4668 0,-0.6055 0.0361,-1.2051 0.0723,-1.8105 l 0.3643,-0.8223 -0.5098,-0.9883 0.0371,-1.3574 -0.6914,-0.7813 0.3457,-1.1309 -0.5625,-0.6382 h -0.9824 l -0.3271,-0.3701 -0.9814,0.6177 -0.3994,-0.4536 -0.9092,0.7817 c -0.6172,-0.6997 -1.2354,-1.3989 -1.8535,-2.0981 l -0.7266,-1.7285 0.6543,-0.9863 -0.3633,-0.4111 0.7988,-1.8936 c 0.6563,-0.8164 1.3418,-1.5996 2.0352,-2.3857 l 1.2363,-0.3291 1.3809,-0.1641 0.9453,0.2471 1.3447,1.3564 0.4727,-0.5342 0.6533,-0.082 1.2363,0.4111 h 0.9453 l 0.6543,-0.5762 0.291,-0.4111 -0.6553,-0.4111 -1.0908,-0.082 c -0.3027,-0.4199 -0.584,-0.8613 -0.9434,-1.2344 l -0.3643,0.1641 -0.1455,1.0703 -0.6543,-0.7402 -0.1445,-0.8242 -0.7266,-0.5742 h -0.292 l 0.7275,0.8223 -0.291,0.7402 -0.5811,0.1641 0.3633,-0.7402 -0.6553,-0.3281 -0.5801,-0.6582 -1.0918,0.2461 -0.1445,0.3281 -0.6543,0.4121 -0.3633,0.9053 -0.9082,0.4521 -0.4004,-0.4521 h -0.4355 v -1.4814 l 0.9453,-0.4941 h 0.7266 l -0.1465,-0.5752 -0.5801,-0.5762 0.9805,-0.2061 0.5449,-0.6162 0.4355,-0.7412 h 0.8008 l -0.2188,-0.5752 0.5098,-0.3291 v 0.6582 l 1.0898,0.2461 1.0898,-0.9043 0.0732,-0.4121 0.9443,-0.6577 c -0.3418,0.0425 -0.6836,0.0737 -1.0176,0.1646 V 9.9762 L 34.221,9.1534 h -0.3633 l -0.7984,0.7402 -0.2188,0.4116 0.2188,0.5767 -0.3643,0.9863 -0.5811,-0.3291 -0.5078,-0.5752 -0.8008,0.5752 -0.291,-1.3159 1.3809,-0.9048 V 8.8243 l 0.873,-0.5757 1.3809,-0.3296 0.9453,0.3296 1.7441,0.3291 -0.4355,0.4932 h -0.9453 l 0.9453,0.9873 0.7266,-0.8223 0.2207,-0.3618 c 0,0 2.7871,2.498 4.3799,5.2305 1.5928,2.7334 2.3408,5.9551 2.3408,6.6094 z"
               style="color:#000000;fill:#ffffff;fill-opacity:1"
               inkscape:connector-curvature="0" />
          </g>
        </g>
        <g
           id="g3226"
           style="color:#000000;fill:url(#radialGradient1460)">
          <g
             id="g3230"
             style="color:#000000;fill:url(#radialGradient1460)">
            <path
               id="path3232"
               d="m 26.07,9.2363 -0.0732,0.4932 0.5098,0.3291 0.8711,-0.5757 -0.4355,-0.4937 -0.582,0.3296 -0.29,-0.0825"
               style="color:#000000;fill:url(#radialGradient1460)"
               inkscape:connector-curvature="0" />
          </g>
        </g>
        <g
           id="g3234"
           style="color:#000000;fill:url(#radialGradient1460)">
          <g
             id="g3238"
             style="color:#000000;fill:url(#radialGradient1460)">
            <path
               id="path3240"
               d="m 26.87,5.8633 -1.8906,-0.7407 -2.1797,0.2466 -2.6904,0.7402 -0.5088,0.4941 1.6719,1.1514 v 0.6582 l -0.6543,0.6582 0.873,1.729 0.5801,-0.3301 0.7285,-1.1514 C 23.9227,8.9716 24.9296,8.5781 25.997,8.0844 L 26.87,5.8632"
               style="color:#000000;fill:#ffffff;fill-opacity:1"
               inkscape:connector-curvature="0" />
          </g>
        </g>
        <g
           id="g3242"
           style="color:#000000;fill:url(#radialGradient1460)">
          <g
             id="g3246"
             style="color:#000000;fill:url(#radialGradient1460)">
            <path
               id="path3248"
               d="m 28.833,12.775 -0.291,-0.7412 -0.5098,0.165 0.1465,0.9043 0.6543,-0.3281"
               style="color:#000000;fill:url(#radialGradient1460)"
               inkscape:connector-curvature="0" />
          </g>
        </g>
        <g
           id="g3250"
           style="color:#000000;fill:url(#radialGradient1460)">
          <g
             id="g3254"
             style="color:#000000;fill:url(#radialGradient1460)">
            <path
               id="path3256"
               d="m 29.123,12.609 -0.1455,0.9883 0.7998,-0.165 0.5811,-0.5752 -0.5088,-0.4941 C 29.6787,11.9079 29.4824,11.4831 29.2685,11.0466 H 28.833 v 0.4932 l 0.29,0.3291 v 0.7402"
               style="color:#000000;fill:url(#radialGradient1460)"
               inkscape:connector-curvature="0" />
          </g>
        </g>
        <g
           id="g3258"
           style="color:#000000;fill:url(#radialGradient1460)">
          <g
             id="g3262"
             style="color:#000000;fill:url(#radialGradient1460)">
            <path
               id="path3264"
               d="m 18.365,28.242 -0.582,-1.1523 -1.0903,-0.2466 -0.5815,-1.5625 -1.4536,0.1641 -1.2354,-0.9043 -1.3091,1.1514 v 0.1816 c -0.396,-0.1143 -0.8828,-0.1299 -1.2354,-0.3467 l -0.291,-0.8223 v -0.9053 l -0.8721,0.082 c 0.0728,-0.5762 0.145,-1.1514 0.2183,-1.7275 H 9.4236 L 8.9153,22.8118 8.406,23.0579 7.6789,22.6477 7.6061,21.7424 7.7516,20.7551 8.8424,19.9328 h 0.8721 l 0.145,-0.4941 1.0903,0.2461 0.7998,0.9883 0.1455,-1.6465 1.3813,-1.1514 0.5088,-1.2344 1.0176,-0.4111 0.5815,-0.8223 1.3081,-0.248 0.6548,-0.9863 h -1.9629 l 1.2358,-0.5762 h 0.8716 l 1.2363,-0.4121 0.1455,-0.4922 -0.4365,-0.4121 -0.5088,-0.165 0.1455,-0.4932 -0.3633,-0.7402 -0.8726,0.3281 0.1455,-0.6577 -1.0176,-0.5762 -0.7993,1.3979 0.0723,0.4941 -0.7993,0.3301 -0.5093,1.0693 L 13.7123,12.2804 12.331,11.7042 12.1127,10.964 13.9301,9.8937 14.7299,9.1535 14.8027,8.2487 14.3667,8.0016 13.7852,7.9191 13.4219,8.8244 c 0,0 -0.6079,0.1191 -0.7642,0.1577 -1.9961,1.8394 -6.0293,5.8101 -6.9663,13.306 0.0371,0.1738 0.6792,1.1816 0.6792,1.1816 l 1.5264,0.9043 1.5264,0.4121 0.6548,0.8232 1.0171,0.7402 0.5815,-0.082 0.436,0.1963 v 0.1328 l -0.5811,1.563 -0.4365,0.6582 0.1455,0.3301 -0.3633,1.2324 1.3086,2.3867 1.3081,1.1523 0.582,0.8223 -0.0732,1.7285 0.4365,0.9863 -0.4365,1.8926 c 0,0 -0.0342,-0.0117 0.0215,0.1777 0.0562,0.1895 2.3291,1.4512 2.4736,1.3438 0.144,-0.1094 0.2671,-0.2051 0.2671,-0.2051 l -0.145,-0.4102 0.5811,-0.5762 0.2183,-0.5762 0.9453,-0.3301 0.7266,-1.8105 -0.2178,-0.4922 0.5078,-0.7402 1.0908,-0.248 0.582,-1.3164 -0.1455,-1.6445 0.8721,-1.2344 0.1455,-1.2344 c -1.1934,-0.5918 -2.377,-1.2012 -3.5615,-1.8105"
               style="color:#000000;fill:#ffffff;fill-opacity:1"
               inkscape:connector-curvature="0" />
          </g>
        </g>
        <g
           id="g3266"
           style="color:#000000;fill:url(#radialGradient1460)">
          <g
             id="g3270"
             style="color:#000000;fill:url(#radialGradient1460)">
            <path
               id="path3272"
               d="m 16.766,9.5649 0.7266,0.4937 h 0.582 V 9.4829 L 17.348,9.1538 16.766,9.5649"
               style="color:#000000;fill:url(#radialGradient1460)"
               inkscape:connector-curvature="0" />
          </g>
        </g>
        <g
           id="g3274"
           style="color:#000000;fill:url(#radialGradient1460)">
          <g
             id="g3278"
             style="color:#000000;fill:url(#radialGradient1460)">
            <path
               id="path3280"
               d="M 14.876,8.9072 14.5122,9.812 h 0.7271 L 15.6031,8.9892 C 15.9166,8.7675 16.2286,8.5444 16.5479,8.331 l 0.7271,0.2471 c 0.4844,0.3291 0.9688,0.6582 1.4536,0.9868 L 19.4561,8.9072 18.6558,8.5781 18.292,7.8374 16.9111,7.6728 16.8383,7.2612 16.184,7.4262 15.8936,8.002 15.5298,7.2613 l -0.145,0.3291 0.0728,0.8228 -0.5816,0.494"
               style="color:#000000;fill:url(#radialGradient1460)"
               inkscape:connector-curvature="0" />
          </g>
        </g>
        <g
           id="g3282"
           style="color:#000000;fill:url(#radialGradient1460)">
          <g
             id="g3284"
             style="color:#000000;opacity:0.75;fill:url(#radialGradient1460)" />
          <g
             id="g3288"
             style="color:#000000;fill:url(#radialGradient1460)" />
        </g>
        <g
           id="g3292"
           style="color:#000000;fill:url(#radialGradient1460)">
          <g
             id="g3294"
             style="color:#000000;opacity:0.75;fill:url(#radialGradient1460)" />
          <g
             id="g3298"
             style="color:#000000;fill:url(#radialGradient1460)" />
        </g>
        <g
           id="g3302"
           style="color:#000000;fill:url(#radialGradient1460)">
          <g
             id="g3306"
             style="color:#000000;fill:url(#radialGradient1460)">
            <path
               id="path3308"
               d="M 17.492,6.8496 17.8558,6.521 18.5829,6.3564 c 0.498,-0.2422 0.998,-0.4053 1.5264,-0.5762 l -0.29,-0.4937 -0.9385,0.1348 -0.4434,0.4419 -0.731,0.106 -0.6499,0.3052 -0.3159,0.1528 -0.1929,0.2583 0.9443,0.1641"
               style="color:#000000;fill:url(#radialGradient1460)"
               inkscape:connector-curvature="0" />
          </g>
        </g>
        <g
           id="g3310"
           style="color:#000000;fill:url(#radialGradient1460)">
          <g
             id="g3314"
             style="color:#000000;fill:url(#radialGradient1460)">
            <path
               id="path3316"
               d="m 18.728,14.666 0.4365,-0.6582 -0.6548,-0.4932 0.2183,1.1514"
               style="color:#000000;fill:url(#radialGradient1460)"
               inkscape:connector-curvature="0" />
          </g>
        </g>
      </g>
      <path
         id="path4122"
         d="m 42.975,23.486 c 0,10.166 -8.2412,18.407 -18.406,18.407 -10.165,0 -18.406,-8.2412 -18.406,-18.407 0,-10.165 8.2407,-18.406 18.406,-18.406 10.164,0 18.406,8.2402 18.406,18.406 z"
         style="fill:none;stroke:none"
         inkscape:connector-curvature="0" />
    </g>
  </g>
</svg>
