<?xml version="1.0" encoding="UTF-8" standalone="no"?>
<svg
   xmlns:osb="http://www.openswatchbook.org/uri/2009/osb"
   xmlns:dc="http://purl.org/dc/elements/1.1/"
   xmlns:cc="http://creativecommons.org/ns#"
   xmlns:rdf="http://www.w3.org/1999/02/22-rdf-syntax-ns#"
   xmlns:svg="http://www.w3.org/2000/svg"
   xmlns="http://www.w3.org/2000/svg"
   xmlns:xlink="http://www.w3.org/1999/xlink"
   xmlns:sodipodi="http://sodipodi.sourceforge.net/DTD/sodipodi-0.dtd"
   xmlns:inkscape="http://www.inkscape.org/namespaces/inkscape"
   version="1.1"
   width="16"
   height="15.999605"
   id="svg2"
   viewBox="0 0 16 15.999605"
   inkscape:version="0.92.2 5c3e80d, 2017-08-06"
   sodipodi:docname="gimp-navigation.svg">
  <sodipodi:namedview
     pagecolor="#ffffff"
     bordercolor="#666666"
     borderopacity="1"
     objecttolerance="10"
     gridtolerance="10"
     guidetolerance="10"
     inkscape:pageopacity="0"
     inkscape:pageshadow="2"
     inkscape:window-width="1171"
     inkscape:window-height="570"
     id="namedview1701"
     showgrid="false"
     inkscape:zoom="29.50205"
     inkscape:cx="6.0031912"
     inkscape:cy="7.6214172"
     inkscape:window-x="0"
     inkscape:window-y="27"
     inkscape:window-maximized="0"
     inkscape:current-layer="svg2"
     showborder="true" />
  <metadata
     id="metadata90">
    <rdf:RDF>
      <cc:Work>
        <dc:format>image/svg+xml</dc:format>
        <dc:type
           rdf:resource="http://purl.org/dc/dcmitype/StillImage" />
        <dc:title>Gimp Color Icon Theme</dc:title>
        <dc:contributor>
          <cc:Agent>
            <dc:title>many unknown and unnamed, Andrew Chadwick, Alexandre Prokoudine, Aryeom Han, Benoit Touchette, Jakub Steiner, Jehan, Johannes Matschke, Kevin Payne, Klaus Staedtler, Marek Dvoroznak, Michael Natterer</dc:title>
          </cc:Agent>
        </dc:contributor>
        <dc:description>Enhanced, extended tango-art-libre for GIMP</dc:description>
      </cc:Work>
    </rdf:RDF>
  </metadata>
  <defs
     id="defs7386">
    <linearGradient
       id="linearGradient8437">
      <stop
         id="stop8439"
         offset="0"
         style="stop-color:#000000;stop-opacity:1;" />
      <stop
         id="stop8441"
         offset="1"
         style="stop-color:#000000;stop-opacity:0;" />
    </linearGradient>
    <linearGradient
       gradientTransform="matrix(0,-735328.32,170712.69,0,2464326300,577972450)"
       osb:paint="solid"
       id="linearGradient19282">
      <stop
         stop-color="#b4b4b4"
         id="stop19284" />
    </linearGradient>
    <linearGradient
       osb:paint="gradient"
       x1="231.55"
       x2="320.70001"
       gradientUnits="userSpaceOnUse"
       id="linearGradient6057"
       gradientTransform="matrix(0.01502614,0,0,0.01468232,2.9686133,1037.3257)">
      <stop
         stop-color="#a11f7c"
         id="stop6053" />
      <stop
         stop-opacity="0.984"
         stop-color="#541f31"
         offset="1"
         id="stop6055" />
    </linearGradient>
    <linearGradient
       gradientTransform="translate(90290.994,34180.916)"
       gradientUnits="userSpaceOnUse"
       y2="-4387.5962"
       x2="-2336.387"
       y1="-4387.5962"
       x1="-5887.6748"
       id="linearGradient8443"
       xlink:href="#linearGradient8437" />
    <linearGradient
       gradientTransform="translate(90290.994,34180.916)"
       y2="-4387.5962"
       x2="-2336.387"
       y1="-4387.5962"
       x1="-5887.6748"
       gradientUnits="userSpaceOnUse"
       id="linearGradient8447"
       xlink:href="#linearGradient8437" />
    <linearGradient
       gradientTransform="translate(90290.994,34180.916)"
       y2="-4387.5962"
       x2="-2336.387"
       y1="-4387.5962"
       x1="-5887.6748"
       gradientUnits="userSpaceOnUse"
       id="linearGradient8449"
       xlink:href="#linearGradient8437" />
    <linearGradient
       gradientTransform="translate(90290.994,34180.916)"
       y2="-4387.5962"
       x2="-2336.387"
       y1="-4387.5962"
       x1="-5887.6748"
       gradientUnits="userSpaceOnUse"
       id="linearGradient8451"
       xlink:href="#linearGradient8437" />
    <linearGradient
       gradientTransform="translate(90290.994,34180.916)"
       y2="-4387.5962"
       x2="-2336.387"
       y1="-4387.5962"
       x1="-5887.6748"
       gradientUnits="userSpaceOnUse"
       id="linearGradient8453"
       xlink:href="#linearGradient8437" />
    <linearGradient
       osb:paint="solid"
       id="linearGradient5487">
      <stop
         id="stop5485"
         offset="0"
         style="stop-color:#888a85;stop-opacity:1;" />
    </linearGradient>
  </defs>
  <g
     id="g8699"
     transform="matrix(0.00447897,0,0,0.00447055,26.417666,27.614771)"
     style="fill:url(#linearGradient8443);fill-opacity:1;stroke:#323232;stroke-width:22.21016502;stroke-miterlimit:4;stroke-dasharray:none;stroke-opacity:1">
    <path
       inkscape:connector-curvature="0"
       id="path3254-2-2-7-1"
       style="color:#000000;text-indent:0;text-transform:none;fill:#2e3436;fill-opacity:1;stroke:#323232;stroke-width:21.96143532;stroke-miterlimit:4;stroke-dasharray:none;stroke-opacity:1"
       d="m -4122.5,-6166.1 -272.97,1313.9 -492.72,-323.25 -10.375,10.344 322.69,491.94 -1311.3,272.34 v 23.5 l 1310.8,272.34 -324.78,495.09 10.344,10.344 493.03,-323.38 272.88,1313.8 h 23.5 l 273.03,-1314.1 492.75,323.22 10.344,-10.344 -322.81,-492.12 1311.2,-272.38 v -23.5 l -1310.5,-272.28 324.53,-494.69 -10.375,-10.344 -492.91,323.31 -272.88,-1313.7 h -23.5 z m -0.2188,119.03 v 1373.8 254.84 l -280.16,-280.25 28.969,-139.38 251.19,-1209 z m 736.97,923.69 -411.25,411.25 -25.875,-124.53 437.12,-286.72 z m -1460.5,10.781 410.31,410.31 -124.25,25.812 -286.06,-436.12 z m 1042,433.81 142.66,29.656 1205.7,250.5 h -1370 -258.53 l 280.22,-280.16 z m -1963.9,301.66 h 1370.3 258.5 l -280.22,280.22 -142.69,-29.656 -1205.9,-250.56 z m 1666.9,20.094 280.22,280.22 -28.969,139.38 -251.25,1209.2 v -1374.1 -254.75 z m 437.38,257.75 286.19,436.34 -410.53,-410.53 124.34,-25.812 z m -763.09,36.062 25.844,124.56 -437.19,286.78 411.34,-411.34 z" />
    <g
       id="text4344"
       style="fill:url(#linearGradient8447);fill-opacity:1;stroke:#323232;stroke-width:22.21016502;stroke-miterlimit:4;stroke-dasharray:none;stroke-opacity:1" />
    <g
       id="text4344-1"
       style="fill:url(#linearGradient8449);fill-opacity:1;stroke:#323232;stroke-width:22.21016502;stroke-miterlimit:4;stroke-dasharray:none;stroke-opacity:1" />
    <g
       id="text4344-8"
       style="fill:url(#linearGradient8451);fill-opacity:1;stroke:#323232;stroke-width:22.21016502;stroke-miterlimit:4;stroke-dasharray:none;stroke-opacity:1" />
    <g
       id="text4344-7"
       style="fill:url(#linearGradient8453);fill-opacity:1;stroke:#323232;stroke-width:22.21016502;stroke-miterlimit:4;stroke-dasharray:none;stroke-opacity:1" />
  </g>
  <path
     inkscape:connector-curvature="0"
     id="path3254-2-2-7-1-4"
     style="color:#000000;text-indent:0;text-transform:none;fill:none;fill-opacity:1;stroke:none;stroke-width:0.098;stroke-miterlimit:4;stroke-dasharray:none;stroke-opacity:1"
     d="m 8.0467431,0.04886697 1.2226248,5.87385313 2.2068791,-1.4451047 0.0465,0.046202 -1.445315,2.1992485 5.873273,1.2175046 v 0.1050547 l -5.871033,1.2175145 1.454675,2.2133193 -0.0463,0.0463 -2.2082586,-1.445695 -1.2222248,5.873413 H 7.9523089 L 6.7294141,10.075726 4.5224052,11.520701 4.4761032,11.474499 5.9219579,9.2744503 0.04913884,8.0567657 V 7.951701 L 5.9188178,6.7344664 4.4652627,4.5229274 4.5117648,4.4767253 6.7194937,5.9221 7.9417084,0.04913698 H 8.0469631 Z M 8.0477232,0.5809908 V 6.7226359 7.861917 L 9.3025494,6.6090408 9.1727936,5.9859329 8.0477232,0.58104081 Z M 4.7468553,4.7103958 6.5888278,6.5489081 6.704723,5.9921932 4.7468753,4.7103958 Z M 11.288388,4.758598 9.450626,6.5929101 10.007131,6.7082953 11.288388,4.758608 Z M 6.6212993,6.6979648 5.9823306,6.8305407 0.58204271,7.9504109 H 6.7182236 7.8761755 L 6.6210792,6.6979448 Z M 15.417553,8.0465552 H 9.2800184 8.1222065 L 9.3773027,9.2992914 10.016401,9.1667054 15.417593,8.0465652 Z M 7.9515589,8.1363593 6.6964626,9.3890954 6.8262084,10.012203 7.9515489,15.417995 V 9.2750103 8.1361393 Z M 5.9925411,9.2886509 4.7107037,11.239328 6.549456,9.4040261 5.9925411,9.2886409 Z M 9.4104042,9.4498581 9.294649,10.006713 11.252807,11.28878 9.4104242,9.4498581 Z" />
</svg>
