<?xml version="1.0" encoding="UTF-8" standalone="no"?>
<!-- Created with Inkscape (http://www.inkscape.org/) -->

<svg
   xmlns:dc="http://purl.org/dc/elements/1.1/"
   xmlns:cc="http://creativecommons.org/ns#"
   xmlns:rdf="http://www.w3.org/1999/02/22-rdf-syntax-ns#"
   xmlns:svg="http://www.w3.org/2000/svg"
   xmlns="http://www.w3.org/2000/svg"
   xmlns:xlink="http://www.w3.org/1999/xlink"
   xmlns:sodipodi="http://sodipodi.sourceforge.net/DTD/sodipodi-0.dtd"
   xmlns:inkscape="http://www.inkscape.org/namespaces/inkscape"
   id="svg11300"
   width="16"
   height="16"
   version="1.0"
   viewBox="0 0 16 16"
   sodipodi:docname="gimp-prefs-help-system.svg"
   inkscape:version="0.92.2 5c3e80d, 2017-08-06">
  <sodipodi:namedview
     pagecolor="#ffffff"
     bordercolor="#666666"
     borderopacity="1"
     objecttolerance="10"
     gridtolerance="10"
     guidetolerance="10"
     inkscape:pageopacity="0"
     inkscape:pageshadow="2"
     inkscape:window-width="1002"
     inkscape:window-height="631"
     id="namedview54"
     showgrid="false"
     inkscape:zoom="20.85965"
     inkscape:cx="9.69459"
     inkscape:cy="4.4811409"
     inkscape:window-x="152"
     inkscape:window-y="44"
     inkscape:window-maximized="0"
     inkscape:current-layer="svg11300" />
  <defs
     id="defs3">
    <linearGradient
       id="linearGradient4288">
      <stop
         id="stop4290"
         style="stop-color:#f7ad42"
         offset="0" />
      <stop
         id="stop4292"
         style="stop-color:#f7ad42;stop-opacity:0"
         offset="1" />
    </linearGradient>
    <linearGradient
       id="linearGradient4176">
      <stop
         id="stop4178"
         style="stop-color:#fff"
         offset="0" />
      <stop
         id="stop4180"
         style="stop-color:#fff;stop-opacity:0"
         offset="1" />
    </linearGradient>
    <linearGradient
       id="b"
       x1="43.088"
       x2="4.9111"
       y1="43.109"
       y2="4.9346"
       gradientTransform="matrix(.41083 0 0 .41022 -1.8465 -1.8202)"
       gradientUnits="userSpaceOnUse"
       xlink:href="#linearGradient4176" />
    <linearGradient
       id="h"
       x1="-7.9562"
       x2="56.167"
       y1="-11.171"
       y2="57.153"
       gradientTransform="matrix(.41083 0 0 .41022 -1.8465 -1.8202)"
       gradientUnits="userSpaceOnUse"
       xlink:href="#linearGradient4176" />
    <linearGradient
       id="linearGradient4296"
       x1="14.813"
       x2="9.9249"
       y1="14.466"
       y2="9.9434"
       gradientTransform="matrix(0.99832,0,0,0.99684,-0.096151,-0.094684)"
       gradientUnits="userSpaceOnUse"
       xlink:href="#linearGradient4288" />
    <radialGradient
       id="radialGradient4306"
       cx="12.807"
       cy="12.716"
       r="3.3109"
       gradientTransform="matrix(.99832 0 0 1.0186 -.096151 -.37136)"
       gradientUnits="userSpaceOnUse">
      <stop
         id="stop4027"
         stop-color="#ccc"
         offset="0" />
      <stop
         id="stop4029"
         stop-color="#c5c5c5"
         offset="1" />
    </radialGradient>
    <radialGradient
       id="radialGradient4497"
       cx="22.904"
       cy="23.1"
       r="19.828"
       gradientTransform="matrix(.41083 0 0 .41022 -1.8465 -1.8202)"
       gradientUnits="userSpaceOnUse">
      <stop
         id="stop16"
         stop-color="#c5c5c5"
         offset="0" />
      <stop
         id="stop18"
         stop-color="#c8c8c8"
         offset=".237" />
      <stop
         id="stop20"
         stop-color="#d1d1d1"
         offset=".408" />
      <stop
         id="stop22"
         stop-color="#e1e1e1"
         offset=".559" />
      <stop
         id="stop24"
         stop-color="#f7f7f7"
         offset=".696" />
      <stop
         id="stop26"
         stop-color="#fff"
         offset=".736" />
      <stop
         id="stop28"
         stop-color="#fcfcfc"
         offset=".819" />
      <stop
         id="stop30"
         stop-color="#f2f2f2"
         offset=".881" />
      <stop
         id="stop32"
         stop-color="#e2e2e2"
         offset=".936" />
      <stop
         id="stop34"
         stop-color="#ccc"
         offset=".988" />
      <stop
         id="stop36"
         stop-color="#c5c5c5"
         offset="1" />
    </radialGradient>
    <linearGradient
       id="linearGradient4296-2"
       x1="14.813"
       x2="9.9249"
       y1="14.466"
       y2="9.9434"
       gradientTransform="matrix(-0.99832,0,0,0.99684,16.091,-0.048814)"
       gradientUnits="userSpaceOnUse"
       xlink:href="#linearGradient4288" />
    <radialGradient
       id="radialGradient4306-4"
       cx="12.807"
       cy="12.716"
       r="3.3109"
       gradientTransform="matrix(-.99832 0 0 1.0186 16.091 -.32549)"
       gradientUnits="userSpaceOnUse">
      <stop
         id="stop4027-7"
         stop-color="#ccc"
         offset="0" />
      <stop
         id="stop4029-4"
         stop-color="#c5c5c5"
         offset="1" />
    </radialGradient>
    <linearGradient
       id="linearGradient4296-2-8"
       x1="14.813"
       x2="9.9249"
       y1="14.466"
       y2="9.9434"
       gradientTransform="matrix(-0.99832,0,0,-0.99684,16.091,16.049)"
       gradientUnits="userSpaceOnUse"
       xlink:href="#linearGradient4288" />
    <radialGradient
       id="radialGradient4306-4-1"
       cx="12.807"
       cy="12.716"
       r="3.3109"
       gradientTransform="matrix(-.99832 0 0 -1.0186 16.091 16.325)"
       gradientUnits="userSpaceOnUse">
      <stop
         id="stop4027-7-6"
         stop-color="#ccc"
         offset="0" />
      <stop
         id="stop4029-4-9"
         stop-color="#c5c5c5"
         offset="1" />
    </radialGradient>
    <linearGradient
       id="linearGradient4296-2-8-2"
       x1="14.813"
       x2="9.9249"
       y1="14.466"
       y2="9.9434"
       gradientTransform="matrix(0.99832,0,0,-0.99684,-0.17092,16.049)"
       gradientUnits="userSpaceOnUse"
       xlink:href="#linearGradient4288" />
    <radialGradient
       id="radialGradient4306-4-1-9"
       cx="12.807"
       cy="12.716"
       r="3.3109"
       gradientTransform="matrix(.99832 0 0 -1.0186 -.17092 16.325)"
       gradientUnits="userSpaceOnUse">
      <stop
         id="stop4027-7-6-0"
         stop-color="#ccc"
         offset="0" />
      <stop
         id="stop4029-4-9-0"
         stop-color="#c5c5c5"
         offset="1" />
    </radialGradient>
  </defs>
  <metadata
     id="metadata4">
    <rdf:RDF>
      <cc:Work
         rdf:about="">
        <dc:format>image/svg+xml</dc:format>
        <dc:type
           rdf:resource="http://purl.org/dc/dcmitype/StillImage" />
        <dc:creator>
          <cc:Agent>
            <dc:title>Jakub Steiner</dc:title>
          </cc:Agent>
        </dc:creator>
        <dc:source>http://jimmac.musichall.cz</dc:source>
        <cc:license
           rdf:resource="http://creativecommons.org/licenses/by-sa/2.0/" />
        <dc:title />
      </cc:Work>
      <cc:License
         rdf:about="http://creativecommons.org/licenses/by-sa/2.0/">
        <cc:permits
           rdf:resource="http://web.resource.org/cc/Reproduction" />
        <cc:permits
           rdf:resource="http://web.resource.org/cc/Distribution" />
        <cc:requires
           rdf:resource="http://web.resource.org/cc/Notice" />
        <cc:requires
           rdf:resource="http://web.resource.org/cc/Attribution" />
        <cc:permits
           rdf:resource="http://web.resource.org/cc/DerivativeWorks" />
        <cc:requires
           rdf:resource="http://web.resource.org/cc/ShareAlike" />
      </cc:License>
    </rdf:RDF>
  </metadata>
  <path
     id="path4270-8-6-4"
     d="M 12.615,6.6454 C 10.8449,6.6454701 9.4098,5.1802 9.4094,3.3726 9.409715,1.5649 10.8448,0.0997 12.615,0.0998 c 0.88507,-3.407e-5 0.9675,1.2305 1.5476,1.8228 0.58008,0.59226 1.6578,0.54622 1.658,1.4501 -3.15e-4,1.8077 -1.4354,3.2729 -3.2056,3.2728 z m 0.01755,-0.65418 c 1.4589,6.752e-4 2.642,-1.1963 2.642,-2.6732 -6.4e-5,-1.4768 -1.1831,-2.6738 -2.642,-2.6732 -1.4582,4.1377e-4 -2.64,1.1971 -2.6401,2.6732 6.4e-5,1.4761 1.1819,2.6728 2.6401,2.6732 z"
     style="color:#000000;isolation:auto;mix-blend-mode:normal;solid-color:#000000;fill:#f7ad42;stroke:#f7ad42;stroke-width:0.19952001;stroke-linecap:round;stroke-linejoin:round;stroke-opacity:0.97254902;color-rendering:auto;image-rendering:auto;shape-rendering:auto;fill-opacity:1"
     inkscape:connector-curvature="0" />
  <path
     id="path4270-8-6"
     d="M 3.3053,6.6454 C 5.0754,6.6454701 6.5105,5.1802 6.5109,3.3726 6.510585,1.5649 5.0755,0.0997 3.3053,0.0998 2.42023,0.09976593 2.3378,1.3303 1.7577,1.9226 1.17762,2.51486 0.0999,2.46882 0.0997,3.3727 0.100015,5.1804 1.5351,6.6456 3.3053,6.6455 Z M 3.28775,5.99122 c -1.4589,6.752e-4 -2.642,-1.1963 -2.642,-2.6732 6.4e-5,-1.4768 1.1831,-2.6738 2.642,-2.6732 1.4582,4.1377e-4 2.64,1.1971 2.6401,2.6732 -6.4e-5,1.4761 -1.1819,2.6728 -2.6401,2.6732 z"
     style="color:#000000;isolation:auto;mix-blend-mode:normal;solid-color:#000000;fill:#f7ad42;stroke:#f7ad42;stroke-width:0.19952001;stroke-linecap:round;stroke-linejoin:round;stroke-opacity:0.77254902;color-rendering:auto;image-rendering:auto;shape-rendering:auto;fill-opacity:1"
     inkscape:connector-curvature="0" />
  <path
     id="path4270-8"
     d="m 3.3053,9.3546 c 1.7701,-7.06e-5 3.2052,1.4652 3.2056,3.2728 -3.15e-4,1.8077 -1.4354,3.2729 -3.2056,3.2728 C 2.42023,15.900234 2.3378,14.6697 1.7577,14.0774 1.17762,13.48514 0.0999,13.53118 0.0997,12.6273 0.100015,10.8196 1.5351,9.3544 3.3053,9.3545 Z m -0.01755,0.65418 c -1.4589,-6.75e-4 -2.642,1.1963 -2.642,2.6732 6.4e-5,1.4768 1.1831,2.6738 2.642,2.6732 1.4582,-4.14e-4 2.64,-1.1971 2.6401,-2.6732 -6.4e-5,-1.4761 -1.1819,-2.6728 -2.6401,-2.6732 z"
     style="color:#000000;isolation:auto;mix-blend-mode:normal;solid-color:#000000;fill:#f7ad42;stroke:#f7ad42;stroke-width:0.19952001;stroke-linecap:round;stroke-linejoin:round;stroke-opacity:0.89411765;color-rendering:auto;image-rendering:auto;shape-rendering:auto;fill-opacity:1"
     inkscape:connector-curvature="0" />
  <path
     id="path4270"
     d="m 12.69,9.3087 c -1.7701,-7.06e-5 -3.2052,1.4652 -3.2056,3.2728 3.147e-4,1.8077 1.4354,3.2729 3.2056,3.2728 0.88507,3.4e-5 0.9675,-1.2305 1.5476,-1.8228 0.58008,-0.59226 1.6578,-0.54622 1.658,-1.4501 C 15.895285,10.7737 14.4602,9.3085 12.69,9.3086 Z m 0.01755,0.65418 c 1.4589,-6.759e-4 2.642,1.1963 2.642,2.6732 -6.5e-5,1.4768 -1.1831,2.6738 -2.642,2.6732 -1.4582,-4.13e-4 -2.64,-1.1971 -2.6401,-2.6732 6.4e-5,-1.4761 1.1819,-2.6728 2.6401,-2.6732 z"
     style="color:#000000;isolation:auto;mix-blend-mode:normal;solid-color:#000000;fill:#f7ad42;stroke:#f7ad42;stroke-width:0.19952001;stroke-linecap:round;stroke-linejoin:round;stroke-opacity:0.91666667;color-rendering:auto;image-rendering:auto;shape-rendering:auto;fill-opacity:1"
     inkscape:connector-curvature="0" />
  <ellipse
     id="circle92"
     cx="8.0135002"
     cy="8.0250998"
     rx="5.4312"
     ry="5.4231"
     style="fill:#ffffff;stroke:#c5c5c5;stroke-width:4.5158;stroke-opacity:1" />
  <path
     id="path94"
     d="M 4.3571,1.2811 6.5707,5.1286 C 5.83285,5.538 5.505,5.83952 5.1385,6.5074 L 1.1596,4.6376 C 1.65137,3.4098 3.2092,1.7726 4.3571,1.2816 m 10.341,3.1058 -3.8154,2.1885 C 10.46406,5.87196 10.11362,5.5733 9.5027,5.198 l 1.8672,-3.9718 c 1.2177,0.48652 2.8413,2.0265 3.3282,3.1612 m -3.0315,10.362 -2.2279,-3.8668 c 0.67007,-0.37576 1.0148,-0.73266 1.4239,-1.4206 l 4.0414,1.8919 c -0.49793,1.243 -2.1581,2.9003 -3.2369,3.3954 M 1.2431,11.6316 5.0832,9.4213 c 0.41001,0.73676 0.71197,1.0001 1.3935,1.43 L 4.6041,14.8239 C 3.3745,14.33286 1.7348,12.6957 1.2431,11.6315"
     style="fill:#cc0000"
     inkscape:connector-curvature="0" />
  <ellipse
     style="fill:none;stroke:none;stroke-width:0.3612619"
     cy="8.0250797"
     cx="8.0134201"
     id="circle102"
     rx="3.0812249"
     ry="3.0766499" />
  <ellipse
     style="fill:none;stroke:none;stroke-width:0.3612619"
     cy="8.0250797"
     cx="8.0134201"
     id="circle104"
     rx="7.8057699"
     ry="7.7941799" />
</svg>
