<?xml version="1.0" encoding="UTF-8" standalone="no"?>
<svg
   xmlns:dc="http://purl.org/dc/elements/1.1/"
   xmlns:cc="http://creativecommons.org/ns#"
   xmlns:rdf="http://www.w3.org/1999/02/22-rdf-syntax-ns#"
   xmlns:svg="http://www.w3.org/2000/svg"
   xmlns="http://www.w3.org/2000/svg"
   xmlns:xlink="http://www.w3.org/1999/xlink"
   xmlns:sodipodi="http://sodipodi.sourceforge.net/DTD/sodipodi-0.dtd"
   xmlns:inkscape="http://www.inkscape.org/namespaces/inkscape"
   id="svg2"
   width="16"
   height="16.032"
   version="1.1"
   viewBox="0 0 16 16.032"
   sodipodi:docname="gimp-prefs-folders-plug-ins.svg"
   inkscape:version="0.92.2 5c3e80d, 2017-08-06">
  <sodipodi:namedview
     pagecolor="#ffffff"
     bordercolor="#666666"
     borderopacity="1"
     objecttolerance="10"
     gridtolerance="10"
     guidetolerance="10"
     inkscape:pageopacity="0"
     inkscape:pageshadow="2"
     inkscape:window-width="1017"
     inkscape:window-height="608"
     id="namedview23"
     showgrid="false"
     inkscape:zoom="14.720559"
     inkscape:cx="8"
     inkscape:cy="8.0159998"
     inkscape:window-x="236"
     inkscape:window-y="109"
     inkscape:window-maximized="0"
     inkscape:current-layer="svg2" />
  <metadata
     id="metadata90">
    <rdf:RDF>
      <cc:Work>
        <dc:format>image/svg+xml</dc:format>
        <dc:type
           rdf:resource="http://purl.org/dc/dcmitype/StillImage" />
        <dc:title>Gimp Color Icon Theme</dc:title>
        <dc:contributor>
          <cc:Agent>
            <dc:title>many unknown and unnamed, Andrew Chadwick, Alexandre Prokoudine, Aryeom Han, Benoit Touchette, Jakub Steiner, Jehan, Johannes Matschke, Kevin Payne, Klaus Staedtler, Marek Dvoroznak, Michael Natterer</dc:title>
          </cc:Agent>
        </dc:contributor>
        <dc:description>Enhanced, extended tango-art-libre for GIMP</dc:description>
      </cc:Work>
    </rdf:RDF>
  </metadata>
  <defs
     id="defs7386">
    <linearGradient
       id="linearGradient3096">
      <stop
         id="stop3098"
         stop-color="#424242"
         offset="0" />
      <stop
         id="stop3100"
         stop-color="#777"
         offset="1" />
    </linearGradient>
    <linearGradient
       id="linearGradient3991"
       x1="1.2042"
       x2="14.824"
       y1="8.0156"
       y2="8.0156"
       gradientTransform="translate(-223.65 854.15)"
       gradientUnits="userSpaceOnUse"
       xlink:href="#linearGradient3096" />
    <linearGradient
       id="linearGradient9022"
       x1="18.113"
       x2="15.515"
       y1="31.368"
       y2="6.1803"
       gradientTransform="matrix(.39071 0 0 .39071 746.77 246.18)"
       gradientUnits="userSpaceOnUse"
       xlink:href="#linearGradient3096" />
    <linearGradient
       id="linearGradient9024"
       x1="22.176"
       x2="22.065"
       y1="36.988"
       y2="32.05"
       gradientTransform="matrix(.39071 0 0 .39071 746.77 246.18)"
       gradientUnits="userSpaceOnUse">
      <stop
         id="stop9768"
         stop-color="#6194cb"
         offset="0" />
      <stop
         id="stop9770"
         stop-color="#729fcf"
         offset="1" />
    </linearGradient>
    <linearGradient
       id="linearGradient9026"
       x1="13.036"
       x2="12.854"
       y1="32.567"
       y2="46.689"
       gradientTransform="matrix(.51476 0 0 .31892 746.43 245.67)"
       gradientUnits="userSpaceOnUse">
      <stop
         id="stop8342"
         stop-color="#fff"
         stop-opacity=".79608"
         offset="0" />
      <stop
         id="stop8344"
         stop-color="#fff"
         stop-opacity=".21569"
         offset="1" />
    </linearGradient>
  </defs>
  <g
     id="preferences"
     transform="translate(-370.94 -57.741)">
    <g
       id="gimp-prefs-folders-plug-ins"
       transform="translate(370.94 25.773)">
      <path
         id="path216-5-8"
         d="m0.575 47.479c0.008516 0.16265 0.17969 0.32531 0.34235 0.32531h12.24c0.16265 0 0.31679-0.16266 0.30828-0.32531l-0.36588-10.638c-0.0085-0.16265-0.17969-0.32531-0.34234-0.32531h-5.1851c-0.18952 0-0.48232-0.1233-0.54764-0.43237l-0.23888-1.1304c-0.060744-0.28744-0.34469-0.40551-0.50735-0.40551h-5.7743c-0.16266 0-0.3168 0.16266-0.30828 0.32531z"
         style="fill:#999999;stroke-linecap:round;stroke-linejoin:round;stroke-width:0.39071;stroke:#999999;stroke-opacity:1" />
      <path
         id="path1933"
         transform="matrix(.01969 -.88084 .88084 .01969 2.1629 44.938)"
         d="m9.0938 1.457c-0.1354 0-0.58183 0.067991-0.8457 0.18945-0.13194 0.060731-0.2178 0.12912-0.24414 0.16016-0.026344 0.031037-0.015625 8.884e-4 -0.015625 0.037109 0 0.010174-0.025957-0.074396 0.12109 0.21094 0.14705 0.28533 0.32443 0.79857 0.31641 1.457a0.9268 0.9268 0 0 1-0.92578 0.91406h-3.0742v3.0742a0.9268 0.9268 0 0 1-0.92578 0.92578c-0.8089 0-1.4049-0.43038-1.7441-0.71289-0.26597-0.2215-0.25773-0.21351-0.20117-0.22461-0.012556 0.028621-0.012876 0.018636-0.025391 0.064453-0.069061 0.25283-0.079669 0.68251-0.072266 0.91797 0.017981 0.57188-0.00855 1.2783 0.066406 1.7559 0.016009 0.102 0.029663 0.10929 0.050781 0.17774 0.058096-0.04773 0.085634-0.06929 0.16016-0.12891 0.35957-0.28765 0.95672-0.70117 1.7656-0.70117a0.9268 0.9268 0 0 1 0.92578 0.92578v4.0742h1.4531c-0.18763-0.28447-0.30469-0.67551-0.30469-1.0742 0-0.41829 0.17858-0.83798 0.43164-1.1152 0.25306-0.27726 0.54785-0.43658 0.83398-0.54688 0.57226-0.22059 1.1518-0.26367 1.6602-0.26367 0.69446 0 1.2125-0.07307 1.8477 0.1582 0.31757 0.11564 0.67083 0.38274 0.85547 0.72656 0.18464 0.34382 0.22266 0.69095 0.22266 1.041 0 0.40006-0.16576 0.74369-0.32031 0.9668-0.03393 0.04898-0.05708 0.06539-0.08984 0.10742h3.5586v-2.541c-0.25783 0.20457-0.57779 0.39258-1.0742 0.39258-0.5589 0-1.164-0.35608-1.4824-0.88672-0.31839-0.53064-0.44336-1.1861-0.44336-2.0391 0-0.85297 0.12498-1.5084 0.44336-2.0391s0.92352-0.88672 1.4824-0.88672c0.42889 0 0.78477 0.14532 1.0742 0.32031v-2.4688h-4.0742a0.9268 0.9268 0 0 1-0.92578-0.91016c-0.0084867-0.53185 0.20727-1.0503 0.50977-1.373 0.29296-0.3126 0.60805-0.46184 0.85547-0.57617-0.4178-0.086425-1.1077-0.10938-1.8457-0.10938z"
         style="color:#000000;fill:#9ade00;stroke-dashoffset:1.5;stroke-linecap:square;stroke-linejoin:round;stroke-width:0.5;stroke:#9ade00;stroke-opacity:1" />
      <path
         id="path233-5-0"
         d="m14.352 47.801c0.44693-0.01722 0.767-0.42834 0.7998-0.90684 0.30936-4.5122 0.64833-8.2956 0.64833-8.2956 0.02819-0.09669-0.0656-0.19339-0.1876-0.19339h-13.429s-0.72294 8.5436-0.72294 8.5436c-0.044758 0.3837-0.18207 0.70512-0.60554 0.8532l13.497-0.0011z"
         style="color:#000000;display:block;fill:#0084c8;stroke-linejoin:round;stroke-width:0.39071;stroke:#0084c8;stroke-opacity:1" />
      <rect
         id="rect3965-5-78"
         y="32"
         width="16"
         height="16"
         style="color-rendering:auto;color:#000000;image-rendering:auto;isolation:auto;mix-blend-mode:normal;opacity:0;shape-rendering:auto;solid-color:#000000;stroke-width:.493" />
    </g>
  </g>
</svg>
