<?xml version="1.0" encoding="UTF-8" standalone="no"?>
<svg
   xmlns:dc="http://purl.org/dc/elements/1.1/"
   xmlns:cc="http://creativecommons.org/ns#"
   xmlns:rdf="http://www.w3.org/1999/02/22-rdf-syntax-ns#"
   xmlns:svg="http://www.w3.org/2000/svg"
   xmlns="http://www.w3.org/2000/svg"
   xmlns:sodipodi="http://sodipodi.sourceforge.net/DTD/sodipodi-0.dtd"
   xmlns:inkscape="http://www.inkscape.org/namespaces/inkscape"
   id="svg2"
   width="16"
   height="16"
   version="1.1"
   viewBox="0 0 256 256"
   sodipodi:docname="gimp-undo-history.svg"
   inkscape:version="0.92.4 (unknown)">
  <defs
     id="defs10" />
  <sodipodi:namedview
     pagecolor="#ffffff"
     bordercolor="#666666"
     borderopacity="1"
     objecttolerance="10"
     gridtolerance="10"
     guidetolerance="10"
     inkscape:pageopacity="0"
     inkscape:pageshadow="2"
     inkscape:window-width="1375"
     inkscape:window-height="786"
     id="namedview8"
     showgrid="false"
     inkscape:zoom="37.854492"
     inkscape:cx="8"
     inkscape:cy="8"
     inkscape:window-x="65"
     inkscape:window-y="24"
     inkscape:window-maximized="1"
     inkscape:current-layer="svg2" />
  <metadata
     id="metadata90">
    <rdf:RDF>
      <cc:Work>
        <dc:format>image/svg+xml</dc:format>
        <dc:type
           rdf:resource="http://purl.org/dc/dcmitype/StillImage" />
        <dc:title></dc:title>
        <dc:contributor>
          <cc:Agent>
            <dc:title>many unknown and unnamed, Andrew Chadwick, Alexandre Prokoudine, Aryeom Han, Benoit Touchette, Jakub Steiner, Jehan, Johannes Matschke, Kevin Payne, Klaus Staedtler, Marek Dvoroznak, Michael Natterer</dc:title>
          </cc:Agent>
        </dc:contributor>
        <dc:description>Enhanced, extended tango-art-libre for GIMP</dc:description>
      </cc:Work>
    </rdf:RDF>
  </metadata>
  <g
     id="g4253">
    <path
       id="path11633"
       d="m 70.601,85.981 -67.069,67.405 67.069,66.62 c 0.06162,-11.102 0,-16.753 0.06558,-49.9 l 92.22,-0.35977 c 14.008,-0.0566 25.086,11.054 25.086,25.13 0,14.076 -11.061,25.13 -25.151,25.13 h -8.3837 v 33.506 h 8.3837 c 32.212,0 58.686,-26.452 58.686,-58.636 0,-32.184 -26.459,-58.766 -58.751,-58.636 l -92.155,0.39259 z"
       style="fill:#edd400;stroke:none;stroke-width:4.97429991"
       inkscape:connector-curvature="0" />
    <rect
       id="rect35735-0-1"
       transform="scale(1,-1)"
       x="0.045598999"
       y="-256"
       width="255.95"
       height="256"
       style="color:#bebebe;fill:none" />
    <path
       id="path11633-6"
       d="m 124.53,4.8785 -57.507,55.137 57.507,54.494 c 0.0528,-9.0812 0,-13.703 0.0562,-40.817 l 79.072,-0.29429 c 12.011,-0.04637 21.509,9.0422 21.509,20.556 0,11.514 -9.4844,20.556 -21.565,20.556 h -7.1884 v 27.408 h 7.1884 c 27.619,0 50.319,-21.637 50.319,-47.964 0,-26.326 -22.686,-48.07 -50.375,-47.964 l -79.016,0.32113 z"
       style="opacity:0.5;fill:#edd400;stroke:none;stroke-width:4.16590023"
       inkscape:connector-curvature="0" />
  </g>
</svg>
