<?xml version="1.0" encoding="UTF-8" standalone="no"?>
<!-- Created with Inkscape (http://www.inkscape.org/) -->

<svg
   xmlns:dc="http://purl.org/dc/elements/1.1/"
   xmlns:cc="http://creativecommons.org/ns#"
   xmlns:rdf="http://www.w3.org/1999/02/22-rdf-syntax-ns#"
   xmlns:svg="http://www.w3.org/2000/svg"
   xmlns="http://www.w3.org/2000/svg"
   xmlns:sodipodi="http://sodipodi.sourceforge.net/DTD/sodipodi-0.dtd"
   xmlns:inkscape="http://www.inkscape.org/namespaces/inkscape"
   id="svg30571"
   width="16"
   height="16"
   version="1.1"
   viewBox="0 0 16 16"
   sodipodi:docname="gimp-rotate-180.svg"
   inkscape:version="0.92.2 5c3e80d, 2017-08-06">
  <defs
     id="defs10" />
  <sodipodi:namedview
     pagecolor="#ffffff"
     bordercolor="#666666"
     borderopacity="1"
     objecttolerance="10"
     gridtolerance="10"
     guidetolerance="10"
     inkscape:pageopacity="0"
     inkscape:pageshadow="2"
     inkscape:window-width="764"
     inkscape:window-height="480"
     id="namedview8"
     showgrid="false"
     inkscape:zoom="14.75"
     inkscape:cx="8"
     inkscape:cy="8"
     inkscape:window-x="151"
     inkscape:window-y="67"
     inkscape:window-maximized="0"
     inkscape:current-layer="svg30571" />
  <metadata
     id="metadata30576">
    <rdf:RDF>
      <cc:Work
         rdf:about="">
        <dc:format>image/svg+xml</dc:format>
        <dc:type
           rdf:resource="http://purl.org/dc/dcmitype/StillImage" />
        <dc:title />
        <dc:creator>
          <cc:Agent>
            <dc:title>Klaus Staedtler</dc:title>
          </cc:Agent>
        </dc:creator>
      </cc:Work>
    </rdf:RDF>
  </metadata>
  <g
     id="layer1"
     transform="translate(0 -1036.4)">
    <g
       id="g17"
       transform="rotate(90 8 1044.4)">
      <rect
         id="rect10176"
         transform="rotate(-90)"
         x="-1052.4"
         y="6.7877e-14"
         width="16"
         height="16"
         style="fill:none" />
      <path
         id="path15848"
         transform="translate(0 1036.4)"
         d="m6.418 2.2422c-3.3849 0-6.1289 2.9144-6.1289 6.5078 0 0.1713-0.055132 0.89851-0.042969 1.0664h1.9531c-0.017633-0.167 0-0.84362 0-1.0156 0-2.4877 1.8754-4.5566 4.2188-4.5566s4.3828 2.0182 4.3828 4.5059c0 0.172 0.01764 1.2999 0 1.4668h-2.6016l3.6016 3.4551 3.5742-3.4551h-2.5898c0.01225-0.1678 0.0293-1.2955 0.0293-1.4668 0-3.5934-3.0116-6.5078-6.3965-6.5078z"
         style="fill:#fcaf3e;stroke-width:0.48577;stroke:none" />
    </g>
  </g>
</svg>
