<?xml version="1.0" encoding="UTF-8" standalone="no"?>
<!-- Created with Inkscape (http://www.inkscape.org/) -->

<svg
   xmlns:dc="http://purl.org/dc/elements/1.1/"
   xmlns:cc="http://creativecommons.org/ns#"
   xmlns:rdf="http://www.w3.org/1999/02/22-rdf-syntax-ns#"
   xmlns:svg="http://www.w3.org/2000/svg"
   xmlns="http://www.w3.org/2000/svg"
   xmlns:sodipodi="http://sodipodi.sourceforge.net/DTD/sodipodi-0.dtd"
   xmlns:inkscape="http://www.inkscape.org/namespaces/inkscape"
   id="svg7384"
   width="16"
   height="16"
   version="1.1"
   viewBox="0 0 16 16"
   sodipodi:docname="system-run.svg"
   inkscape:version="0.92.4 (unknown)">
  <defs
     id="defs11" />
  <sodipodi:namedview
     pagecolor="#ffffff"
     bordercolor="#666666"
     borderopacity="1"
     objecttolerance="10"
     gridtolerance="10"
     guidetolerance="10"
     inkscape:pageopacity="0"
     inkscape:pageshadow="2"
     inkscape:window-width="1375"
     inkscape:window-height="786"
     id="namedview9"
     showgrid="false"
     inkscape:zoom="37.854492"
     inkscape:cx="8"
     inkscape:cy="8"
     inkscape:window-x="65"
     inkscape:window-y="24"
     inkscape:window-maximized="1"
     inkscape:current-layer="svg7384" />
  <metadata
     id="metadata90">
    <rdf:RDF>
      <cc:Work
         rdf:about="">
        <dc:format>image/svg+xml</dc:format>
        <dc:type
           rdf:resource="http://purl.org/dc/dcmitype/StillImage" />
        <dc:title></dc:title>
      </cc:Work>
    </rdf:RDF>
  </metadata>
  <rect
     id="rect4257"
     x="6.6613e-16"
     y="1e-6"
     width="16"
     height="16"
     style="fill:none;paint-order:stroke fill markers" />
  <path
     id="path2978"
     d="m5.1346 7.5837c-0.60794 0.032368-1.2108 0.19116-1.7468 0.48283 0.098721 0.47373 0.19744 0.94747 0.29616 1.4212-0.25656 0.12631-0.41413 0.48278-0.64952 0.55368-0.44096-0.089995-0.88192-0.17999-1.3229-0.26999-0.29852 0.53304-0.45486 1.1387-0.47896 1.7476 0.4601 0.1564 0.9202 0.31279 1.3803 0.46919-0.018869 0.28337 0.20668 0.5977 0.14893 0.83575-0.30313 0.3417-0.60627 0.68339-0.9094 1.0251 0.31244 0.52044 0.76995 0.93987 1.268 1.2789 0.35672-0.32204 0.71344-0.64407 1.0702-0.96611 0.24325 0.16502 0.64188 0.12026 0.82602 0.29679 0.14269 0.43618 0.28537 0.87236 0.42806 1.3085 0.60794-0.03235 1.2108-0.19117 1.7468-0.48282-0.098721-0.47373-0.19744-0.94747-0.29616-1.4212 0.25656-0.12631 0.41413-0.48277 0.64952-0.55368 0.44103 0.09 0.88207 0.17999 1.3231 0.26999 0.29816-0.5332 0.45489-1.1387 0.47873-1.7476-0.4601-0.1564-0.9202-0.31279-1.3803-0.46919 0.018869-0.28337-0.20668-0.5977-0.14893-0.83575 0.30313-0.3417 0.60627-0.68339 0.9094-1.0251-0.31236-0.52055-0.76991-0.93987-1.268-1.2789-0.35672 0.32204-0.71344 0.64407-1.0702 0.96611-0.24325-0.16502-0.64188-0.12026-0.82602-0.29679-0.14269-0.43618-0.28537-0.87236-0.42806-1.3085zm0.056348 3.1825c0.65258-0.09681 1.2009 0.63873 0.94387 1.2392-0.20695 0.62326-1.1266 0.78948-1.5304 0.2666-0.43936-0.47469-0.17822-1.339 0.45456-1.4808l0.065408-0.01499z"
     style="fill:#005c94;stroke-linecap:round;stroke-width:0.45271;stroke:none" />
  <g
     id="g2904"
     transform="matrix(0.43542,0.11767,-0.11667,0.43915,-1.4907,-3.4786)"
     style="fill:#729fcf">
    <path
       id="path2875"
       d="m 31,0.875 c -0.38951,0.20323 -1.4664,-0.254 -1.3358,0.46617 -0.06341,0.92805 -0.1304,1.8559 -0.19517,2.7838 -1.0915,0.053558 -2.1606,0.9988 -3.0496,1.0984 l -2.2944,-2.4422 -2.344,2.3438 2.563,2.4375 c -0.73075,0.80878 -0.8519,2.2229 -1.4051,2.9196 -0.98998,0.06822 -1.9795,0.14272 -2.9699,0.2059 -0.09051,0.87547 -0.09639,1.7486 0,2.624 1.0524,0.06735 2.104,0.14654 3.156,0.219 0.05339,1.0915 0.99947,2.1607 1.0985,3.0494 -0.6368,0.75482 -1.2787,1.5053 -1.9115,2.2636 0.54476,0.68033 1.1636,1.2993 1.844,1.844 0.80578,-0.67284 1.6037,-1.3551 2.406,-2.032 0.80902,0.73061 2.2233,0.8518 2.9201,1.4051 0.06822,0.98998 0.14272,1.9795 0.2059,2.9699 0.87547,0.09051 1.7486,0.09639 2.624,0 0.06735,-1.0524 0.14654,-2.104 0.219,-3.156 1.0915,-0.05339 2.1607,-0.99947 3.0494,-1.0985 0.75482,0.6368 1.5053,1.2787 2.2636,1.9115 0.68033,-0.54476 1.2993,-1.1636 1.844,-1.844 -0.67284,-0.80578 -1.3551,-1.6037 -2.032,-2.406 0.73061,-0.80902 0.8518,-2.2233 1.4051,-2.9201 0.98998,-0.06822 1.9795,-0.14272 2.9699,-0.2059 0.09051,-0.87547 0.09639,-1.7486 0,-2.624 -1.0524,-0.06735 -2.104,-0.14654 -3.156,-0.219 -0.05324,-1.0914 -0.9994,-2.1604 -1.0985,-3.0489 0.63681,-0.75492 1.2787,-1.5056 1.9115,-2.2639 -0.54485,-0.68013 -1.1631,-1.2997 -1.844,-1.8437 -0.80617,0.67213 -1.6036,1.3546 -2.406,2.0313 -0.80889,-0.73084 -2.2234,-0.8515 -2.9201,-1.4049 -0.06822,-0.99007 -0.14273,-1.9797 -0.2059,-2.9701 -0.4387,-0.014848 -0.87339,-0.083055 -1.312,-0.09375 z M 31,8.5 c 2.1357,-0.072709 3.93,2.1271 3.4289,4.2051 -0.36026,2.0978 -2.8572,3.4142 -4.7908,2.5197 C 27.717,14.48148 26.8822,11.9136 28.007,10.1856 28.62367,9.1534 29.7962,8.4883 31.0001,8.5 Z"
       style="fill:#729fcf"
       inkscape:connector-curvature="0" />
    <path
       id="path2779"
       d="m 31,0.5 c -0.562,0 -1.116,0.047 -1.656,0.125 l -0.219,3.0938 c -0.96,0.2157 -1.85,0.5835 -2.656,1.0937 L 24.125,2.7812 C 23,3.5 22.5,4 21.781,5.125 l 2.031,2.3438 c -0.51,0.8067 -0.878,1.6966 -1.093,2.6562 l -3.094,0.219 C 19.547,10.884 19.5,11.438 19.5,12 c 0,0.562 0.047,1.116 0.125,1.656 l 3.094,0.219 c 0.215,0.96 0.583,1.85 1.093,2.656 l -2.031,2.344 C 22.5,20 23,20.5 24.125,21.219 l 2.344,-2.031 c 0.806,0.51 1.696,0.878 2.656,1.093 l 0.219,3.094 c 0.54,0.078 1.094,0.125 1.656,0.125 0.562,0 1.116,-0.047 1.656,-0.125 l 0.219,-3.094 c 0.96,-0.215 1.85,-0.583 2.656,-1.093 l 2.344,2.031 C 39,20.5 39.5,20 40.219,18.875 l -2.031,-2.344 c 0.51,-0.806 0.878,-1.696 1.093,-2.656 l 3.094,-0.219 C 42.453,13.116 42.5,12.562 42.5,12 c 0,-0.562 -0.047,-1.116 -0.125,-1.656 L 39.281,10.125 C 39.066,9.1654 38.698,8.2755 38.188,7.4688 L 40.219,5.125 C 39.569,4.0173 39,3.5 37.875,2.7812 L 35.531,4.8125 C 34.725,4.3023 33.835,3.9345 32.875,3.7188 L 32.656,0.625 C 32.116,0.547 31.562,0.5 31,0.5 Z m 0,9 c 1.38,0 2.5,1.12 2.5,2.5 0,1.38 -1.12,2.5 -2.5,2.5 -1.38,0 -2.5,-1.12 -2.5,-2.5 0,-1.38 1.12,-2.5 2.5,-2.5 z"
       style="fill:#0084c8;stroke:none;stroke-width:1.00539994;stroke-linecap:square"
       inkscape:connector-curvature="0" />
  </g>
</svg>
