<?xml version="1.0" encoding="UTF-8"?>
<!-- Created with Inkscape (http://www.inkscape.org/) -->
<svg width="4.233mm" height="4.233mm" version="1.1" viewBox="0 0 4.233 4.233" xml:space="preserve" xmlns="http://www.w3.org/2000/svg"><g transform="translate(-123.6 -279.81)"><g transform="matrix(.26458 0 0 .26458 108.89 192.44)"><g transform="matrix(3.7795 0 0 3.7795 -629.71 114.01)"><rect x="181.31" y="57.209" width="4.233" height="4.233" fill="none" style="paint-order:stroke markers fill"/><g transform="matrix(1.1034 0 0 1.1034 43.535 -2.7998)" fill-rule="evenodd"><g shape-rendering="auto"><path transform="matrix(.23978 0 0 .23978 67.917 11.326)" d="m245.45 181.75c-3.7553 0-6.1224 2.1094-6.8027 4.2188 0.55449 1.7192 2.2451 3.4189 4.8789 3.9961 0.14793-0.79905 0.75769-1.4766 1.707-1.6719v-1.209c0-1.7382 1.3364-3.293 3.1289-3.293h0.34765c1.7262 0 3.0952 1.5289 3.1899 3.1896 0.1731-0.30472 0.25257-0.70034 0.35304-1.0119-0.68033-2.1094-3.0474-4.2188-6.8027-4.2188z" color="#000000" color-rendering="auto" dominant-baseline="auto" fill="#fff" image-rendering="auto" solid-color="#000000" stop-color="#000000" style="font-feature-settings:normal;font-variant-alternates:normal;font-variant-caps:normal;font-variant-east-asian:normal;font-variant-ligatures:normal;font-variant-numeric:normal;font-variant-position:normal;font-variation-settings:normal;inline-size:0;isolation:auto;mix-blend-mode:normal;shape-margin:0;shape-padding:0;text-decoration-color:#000000;text-decoration-line:none;text-decoration-style:solid;text-indent:0;text-orientation:mixed;text-transform:none;white-space:normal"/><path transform="matrix(.23978 0 0 .23978 67.917 11.326)" d="m245.45 181.06c-4.0143 0-6.678 2.2739-7.4609 4.7012-0.0444 0.1378-0.0444 0.28603 0 0.42383 0.64694 2.0058 3.1782 4.0331 6.0947 4.6326l4e-3 -0.33561c4e-3 -0.36893 0.0984-0.72215 0.27884-1.0329-2.325-0.48739-4.354-2.0669-4.9032-3.4769 0.67241-1.7261 2.635-3.5273 5.9863-3.5273 2.199 0 3.7857 0.77997 4.8144 1.8008 0.87801 0.87968 1.582 1.6631 1.582 2.8418v1.0039c0.48419-0.59707 0.85047-1.2428 1.0644-1.9062 0.0443-0.1378 0.0443-0.28603 0-0.42383-0.78289-2.4273-3.4466-4.7012-7.4609-4.7012z" color="#000000" color-rendering="auto" dominant-baseline="auto" fill="#555753" image-rendering="auto" solid-color="#000000" stop-color="#000000" style="font-feature-settings:normal;font-variant-alternates:normal;font-variant-caps:normal;font-variant-east-asian:normal;font-variant-ligatures:normal;font-variant-numeric:normal;font-variant-position:normal;font-variation-settings:normal;inline-size:0;isolation:auto;mix-blend-mode:normal;shape-margin:0;shape-padding:0;text-decoration-color:#000000;text-decoration-line:none;text-decoration-style:solid;text-indent:0;text-orientation:mixed;text-transform:none;white-space:normal"/></g><path transform="matrix(.23978 0 0 .23978 67.917 11.326)" d="m245.45 183.73a2.0675 2.0675 0 0 0-2.0684 2.0664 2.0675 2.0675 0 0 0 1.8516 2.0566v-0.77344c0-1.1773 0.62169-2.2565 1.5742-2.8398a2.0675 2.0675 0 0 0-1.3574-0.50976z" fill="#3a73aa"/><path transform="matrix(.23978 0 0 .23978 67.917 11.326)" d="m245.45 184.97a0.82701 0.82701 0 0 0-0.82813 0.82617 0.82701 0.82701 0 0 0 0.65625 0.81055c0.0784-0.5554 0.29189-1.0713 0.60938-1.5117a0.82701 0.82701 0 0 0-0.4375-0.125z"/></g><g transform="translate(126.05 10.94)"><g transform="matrix(.74751 0 0 .74751 -7.2186 .23371)"><g><path d="m87.441 63.346c-0.47964 0-0.84208 0.41979-0.84208 0.90094v0.64658c0 0.48114 0.36243 0.90093 0.84208 0.90093h0.12326c0.47964 0 0.84337-0.41979 0.84337-0.90093v-0.64658c0-0.48115-0.36373-0.90094-0.84337-0.90094zm0 0.45427h0.12326c0.19689 0 0.37756 0.18036 0.37756 0.44667v0.64658c0 0.26631-0.18067 0.44793-0.37756 0.44793h-0.12326c-0.1969 0-0.37758-0.18162-0.37758-0.44793v-0.64658c0-0.26631 0.18068-0.44667 0.37758-0.44667z" color="#000000" color-rendering="auto" dominant-baseline="auto" fill="#494949" image-rendering="auto" shape-rendering="auto" solid-color="#000000" stop-color="#000000" stroke="#ccc" stroke-linecap="round" stroke-linejoin="round" stroke-width=".13121" style="font-feature-settings:normal;font-variant-alternates:normal;font-variant-caps:normal;font-variant-east-asian:normal;font-variant-ligatures:normal;font-variant-numeric:normal;font-variant-position:normal;font-variation-settings:normal;inline-size:0;isolation:auto;mix-blend-mode:normal;paint-order:fill markers stroke;shape-margin:0;shape-padding:0;text-decoration-color:#000000;text-decoration-line:none;text-decoration-style:solid;text-indent:0;text-orientation:mixed;text-transform:none;white-space:normal"/><path d="m88.697 64.572-0.36369 0.44582-1.2002 0.09382c0.49775-0.1991 1.3723-1.0558 1.4583-1.3061 0.08604-0.25028 0.16425 0.67655 0.16425 0.67655z" fill="#555753"/><circle cx="86.425" cy="63.851" r="1.2776" fill="#204a87"/><circle transform="matrix(.35395 0 0 .35395 63.924 -55.303)" cx="63.642" cy="336.47" r="2.1484" fill="#3a73aa"/><circle transform="matrix(.35395 0 0 .35395 63.924 -55.303)" cx="63.572" cy="336.47" r=".85938"/></g><g fill="#ccc" shape-rendering="auto"><path d="m87.441 63.279c-0.51792 0-0.9082 0.4527-0.9082 0.9668v0.64648c0 0.51408 0.39028 0.9668 0.9082 0.9668h0.12305c0.51791 0 0.91016-0.45259 0.91016-0.9668v-0.64648c0-0.51421-0.39224-0.9668-0.91016-0.9668zm0 0.13281h0.12305c0.44136 0 0.77734 0.3859 0.77734 0.83398v0.64648c0 0.44808-0.33599 0.83594-0.77734 0.83594h-0.12305c-0.44137 0-0.77734-0.38774-0.77734-0.83594v-0.64648c0-0.4482 0.33598-0.83398 0.77734-0.83398zm0 0.32227c-0.23696 0-0.44336 0.21574-0.44336 0.51172v0.64648c0 0.29598 0.20612 0.51367 0.44336 0.51367h0.12305c0.23724 0 0.44336-0.21769 0.44336-0.51367v-0.64648c0-0.29598-0.2064-0.51172-0.44336-0.51172zm0 0.13086h0.12305c0.15683 0 0.3125 0.14422 0.3125 0.38086v0.64648c0 0.23663-0.15595 0.38281-0.3125 0.38281h-0.12305c-0.15656 0-0.3125-0.14618-0.3125-0.38281v-0.64648c0-0.23663 0.15566-0.38086 0.3125-0.38086z" color="#000000" color-rendering="auto" dominant-baseline="auto" image-rendering="auto" solid-color="#000000" stop-color="#000000" style="font-feature-settings:normal;font-variant-alternates:normal;font-variant-caps:normal;font-variant-east-asian:normal;font-variant-ligatures:normal;font-variant-numeric:normal;font-variant-position:normal;font-variation-settings:normal;inline-size:0;isolation:auto;mix-blend-mode:normal;paint-order:fill markers stroke;shape-margin:0;shape-padding:0;text-decoration-color:#000000;text-decoration-line:none;text-decoration-style:solid;text-indent:0;text-orientation:mixed;text-transform:none;white-space:normal"/><path d="m87.441 63.346c-0.47964 0-0.84208 0.41979-0.84208 0.90094v0.64658c0 0.48114 0.36243 0.90093 0.84208 0.90093h0.12326c0.47964 0 0.84337-0.41979 0.84337-0.90093v-0.64658c0-0.48115-0.36373-0.90094-0.84337-0.90094zm0 0.45427h0.12326c0.19689 0 0.37756 0.18036 0.37756 0.44667v0.64658c0 0.26631-0.18067 0.44793-0.37756 0.44793h-0.12326c-0.1969 0-0.37758-0.18162-0.37758-0.44793v-0.64658c0-0.26631 0.18068-0.44667 0.37758-0.44667z" color="#000000" color-rendering="auto" dominant-baseline="auto" image-rendering="auto" solid-color="#000000" stop-color="#000000" style="font-feature-settings:normal;font-variant-alternates:normal;font-variant-caps:normal;font-variant-east-asian:normal;font-variant-ligatures:normal;font-variant-numeric:normal;font-variant-position:normal;font-variation-settings:normal;inline-size:0;isolation:auto;mix-blend-mode:normal;paint-order:fill markers stroke;shape-margin:0;shape-padding:0;text-decoration-color:#000000;text-decoration-line:none;text-decoration-style:solid;text-indent:0;text-orientation:mixed;text-transform:none;white-space:normal"/></g><path d="m86.828 63.87c0.0033-0.01617 0.19963-0.25064 0.19963-0.25064" fill="none" stroke="#ccc" stroke-linecap="round" stroke-width=".20499"/></g><g><path d="m57.403 48.723c-0.22063 0-0.39836 0.17773-0.39836 0.39836v0.98612h2.3733v-0.98612c0-0.22063-0.17729-0.39836-0.39791-0.39836z" fill="#dbb458" style="paint-order:stroke markers fill"/><path d="m58.92 48.723v1.3844h0.45813v-0.98619c0-0.22063-0.17725-0.39826-0.39788-0.39826z" fill="#c48319" style="paint-order:stroke markers fill"/><path d="m57.403 48.723c-0.22063 0-0.39865 0.17763-0.39865 0.39826v0.98619h0.45852v-1.3844z" fill="#e6ca74" style="paint-order:stroke markers fill"/></g></g></g></g></g></svg>
