<?xml version="1.0" encoding="UTF-8"?>
<!-- Created with Inkscape (http://www.inkscape.org/) -->
<svg width="4.233mm" height="4.233mm" version="1.1" viewBox="0 0 4.233 4.233" xml:space="preserve" xmlns="http://www.w3.org/2000/svg"><g transform="translate(-127.52 -268.66)"><g transform="matrix(.26458 0 0 .26458 108.89 192.44)"><g id="" transform="matrix(.7377 0 0 .77577 -155.31 51.771)" enable-background="new"><g transform="matrix(7.0752 0 0 6.728 2275.6 1002.1)"><g transform="matrix(.72403 0 0 .72414 -307.34 -143.14)"><g transform="matrix(1.0001 0 0 .99999 -4.1269 -4.1785)"><g transform="matrix(.91512 0 0 .91512 -.78125 11.982)"><g transform="matrix(1.0927 0 0 1.0927 8.8131 -8.4966)"><path d="m36.822 54.493v4.233h4.233v-4.233z" fill="none" style="paint-order:fill markers stroke"/><g transform="matrix(.84731 0 0 .84731 -24.851 -10.132)"><g transform="translate(-12.798 13.206)"><g fill="#ccc" shape-rendering="auto"><path transform="matrix(.26458 0 0 .26458 12.798 -13.206)" d="m282.12 289.33c-1.8128 0-3.1836 1.5877-3.1836 3.4062v2.4434c0 1.8185 1.3708 3.4043 3.1836 3.4043h0.1875v-1.5957c0-0.0391 0.0107-0.0763 0.0117-0.11523h-0.19922c-0.74419 0-1.4277-0.68685-1.4277-1.6934v-2.4434c0-1.0065 0.68355-1.6895 1.4277-1.6894h0.46484c0.74416 0 1.4277 0.68294 1.4277 1.6894v0.71875c0.50342-0.39592 1.0952-0.6736 1.752-0.79492-0.0384-1.7859-1.3927-3.3301-3.1797-3.3301zm3.6523 4.8828c-1.1439 0.34563-1.9512 1.4758-1.9512 2.7754v1.3301c0.27113-0.12203 0.51343-0.29215 0.73828-0.48438v-0.8457c0-0.92967 0.5075-1.7085 1.2129-2.0312z" color="#000000" color-rendering="auto" dominant-baseline="auto" enable-background="accumulate" image-rendering="auto" solid-color="#000000" stop-color="#000000" style="font-feature-settings:normal;font-variant-alternates:normal;font-variant-caps:normal;font-variant-east-asian:normal;font-variant-ligatures:normal;font-variant-numeric:normal;font-variant-position:normal;font-variation-settings:normal;inline-size:0;isolation:auto;mix-blend-mode:normal;paint-order:fill markers stroke;shape-margin:0;shape-padding:0;text-decoration-color:#000000;text-decoration-line:none;text-decoration-style:solid;text-indent:0;text-orientation:mixed;text-transform:none;white-space:normal"/><path transform="matrix(.26458 0 0 .26458 12.798 -13.206)" d="m282.12 289.08c-1.9575 0-3.4336 1.7093-3.4336 3.6523v2.4434c0 1.8075 1.2832 3.3961 3.0371 3.6113 0.18325-0.0753 0.37569-0.1388 0.58399-0.18164v-0.26953h-0.1875c-1.6682 0-2.9395-1.4662-2.9395-3.1602v-2.4434c0-1.694 1.2713-3.1504 2.9395-3.1504h0.46484c1.6609 0 2.9246 1.4447 2.9356 3.1289 0.15977-0.0401 0.32663-0.0579 0.49414-0.0781-0.0505-1.9012-1.5063-3.5527-3.4297-3.5527zm0 1.7188c-0.89561 0-1.6758 0.81493-1.6758 1.9336v2.4434c0 1.1187 0.77911 1.9414 1.6758 1.9414h0.1875v-0.12891c0-0.12382 0.0252-0.24307 0.0351-0.36523h-0.22265c-0.59172 0-1.1816-0.55291-1.1816-1.4473v-2.4434c0-0.89436 0.58887-1.4394 1.1816-1.4394h0.46484c0.59273 0 1.1816 0.54508 1.1816 1.4394v0.94336c0.15642-0.14414 0.31758-0.27951 0.49414-0.39844v-0.54492c0-1.1187-0.7802-1.9336-1.6758-1.9336zm3.9043 3.3457c-0.17471 0.0332-0.34199 0.0869-0.50195 0.1543v0.80469c0.15575-0.1034 0.32315-0.18332 0.50195-0.23438zm-1.7871 1.3027c-0.16885 0.29073-0.29395 0.61286-0.35938 0.95703 0.18826-0.26498 0.31609-0.58965 0.35938-0.95703zm0.32226 2.0508c-0.21831 0.21603-0.46423 0.39956-0.73828 0.53711v0.54101c0.26327-0.10847 0.51283-0.24251 0.73828-0.41211z" color="#000000" color-rendering="auto" dominant-baseline="auto" enable-background="accumulate" image-rendering="auto" solid-color="#000000" stop-color="#000000" style="font-feature-settings:normal;font-variant-alternates:normal;font-variant-caps:normal;font-variant-east-asian:normal;font-variant-ligatures:normal;font-variant-numeric:normal;font-variant-position:normal;font-variation-settings:normal;inline-size:0;isolation:auto;mix-blend-mode:normal;paint-order:fill markers stroke;shape-margin:0;shape-padding:0;text-decoration-color:#000000;text-decoration-line:none;text-decoration-style:solid;text-indent:0;text-orientation:mixed;text-transform:none;white-space:normal"/></g><path d="m86.828 63.87c0.0033-0.01617 0.19963-0.25064 0.19963-0.25064" fill="none" stroke="#ccc" stroke-linecap="round" stroke-width=".20499"/></g><g><path transform="scale(.26458)" d="m284.49 295.08c-0.41654 0.51528-0.67187 1.1817-0.67187 1.9043v2.3555c-2e-3 0.41805-0.34173 0.75436-0.75977 0.75195h-0.31836c-0.70979 0-1.2539 0.54606-1.2539 1.2559v0.73242h6.8652v-2.0293c-0.0694 0.0205-0.13873 0.0414-0.21484 0.041h-2.8262c-0.41514-2e-3 -0.75225-0.3368-0.75391-0.75195v-2.3555c0-0.8286 0.40738-1.5311 0.99414-1.9043z" fill="#dbb458" style="paint-order:stroke markers fill"/><path transform="scale(.26458)" d="m278.37 295.08c-1.1155 0-2.0156 0.89814-2.0156 2.0137v4.9863h4.5063v-0.73242c0-1.2819 0.8636-1.5958 2.332-1.8978v-2.4655c0-0.67255 0.16497-1.317 0.43554-1.9043z" fill="#dbb458" style="paint-order:stroke markers fill"/><path d="m73.651 78.074c-0.29515 0-0.5333 0.23763-0.5333 0.53278v1.3193h0.6134v-1.8521z" fill="#e6ca74" style="paint-order:stroke markers fill"/></g><g transform="translate(-11.64 14.333)"><path d="m87.441 63.346c-0.47964 0-0.84208 0.41979-0.84208 0.90094v0.64658c0 0.48114 0.36243 0.90093 0.84208 0.90093h0.12326c0.47964 0 0.84337-0.41979 0.84337-0.90093v-0.64658c0-0.48115-0.36373-0.90094-0.84337-0.90094zm0 0.45427h0.12326c0.19689 0 0.37756 0.18036 0.37756 0.44667v0.64658c0 0.26631-0.18067 0.44793-0.37756 0.44793h-0.12326c-0.1969 0-0.37758-0.18162-0.37758-0.44793v-0.64658c0-0.26631 0.18068-0.44667 0.37758-0.44667z" color="#000000" color-rendering="auto" dominant-baseline="auto" enable-background="accumulate" fill="#494949" image-rendering="auto" shape-rendering="auto" solid-color="#000000" stop-color="#000000" stroke="#ccc" stroke-linecap="round" stroke-linejoin="round" stroke-width=".13121" style="font-feature-settings:normal;font-variant-alternates:normal;font-variant-caps:normal;font-variant-east-asian:normal;font-variant-ligatures:normal;font-variant-numeric:normal;font-variant-position:normal;font-variation-settings:normal;inline-size:0;isolation:auto;mix-blend-mode:normal;paint-order:fill markers stroke;shape-margin:0;shape-padding:0;text-decoration-color:#000000;text-decoration-line:none;text-decoration-style:solid;text-indent:0;text-orientation:mixed;text-transform:none;white-space:normal"/><g fill="#ccc" shape-rendering="auto"><path d="m87.441 63.346c-0.47964 0-0.84208 0.41979-0.84208 0.90094v0.64658c0 0.48114 0.36243 0.90093 0.84208 0.90093h0.12326c0.47964 0 0.84337-0.41979 0.84337-0.90093v-0.64658c0-0.48115-0.36373-0.90094-0.84337-0.90094zm0 0.45427h0.12326c0.19689 0 0.37756 0.18036 0.37756 0.44667v0.64658c0 0.26631-0.18067 0.44793-0.37756 0.44793h-0.12326c-0.1969 0-0.37758-0.18162-0.37758-0.44793v-0.64658c0-0.26631 0.18068-0.44667 0.37758-0.44667z" color="#000000" color-rendering="auto" dominant-baseline="auto" enable-background="accumulate" image-rendering="auto" solid-color="#000000" stop-color="#000000" style="font-feature-settings:normal;font-variant-alternates:normal;font-variant-caps:normal;font-variant-east-asian:normal;font-variant-ligatures:normal;font-variant-numeric:normal;font-variant-position:normal;font-variation-settings:normal;inline-size:0;isolation:auto;mix-blend-mode:normal;paint-order:fill markers stroke;shape-margin:0;shape-padding:0;text-decoration-color:#000000;text-decoration-line:none;text-decoration-style:solid;text-indent:0;text-orientation:mixed;text-transform:none;white-space:normal"/><path d="m87.441 63.279c-0.51792 0-0.9082 0.4527-0.9082 0.9668v0.64648c0 0.51408 0.39028 0.9668 0.9082 0.9668h0.12305c0.51791 0 0.91016-0.45259 0.91016-0.9668v-0.64648c0-0.51421-0.39224-0.9668-0.91016-0.9668zm0 0.13281h0.12305c0.44136 0 0.77734 0.3859 0.77734 0.83398v0.64648c0 0.44808-0.33599 0.83594-0.77734 0.83594h-0.12305c-0.44137 0-0.77734-0.38774-0.77734-0.83594v-0.64648c0-0.4482 0.33598-0.83398 0.77734-0.83398zm0 0.32227c-0.23696 0-0.44336 0.21574-0.44336 0.51172v0.64648c0 0.29598 0.20612 0.51367 0.44336 0.51367h0.12305c0.23724 0 0.44336-0.21769 0.44336-0.51367v-0.64648c0-0.29598-0.2064-0.51172-0.44336-0.51172zm0 0.13086h0.12305c0.15683 0 0.3125 0.14422 0.3125 0.38086v0.64648c0 0.23663-0.15595 0.38281-0.3125 0.38281h-0.12305c-0.15656 0-0.3125-0.14618-0.3125-0.38281v-0.64648c0-0.23663 0.15566-0.38086 0.3125-0.38086z" color="#000000" color-rendering="auto" dominant-baseline="auto" enable-background="accumulate" image-rendering="auto" solid-color="#000000" stop-color="#000000" style="font-feature-settings:normal;font-variant-alternates:normal;font-variant-caps:normal;font-variant-east-asian:normal;font-variant-ligatures:normal;font-variant-numeric:normal;font-variant-position:normal;font-variation-settings:normal;inline-size:0;isolation:auto;mix-blend-mode:normal;paint-order:fill markers stroke;shape-margin:0;shape-padding:0;text-decoration-color:#000000;text-decoration-line:none;text-decoration-style:solid;text-indent:0;text-orientation:mixed;text-transform:none;white-space:normal"/></g><path d="m86.828 63.87c0.0033-0.01617 0.19963-0.25064 0.19963-0.25064" fill="none" stroke="#ccc" stroke-linecap="round" stroke-width=".20499"/></g><g><path d="m74.809 79.2c-0.29515 0-0.53291 0.23776-0.53291 0.53291v1.3192h3.175v-1.3192c0-0.29515-0.23717-0.53291-0.53232-0.53291z" fill="#dbb458" style="paint-order:stroke markers fill"/><path d="m76.838 79.201v1.8521h0.61288v-1.3193c0-0.29515-0.23712-0.53278-0.53227-0.53278z" fill="#c48319" style="paint-order:stroke markers fill"/><path d="m74.809 79.2c-0.29515 0-0.5333 0.23763-0.5333 0.53278v1.3193h0.6134v-1.8521z" fill="#e6ca74" style="paint-order:stroke markers fill"/></g></g></g><path d="m51.172 52.353-4e-3 0.37168 0.56205-0.33635-7e-3 -0.27678-0.28356-0.01299z" fill="#ccc"/></g></g></g></g></g></g></g></svg>
