<?xml version="1.0" encoding="UTF-8"?>
<!-- Created with Inkscape (http://www.inkscape.org/) -->
<svg width="4.2329mm" height="4.233mm" version="1.1" viewBox="0 0 4.2329 4.233" xml:space="preserve" xmlns="http://www.w3.org/2000/svg"><g transform="translate(-126.47 -262.31)"><g transform="matrix(.26458 0 0 .26458 108.89 192.44)"><g id="" transform="matrix(.7377 0 0 .77577 -155.31 51.771)" enable-background="new"><g transform="matrix(7.0752 0 0 6.728 2275.6 1002.1)"><g transform="matrix(.72403 0 0 .72414 -307.34 -143.14)"><g fill="#bebebe"><path d="m39.984 51.346v1.0583h0.67733v-0.14366c-7.4e-5 -0.0019-0.0011-0.0033-0.0011-0.0052v-0.90946z" stroke-width=".26955"/><path transform="scale(.26458)" d="m147.12 182.06v3.998h4v-3.998z" stroke-width=".99994"/><path transform="scale(.26458)" d="m151.12 186.06v4l3.9922 4e-3 8e-3 -4.004z" stroke-width=".99994"/><path d="m42.093 51.342v1.0583l1.0563 0.0011 0.0021-1.0594z" enable-background="new" stroke-width=".26457"/><rect x="41.043" y="48.171" width="1.0583" height="1.0582" stroke-width=".26457"/><path transform="scale(.26458)" d="m159.12 186.06 6e-3 1.9033c0.8561 0.36187 1.4468 1.0188 1.6593 2.0931l2.335 4e-3v-4z" stroke-width=".99994"/><rect x="38.926" y="50.287" width="1.0583" height="1.0582" stroke-width=".26457"/></g><g transform="matrix(.74728 0 0 .74728 3.0932 -.43019)"><path d="m51.237 67.524c-0.11021 0.13634-0.17776 0.31266-0.17776 0.50385v0.62322c-5.29e-4 0.11061-0.09042 0.19959-0.20102 0.19895h-0.08423c-0.1878 0-0.33176 0.14448-0.33176 0.33228v0.19379h1.8164v-0.53692c-0.01836 0.0054-0.03671 0.01095-0.05684 0.01085h-0.74776c-0.10984-5.29e-4 -0.19903-0.08911-0.19947-0.19895v-0.62322c0-0.21923 0.10779-0.4051 0.26303-0.50385z" fill="#dbb458" style="paint-order:stroke markers fill"/><g transform="translate(-35.675 3.7825)"><path d="m87.441 63.346c-0.47964 0-0.84208 0.41979-0.84208 0.90094v0.64658c0 0.48114 0.36243 0.90093 0.84208 0.90093h0.12326c0.47964 0 0.84337-0.41979 0.84337-0.90093v-0.64658c0-0.48115-0.36373-0.90094-0.84337-0.90094zm0 0.45427h0.12326c0.19689 0 0.37756 0.18036 0.37756 0.44667v0.64658c0 0.26631-0.18067 0.44793-0.37756 0.44793h-0.12326c-0.1969 0-0.37758-0.18162-0.37758-0.44793v-0.64658c0-0.26631 0.18068-0.44667 0.37758-0.44667z" color="#000000" color-rendering="auto" dominant-baseline="auto" enable-background="accumulate" fill="#494949" image-rendering="auto" shape-rendering="auto" solid-color="#000000" stop-color="#000000" stroke="#ccc" stroke-linecap="round" stroke-linejoin="round" stroke-width=".13121" style="font-feature-settings:normal;font-variant-alternates:normal;font-variant-caps:normal;font-variant-east-asian:normal;font-variant-ligatures:normal;font-variant-numeric:normal;font-variant-position:normal;font-variation-settings:normal;inline-size:0;isolation:auto;mix-blend-mode:normal;paint-order:fill markers stroke;shape-margin:0;shape-padding:0;text-decoration-color:#000000;text-decoration-line:none;text-decoration-style:solid;text-indent:0;text-orientation:mixed;text-transform:none;white-space:normal"/><g fill="#ccc" shape-rendering="auto"><path d="m87.441 63.346c-0.47964 0-0.84208 0.41979-0.84208 0.90094v0.64658c0 0.48114 0.36243 0.90093 0.84208 0.90093h0.12326c0.47964 0 0.84337-0.41979 0.84337-0.90093v-0.64658c0-0.48115-0.36373-0.90094-0.84337-0.90094zm0 0.45427h0.12326c0.19689 0 0.37756 0.18036 0.37756 0.44667v0.64658c0 0.26631-0.18067 0.44793-0.37756 0.44793h-0.12326c-0.1969 0-0.37758-0.18162-0.37758-0.44793v-0.64658c0-0.26631 0.18068-0.44667 0.37758-0.44667z" color="#000000" color-rendering="auto" dominant-baseline="auto" enable-background="accumulate" image-rendering="auto" solid-color="#000000" stop-color="#000000" style="font-feature-settings:normal;font-variant-alternates:normal;font-variant-caps:normal;font-variant-east-asian:normal;font-variant-ligatures:normal;font-variant-numeric:normal;font-variant-position:normal;font-variation-settings:normal;inline-size:0;isolation:auto;mix-blend-mode:normal;paint-order:fill markers stroke;shape-margin:0;shape-padding:0;text-decoration-color:#000000;text-decoration-line:none;text-decoration-style:solid;text-indent:0;text-orientation:mixed;text-transform:none;white-space:normal"/><path d="m87.441 63.279c-0.51792 0-0.9082 0.4527-0.9082 0.9668v0.64648c0 0.51408 0.39028 0.9668 0.9082 0.9668h0.12305c0.51791 0 0.91016-0.45259 0.91016-0.9668v-0.64648c0-0.51421-0.39224-0.9668-0.91016-0.9668zm0 0.13281h0.12305c0.44136 0 0.77734 0.3859 0.77734 0.83398v0.64648c0 0.44808-0.33599 0.83594-0.77734 0.83594h-0.12305c-0.44137 0-0.77734-0.38774-0.77734-0.83594v-0.64648c0-0.4482 0.33598-0.83398 0.77734-0.83398zm0 0.32227c-0.23696 0-0.44336 0.21574-0.44336 0.51172v0.64648c0 0.29598 0.20612 0.51367 0.44336 0.51367h0.12305c0.23724 0 0.44336-0.21769 0.44336-0.51367v-0.64648c0-0.29598-0.2064-0.51172-0.44336-0.51172zm0 0.13086h0.12305c0.15683 0 0.3125 0.14422 0.3125 0.38086v0.64648c0 0.23663-0.15595 0.38281-0.3125 0.38281h-0.12305c-0.15656 0-0.3125-0.14618-0.3125-0.38281v-0.64648c0-0.23663 0.15566-0.38086 0.3125-0.38086z" color="#000000" color-rendering="auto" dominant-baseline="auto" enable-background="accumulate" image-rendering="auto" solid-color="#000000" stop-color="#000000" style="font-feature-settings:normal;font-variant-alternates:normal;font-variant-caps:normal;font-variant-east-asian:normal;font-variant-ligatures:normal;font-variant-numeric:normal;font-variant-position:normal;font-variation-settings:normal;inline-size:0;isolation:auto;mix-blend-mode:normal;paint-order:fill markers stroke;shape-margin:0;shape-padding:0;text-decoration-color:#000000;text-decoration-line:none;text-decoration-style:solid;text-indent:0;text-orientation:mixed;text-transform:none;white-space:normal"/></g><path d="m86.828 63.87c0.0033-0.01617 0.19963-0.25064 0.19963-0.25064" fill="none" stroke="#ccc" stroke-linecap="round" stroke-width=".20499"/></g><g><path d="m50.774 68.65c-0.29515 0-0.53291 0.23776-0.53291 0.53291l6e-3 1.5114h3.175l-6e-3 -1.5114c-0.0012-0.29515-0.23717-0.53291-0.53232-0.53291z" fill="#dbb458" style="paint-order:stroke markers fill"/><path d="m52.803 68.65v2.0443l0.66821 0.0055v-1.5115c0-0.29515-0.29245-0.53832-0.5876-0.53832z" fill="#c48319" style="paint-order:stroke markers fill"/><path d="m50.774 68.65c-0.29515 0-0.5333 0.23763-0.5333 0.53278l6e-3 1.5115h0.6134l-6e-3 -2.0443z" fill="#e6ca74" style="paint-order:stroke markers fill"/></g></g></g></g></g></g></g></svg>
