<?xml version="1.0" encoding="UTF-8"?>
<!-- Created with Inkscape (http://www.inkscape.org/) -->
<svg width="4.233mm" height="4.233mm" version="1.1" viewBox="0 0 4.233 4.233" xml:space="preserve" xmlns="http://www.w3.org/2000/svg"><g transform="translate(-125.71 -272.67)"><g transform="matrix(.26458 0 0 .26458 108.89 192.44)"><g id="" transform="matrix(.7377 0 0 .77577 -155.31 51.771)" enable-background="new"><g transform="matrix(7.0752 0 0 6.728 2275.6 1002.1)"><g transform="matrix(.72403 0 0 .72414 -307.34 -143.14)"><g transform="matrix(1.0001 0 0 .99999 -4.1269 -4.1785)"><g transform="matrix(.91512 0 0 .91512 -.78125 11.982)"><path d="m49.547 57.484h1.3733v0.55114h-1.3733z" fill="#3465a4" stroke-linecap="round" stroke-width=".2109"/><g transform="matrix(1.0927 0 0 1.0927 -13.52 4.0356)"><rect x="55.449" y="47.035" width="4.233" height="4.233" fill="none" style="paint-order:stroke markers fill"/><g transform="matrix(.93652 0 0 .93652 3.8493 2.7484)"><path d="m57.357 47.432-0.9555 0.75086h0.68265v1.0924h-1.0924v-0.68265l-0.75138 0.95601 0.75138 0.91984v-0.64699h1.0924l-0.0062 0.66091c0.03959-0.01725 0.35609 0.06795 0.40181 0.05855l0.0062-0.62577c0.0031-0.31272 0.14441-0.62234 0.14441-0.62234v-1.11h0.68265zm1.3658 1.1607-0.01249 0.89432c0.149 0.16045-0.03158 0.41357 0.04522 0.63111l0.08428 0.23872c0.01966 0.0041 0.03732 0.01098 0.05581 0.01654l0.57804-0.82468zm-2.3213 2.3218 0.50437 0.27701v-0.27389z" color="#000000" fill="#3465a4" fill-rule="evenodd"/><g transform="translate(-.10569 1.5576)"><g transform="matrix(.74751 0 0 .74751 -7.2186 .23371)"><path d="m87.441 63.346c-0.47964 0-0.84208 0.41979-0.84208 0.90094v0.64658c0 0.48114 0.36243 0.90093 0.84208 0.90093h0.12326c0.47964 0 0.84337-0.41979 0.84337-0.90093v-0.64658c0-0.48115-0.36373-0.90094-0.84337-0.90094zm0 0.45427h0.12326c0.19689 0 0.37756 0.18036 0.37756 0.44667v0.64658c0 0.26631-0.18067 0.44793-0.37756 0.44793h-0.12326c-0.1969 0-0.37758-0.18162-0.37758-0.44793v-0.64658c0-0.26631 0.18068-0.44667 0.37758-0.44667z" color="#000000" color-rendering="auto" dominant-baseline="auto" enable-background="accumulate" fill="#494949" image-rendering="auto" shape-rendering="auto" solid-color="#000000" stop-color="#000000" stroke="#ccc" stroke-linecap="round" stroke-linejoin="round" stroke-width=".13121" style="font-feature-settings:normal;font-variant-alternates:normal;font-variant-caps:normal;font-variant-east-asian:normal;font-variant-ligatures:normal;font-variant-numeric:normal;font-variant-position:normal;font-variation-settings:normal;inline-size:0;isolation:auto;mix-blend-mode:normal;paint-order:fill markers stroke;shape-margin:0;shape-padding:0;text-decoration-color:#000000;text-decoration-line:none;text-decoration-style:solid;text-indent:0;text-orientation:mixed;text-transform:none;white-space:normal"/><g fill="#ccc" shape-rendering="auto"><path d="m87.441 63.346c-0.47964 0-0.84208 0.41979-0.84208 0.90094v0.64658c0 0.48114 0.36243 0.90093 0.84208 0.90093h0.12326c0.47964 0 0.84337-0.41979 0.84337-0.90093v-0.64658c0-0.48115-0.36373-0.90094-0.84337-0.90094zm0 0.45427h0.12326c0.19689 0 0.37756 0.18036 0.37756 0.44667v0.64658c0 0.26631-0.18067 0.44793-0.37756 0.44793h-0.12326c-0.1969 0-0.37758-0.18162-0.37758-0.44793v-0.64658c0-0.26631 0.18068-0.44667 0.37758-0.44667z" color="#000000" color-rendering="auto" dominant-baseline="auto" enable-background="accumulate" image-rendering="auto" solid-color="#000000" stop-color="#000000" style="font-feature-settings:normal;font-variant-alternates:normal;font-variant-caps:normal;font-variant-east-asian:normal;font-variant-ligatures:normal;font-variant-numeric:normal;font-variant-position:normal;font-variation-settings:normal;inline-size:0;isolation:auto;mix-blend-mode:normal;paint-order:fill markers stroke;shape-margin:0;shape-padding:0;text-decoration-color:#000000;text-decoration-line:none;text-decoration-style:solid;text-indent:0;text-orientation:mixed;text-transform:none;white-space:normal"/><path d="m87.441 63.279c-0.51792 0-0.9082 0.4527-0.9082 0.9668v0.64648c0 0.51408 0.39028 0.9668 0.9082 0.9668h0.12305c0.51791 0 0.91016-0.45259 0.91016-0.9668v-0.64648c0-0.51421-0.39224-0.9668-0.91016-0.9668zm0 0.13281h0.12305c0.44136 0 0.77734 0.3859 0.77734 0.83398v0.64648c0 0.44808-0.33599 0.83594-0.77734 0.83594h-0.12305c-0.44137 0-0.77734-0.38774-0.77734-0.83594v-0.64648c0-0.4482 0.33598-0.83398 0.77734-0.83398zm0 0.32227c-0.23696 0-0.44336 0.21574-0.44336 0.51172v0.64648c0 0.29598 0.20612 0.51367 0.44336 0.51367h0.12305c0.23724 0 0.44336-0.21769 0.44336-0.51367v-0.64648c0-0.29598-0.2064-0.51172-0.44336-0.51172zm0 0.13086h0.12305c0.15683 0 0.3125 0.14422 0.3125 0.38086v0.64648c0 0.23663-0.15595 0.38281-0.3125 0.38281h-0.12305c-0.15656 0-0.3125-0.14618-0.3125-0.38281v-0.64648c0-0.23663 0.15566-0.38086 0.3125-0.38086z" color="#000000" color-rendering="auto" dominant-baseline="auto" enable-background="accumulate" image-rendering="auto" solid-color="#000000" stop-color="#000000" style="font-feature-settings:normal;font-variant-alternates:normal;font-variant-caps:normal;font-variant-east-asian:normal;font-variant-ligatures:normal;font-variant-numeric:normal;font-variant-position:normal;font-variation-settings:normal;inline-size:0;isolation:auto;mix-blend-mode:normal;paint-order:fill markers stroke;shape-margin:0;shape-padding:0;text-decoration-color:#000000;text-decoration-line:none;text-decoration-style:solid;text-indent:0;text-orientation:mixed;text-transform:none;white-space:normal"/></g><path d="m86.828 63.87c0.0033-0.01617 0.19963-0.25064 0.19963-0.25064" fill="none" stroke="#ccc" stroke-linecap="round" stroke-width=".20499"/></g><g><path d="m57.403 48.723c-0.22063 0-0.39836 0.17773-0.39836 0.39836v0.98612h2.3733v-0.98612c0-0.22063-0.17729-0.39836-0.39791-0.39836z" fill="#dbb458" style="paint-order:stroke markers fill"/><path d="m58.92 48.723v1.3844h0.45813v-0.98619c0-0.22063-0.17725-0.39826-0.39788-0.39826z" fill="#c48319" style="paint-order:stroke markers fill"/><path d="m57.403 48.723c-0.22063 0-0.39865 0.17763-0.39865 0.39826v0.98619h0.45852v-1.3844z" fill="#e6ca74" style="paint-order:stroke markers fill"/></g></g></g></g></g></g></g></g></g></g></g></svg>
