<?xml version="1.0" encoding="UTF-8"?>
<!-- Created with Inkscape (http://www.inkscape.org/) -->
<svg width="6.35mm" height="6.35mm" version="1.1" viewBox="0 0 6.35 6.35" xml:space="preserve" xmlns="http://www.w3.org/2000/svg"><g transform="translate(-126.21 -255.32)"><g transform="matrix(.26458 0 0 .26458 108.89 192.44)"><g id="" transform="matrix(.7377 0 0 .77577 -155.31 51.771)" enable-background="new"><g transform="matrix(0 1.289 -1.3556 0 1725.8 239.64)"><rect transform="rotate(90)" x="1028.4" y="-24" width="24" height="24" fill="none"/><g stroke="#000"><path d="m19.667 1040.3-2.0311-2.8554 0.01556 2.135c-0.41296 0.014-0.8596 0.019-1.273 0.018v-2.208l-2.0476 2.9109 2.0476 2.9075v-2.0888c0.41363 0.014 0.84416-0.035 1.2573-0.038v2.1828z" stroke-linecap="square" stroke-width=".46758"/><path d="m9.6696 1040.3-2.0311-2.8554 0.01556 2.135c-0.41296 0.014-0.8596 0.019-1.273 0.018v-2.208l-2.0476 2.9109 2.0476 2.9075v-2.0888c0.41363 0.014 0.84416-0.035 1.2573-0.038v2.1828z" stroke-linecap="square" stroke-width=".46758"/><rect transform="scale(1,-1)" x="20.5" y="-1049.9" width="2.0001" height="19" stroke-width=".99988"/><rect transform="scale(1,-1)" x="10.502" y="-1049.9" width="2.9952" height="18.995"/><rect transform="scale(1,-1)" x="1.4999" y="-1049.9" width="2.0001" height="19" stroke-width=".99988"/></g></g></g></g></g></svg>
