<?xml version="1.0" encoding="UTF-8"?>
<!-- Created with Inkscape (http://www.inkscape.org/) -->
<svg width="3.6914mm" height="3.1754mm" version="1.1" viewBox="0 0 3.6914 3.1754" xml:space="preserve" xmlns="http://www.w3.org/2000/svg" xmlns:xlink="http://www.w3.org/1999/xlink"><g transform="translate(-140.42 -319.01)"><g transform="matrix(.26458 0 0 .26458 108.89 192.44)"><g transform="matrix(3.7795 0 0 3.7795 -629.71 114.01)"><g transform="translate(126.05 10.94)"><g transform="matrix(.74751 0 0 .74751 -7.2186 .23371)"><g transform="matrix(.35395 0 0 .35395 84.28 -305.23)"><g transform="matrix(3.7795 0 0 3.7795 61.596 75.985)" stroke-width=".13229"><circle cx="2.1167" cy="294.88" r=".52917" fill="#204a87" stroke="#204a87"/><path transform="matrix(.26458 0 0 .26458 0 292.77)" d="m8.002 2.248v1.5059c1.7211 0 3.2691 1.0291 3.9277 2.6191 0.65864 1.5901 0.29318 3.4119-0.92383 4.6289-1.217 1.217-3.0447 1.5824-4.6348 0.92383-1.5895-0.65841-2.6203-2.2054-2.6211-3.9258h1.75l-2.5-3.9492-2.5 3.9492h1.752c7.93e-4 2.3227 1.4048 4.4236 3.5508 5.3125 2.1466 0.88917 4.6246 0.3969 6.2676-1.2461 1.643-1.643 2.1274-4.1209 1.2383-6.2676-0.88917-2.1466-2.9831-3.5508-5.3066-3.5508z" color="#000000" color-rendering="auto" dominant-baseline="auto" fill="#204a87" image-rendering="auto" shape-rendering="auto" solid-color="#000000" stroke="#204a87" stroke-width=".5" style="font-feature-settings:normal;font-variant-alternates:normal;font-variant-caps:normal;font-variant-ligatures:normal;font-variant-numeric:normal;font-variant-position:normal;isolation:auto;mix-blend-mode:normal;shape-padding:0;text-decoration-color:#000000;text-decoration-line:none;text-decoration-style:solid;text-indent:0;text-orientation:mixed;text-transform:none;white-space:normal"/></g></g></g></g></g></g></g></svg>
