<?xml version="1.0" encoding="UTF-8"?>
<!-- Created with Inkscape (http://www.inkscape.org/) -->
<svg width="6.3505mm" height="6.35mm" version="1.1" viewBox="0 0 6.3505 6.35" xml:space="preserve" xmlns="http://www.w3.org/2000/svg" xmlns:xlink="http://www.w3.org/1999/xlink"><defs><linearGradient id="linearGradient6963-4"><stop stop-color="#696969" offset="0"/><stop offset="1"/></linearGradient><radialGradient id="radialGradient5327-8-4-1" cx="15.415" cy="35.357" r="7.5792" gradientTransform="matrix(.11517 0 0 .10944 164.57 168.31)" gradientUnits="userSpaceOnUse" xlink:href="#linearGradient6963-4"/></defs><g transform="translate(-140.81 -308.41)"><g transform="matrix(.26458 0 0 .26458 108.89 192.44)"><g transform="matrix(3.7795 0 0 3.7795 -629.71 114.01)"><g transform="translate(126.05 10.94)"><g transform="matrix(.74751 0 0 .74751 -7.2186 .23371)"><g transform="matrix(.35395 0 0 .35395 84.28 -305.23)"><circle cx="73.15" cy="1158.4" r="6.5312" fill="#de8b80"/><g transform="matrix(3.7795 0 0 3.7795 -550.33 507.77)"><path transform="matrix(.26458 0 0 .26458 162.31 168.45)" d="m9.9609 7.7148a6.3472 6.3472 0 0 0-6.3672 6.3145 6.3472 6.3472 0 0 0 6.3125 6.3789 6.3472 6.3472 0 0 0 2.8945-0.68164c-1.2907 0.02675-2.7626 0.02229-4.6172 0.0098-0.93717-0.0021-1.3008-1.2198-0.51758-1.7344 0 0 2.7383-1.8495 4.0156-4.2305 0.87327-1.6279 2.456-2.3751 3.9844-2.4453a6.3472 6.3472 0 0 0-5.6934-3.6113 6.3472 6.3472 0 0 0-0.011719 0z" fill="#de8b80"/><path transform="matrix(.26458 0 0 .26458 162.31 168.45)" d="m10.574 4.123-0.70508 0.015625-0.41406 0.015625-0.029297 0.00195h-0.060547l-0.70312 0.052734 0.10547 1.4141 0.70508-0.054687 0.044922-0.00391 0.39453-0.011719 0.70508-0.015625zm2.1348 0.375-0.50391 1.3223 0.66211 0.25391 0.29687 0.11328 0.11133 0.048828 0.65234 0.2793 0.56445-1.291-0.64648-0.28906-0.12891-0.050781-0.03516-0.013672-0.3125-0.11719zm-6.1348 0.19922-0.64648 0.29883-0.33984 0.15625-0.033203 0.015625-0.082031 0.037109-0.62305 0.33008 0.6543 1.2559 0.625-0.33008 0.066406-0.029297 0.32617-0.1543 0.64062-0.29688zm9.6934 1.6914-0.96484 1.043 0.51953 0.47656 0.0625 0.060547 0.24609 0.24805 0.33594 0.33984 0.60938-1.3926-0.19336-0.19531-0.02344-0.025391-0.08008-0.070312zm-13.123 0.42773-0.48438 0.51562-0.14258 0.15234-0.015625 0.027344-0.17578 0.20703-0.45508 0.53711 1.082 0.9082 0.45508-0.53711 0.16406-0.19531 0.125-0.13086 0.48242-0.52344zm-2.3477 3.3184-0.2168 0.66602-0.13086 0.4082-0.015625 0.03516-0.011719 0.04297-0.18945 0.68164 1.3652 0.37695 0.18945-0.68164 0.00781-0.03516 0.12891-0.38281 0.2207-0.67578zm0.61719 3.8438-1.4141 0.10742 0.054688 0.70312 0.023438 0.26953 0.0019531 0.03906 0.029297 0.19922 0.083984 0.70117 1.4082-0.18164-0.089844-0.70117-0.027344-0.18555-0.017578-0.24609zm0.67383 3.4102-1.2559 0.6543 0.32227 0.625 0.11523 0.20703 0.015625 0.03516 0.11914 0.19727 0.35938 0.61719 1.2168-0.7207-0.35742-0.60938-0.10938-0.18359-0.10352-0.19531zm16.354 1.2148c-0.3882 0.28012-0.83818 0.50119-1.3418 0.65234-0.14585 0.04376-0.30474 0.07864-0.46094 0.11524l-0.14062 0.20508 1.1699 0.80273 0.39648-0.58398 0.18945-0.27148 0.01563-0.02539 0.07422-0.12695 0.37109-0.59961zm-14.375 1.6426-0.9082 1.082 0.54492 0.45312 0.037109 0.03125 0.023437 0.02148 0.3418 0.25586 0.56055 0.42578 0.85156-1.1211-0.56055-0.42773-0.32227-0.24414-0.023437-0.02148zm11.283 0.47656-0.5957 0.38281-0.30664 0.20117-0.05859 0.03906-0.60742 0.35547 0.71289 1.2188 0.61523-0.35938 0.07422-0.04102 0.02734-0.01563 0.32617-0.21289 0.5918-0.39062zm-8.3633 1.3652-0.37109 1.3613 0.68164 0.18945 0.25586 0.07031 0.029297 0.0078 0.20508 0.04687 0.68945 0.15625 0.31055-1.3848-0.69531-0.15625-0.17773-0.03711-0.24609-0.06641zm5.2676 0.22461-0.69336 0.11914-0.32031 0.06055-0.11133 0.01562-0.70117 0.08984 0.18164 1.4023 0.70117-0.08984 0.13476-0.01563 0.02734-0.0078 0.33594-0.05664 0.69922-0.12891z" color="#000000" color-rendering="auto" dominant-baseline="auto" image-rendering="auto" shape-rendering="auto" solid-color="#000000" stop-color="#000000" style="font-feature-settings:normal;font-variant-alternates:normal;font-variant-caps:normal;font-variant-east-asian:normal;font-variant-ligatures:normal;font-variant-numeric:normal;font-variant-position:normal;font-variation-settings:normal;inline-size:0;isolation:auto;mix-blend-mode:normal;shape-margin:0;shape-padding:0;text-decoration-color:#000000;text-decoration-line:none;text-decoration-style:solid;text-indent:0;text-orientation:mixed;text-transform:none;white-space:normal"/><g fill="url(#radialGradient5327-8-4-1)" shape-rendering="auto"><path d="m164.48 173.42c2.3672 0.017 2.7657-6e-3 2.8963-0.96557 0.10697-0.78538-1.2809-1.1245-1.7522-0.24597-0.38058 0.70941-1.1441 1.2115-1.1441 1.2115z" color="#000000" color-rendering="auto" dominant-baseline="auto" image-rendering="auto" solid-color="#000000" stop-color="#000000" style="font-feature-settings:normal;font-variant-alternates:normal;font-variant-caps:normal;font-variant-east-asian:normal;font-variant-ligatures:normal;font-variant-numeric:normal;font-variant-position:normal;font-variation-settings:normal;inline-size:0;isolation:auto;mix-blend-mode:normal;shape-margin:0;shape-padding:0;text-decoration-color:#000000;text-decoration-line:none;text-decoration-style:solid;text-indent:0;text-orientation:mixed;text-transform:none;white-space:normal"/><path d="m164.48 173.42c2.3672 0.017 2.7657-6e-3 2.8963-0.96557 0.10697-0.78538-1.2809-1.1245-1.7522-0.24597-0.38058 0.70941-1.1441 1.2115-1.1441 1.2115z" color="#000000" color-rendering="auto" dominant-baseline="auto" image-rendering="auto" solid-color="#000000" stop-color="#000000" style="font-feature-settings:normal;font-variant-alternates:normal;font-variant-caps:normal;font-variant-east-asian:normal;font-variant-ligatures:normal;font-variant-numeric:normal;font-variant-position:normal;font-variation-settings:normal;inline-size:0;isolation:auto;mix-blend-mode:normal;shape-margin:0;shape-padding:0;text-decoration-color:#000000;text-decoration-line:none;text-decoration-style:solid;text-indent:0;text-orientation:mixed;text-transform:none;white-space:normal"/><path d="m164.48 173.42c2.3672 0.017 2.7657-6e-3 2.8963-0.96557 0.10697-0.78538-1.2809-1.1245-1.7522-0.24597-0.38058 0.70941-1.1441 1.2115-1.1441 1.2115z" color="#000000" color-rendering="auto" dominant-baseline="auto" image-rendering="auto" solid-color="#000000" stop-color="#000000" style="font-feature-settings:normal;font-variant-alternates:normal;font-variant-caps:normal;font-variant-east-asian:normal;font-variant-ligatures:normal;font-variant-numeric:normal;font-variant-position:normal;font-variation-settings:normal;inline-size:0;isolation:auto;mix-blend-mode:normal;shape-margin:0;shape-padding:0;text-decoration-color:#000000;text-decoration-line:none;text-decoration-style:solid;text-indent:0;text-orientation:mixed;text-transform:none;white-space:normal"/></g><path d="m166.44 171.87 0.68723 0.40573 1.3861-1.3337c-0.18706-0.38809-0.81052-0.89395-1.3117-0.81192z" color="#000000" fill="#888a85" stroke="#888a85" stroke-linecap="round" stroke-width=".19809"/><rect x="162.31" y="168.45" width="6.35" height="6.35" opacity="0" stroke-width=".28777"/><g><path d="m168.61 168.45c-0.47533 0.46928-1.0232 0.97481-1.419 1.5053l-0.0625 0.0822 0.12351 0.0956 1.2867 0.88883 0.0589-0.0667c0.0204-0.0232 0.0394-0.0486 0.0594-0.0724v-0.33848c-0.0534 0.0702-0.10754 0.14004-0.1633 0.20619l-1.0351-0.7152c0.34879-0.45172 0.7828-0.91945 1.1984-1.3384v-0.24702z" color="#000000" color-rendering="auto" dominant-baseline="auto" fill="#004360" image-rendering="auto" shape-rendering="auto" solid-color="#000000" stop-color="#000000" style="font-feature-settings:normal;font-variant-alternates:normal;font-variant-caps:normal;font-variant-east-asian:normal;font-variant-ligatures:normal;font-variant-numeric:normal;font-variant-position:normal;font-variation-settings:normal;inline-size:0;isolation:auto;mix-blend-mode:normal;shape-margin:0;shape-padding:0;text-decoration-color:#000000;text-decoration-line:none;text-decoration-style:solid;text-indent:0;text-orientation:mixed;text-transform:none;white-space:normal"/><path d="m164.48 173.42c2.3672 0.017 2.7657-6e-3 2.8963-0.96557 0.10697-0.78538-1.2809-1.1245-1.7522-0.24597-0.38058 0.70941-1.1441 1.2115-1.1441 1.2115z" color="#000000" fill="url(#radialGradient5327-8-4-1)"/><ellipse cx="166.3" cy="172.29" rx=".30198" ry=".29443" color="#000000" fill="#fff" opacity=".52778"/></g><path d="m167.5 170.53-0.57594 1.095" color="#000000" fill="none" stroke="#fff" stroke-linecap="round" stroke-linejoin="round" stroke-width=".19809"/><g transform="translate(-.20332 -.11291)"><path transform="matrix(.26458 0 0 .26458 162.51 168.56)" d="m10.666 4.1172-0.23047 1.3945 0.69531 0.11133 0.41016 0.070312 0.01953 0.00586 0.69531 0.14648 0.29492-1.3848-0.69531-0.14648-0.03711-0.00586-0.0293-0.00977-0.42773-0.070312zm-2.1621 0.095703-0.6875 0.15625-0.30859 0.076172-0.035156 0.00977-0.14648 0.037105-0.68555 0.19531 0.39062 1.3555 0.67773-0.19336 0.12891-0.037109 0.29883-0.064453 0.68359-0.16211zm6.0254 1.0059-0.73438 1.2051 0.60352 0.36133 0.16797 0.10742 0.19531 0.13477 0.58789 0.39453 0.78906-1.1758-0.58203-0.38867-0.21289-0.15039-0.033203-0.015625-0.17774-0.11133zm-9.8145 0.38672-0.57031 0.41211-0.24023 0.18164-0.023438 0.019531-0.13672 0.10742-0.54883 0.44141 0.89062 1.1016 0.54492-0.44727 0.11719-0.097656 0.23242-0.16406 0.56836-0.41797zm-2.9141 2.7656-0.36914 0.60742-0.072266 0.11719-0.021484 0.027344-0.15039 0.29492-0.33984 0.61914 1.2344 0.67774 0.33984-0.61719 0.15039-0.2793 0.064453-0.10547 0.36914-0.60742zm-1.6172 3.7246-0.085938 0.69922-0.039062 0.35547v0.0332l-0.011719 0.11328-0.048828 0.70508 1.4102 0.09961 0.050781-0.70703 0.00391-0.0918 0.039063-0.33984 0.083984-0.70703zm1.3809 3.6387-1.3633 0.38672 0.19727 0.67578 0.058594 0.20312 0.009766 0.03516 0.080078 0.25 0.22656 0.66797 1.3379-0.45703-0.22656-0.66797-0.078125-0.22656-0.050781-0.1875zm1.3477 3.1855-1.0977 0.90039 0.44727 0.54492 0.10742 0.13672 0.029297 0.02539 0.18945 0.2207 0.47656 0.52344 1.0527-0.94336-0.47656-0.52148-0.18359-0.20703-0.10156-0.12305zm13.65 0.55664-0.50391 0.5-0.27344 0.26563-0.03906 0.03516-0.52734 0.4707 0.94141 1.0527 0.52539-0.4707 0.05273-0.04297 0.02734-0.0293 0.2832-0.27734 0.50391-0.50195zm-11.172 1.8477-0.61328 1.2695 0.63477 0.30664 0.39648 0.19141 0.029297 0.0098 0.023437 0.01367 0.6543 0.28125 0.54688-1.3047-0.64453-0.27539-0.0097657-0.003906-0.38281-0.18164zm8.4648 0.33008-0.6543 0.26172-0.33008 0.12891-0.07617 0.0293-0.66992 0.22852 0.45312 1.332 0.66797-0.22852 0.09375-0.0293 0.03516-0.0098 0.3418-0.14063 0.65625-0.25586zm-5.1934 0.85547-0.095703 1.4023 0.70508 0.05078 0.2207 0.01367 0.033203 2e-3 0.25195 0.0078 0.70117 0.0098 0.02734-1.4102-0.70508-0.01563-0.23242-2e-3 -0.20312-0.01563z" color="#000000" color-rendering="auto" dominant-baseline="auto" fill="#eeeeec" image-rendering="auto" shape-rendering="auto" solid-color="#000000" stop-color="#000000" style="font-feature-settings:normal;font-variant-alternates:normal;font-variant-caps:normal;font-variant-east-asian:normal;font-variant-ligatures:normal;font-variant-numeric:normal;font-variant-position:normal;font-variation-settings:normal;inline-size:0;isolation:auto;mix-blend-mode:normal;shape-margin:0;shape-padding:0;text-decoration-color:#000000;text-decoration-line:none;text-decoration-style:solid;text-indent:0;text-orientation:mixed;text-transform:none;white-space:normal"/></g><g><path d="m164.48 173.42c2.3672 0.017 2.7657-6e-3 2.8963-0.96557 0.10697-0.78538-1.2809-1.1245-1.7522-0.24597-0.38058 0.70941-1.1441 1.2115-1.1441 1.2115z" color="#000000" color-rendering="auto" dominant-baseline="auto" image-rendering="auto" shape-rendering="auto" solid-color="#000000" stop-color="#000000" style="font-feature-settings:normal;font-variant-alternates:normal;font-variant-caps:normal;font-variant-east-asian:normal;font-variant-ligatures:normal;font-variant-numeric:normal;font-variant-position:normal;font-variation-settings:normal;inline-size:0;isolation:auto;mix-blend-mode:normal;shape-margin:0;shape-padding:0;text-decoration-color:#000000;text-decoration-line:none;text-decoration-style:solid;text-indent:0;text-orientation:mixed;text-transform:none;white-space:normal"/></g></g><circle cx="78.168" cy="1158.9" r="1.0607" fill="#888a85"/><path d="m87.112 1152.5 0.0032-7.4562-4.6839 5.3603 4.0938 3.0313z" fill="#004360"/></g></g></g></g></g></g></svg>
