<?xml version="1.0" encoding="UTF-8"?>
<!-- Created with Inkscape (http://www.inkscape.org/) -->
<svg width="3.8914mm" height="3.8915mm" version="1.1" viewBox="0 0 3.8914 3.8915" xml:space="preserve" xmlns="http://www.w3.org/2000/svg" xmlns:xlink="http://www.w3.org/1999/xlink"><g transform="translate(-140.06 -318.39)"><g transform="matrix(.26458 0 0 .26458 108.89 192.44)"><g transform="matrix(3.7795 0 0 3.7795 -629.71 114.01)"><g transform="translate(126.05 10.94)"><g transform="matrix(.74751 0 0 .74751 -7.2186 .23371)"><g transform="matrix(.35395 0 0 .35395 84.28 -305.23)"><path d="m67.661 1182.5-2.6438 2.6386h1.7774v3.5188c-1.1755-0.011-2.3515-0.015-3.5274-0.026v-1.7449l-2.625 2.6036 2.625 2.6404v-1.7551c1.1758-1e-4 2.3516 0 3.5274 0v3.5034h-1.7774l2.6438 2.6215 2.6062-2.6215h-1.75v-3.5034c1.1667 7e-4 2.3333 0 3.5 0v1.7551l2.625-2.6404-2.625-2.6028v1.7466c-1.1666 0.023-2.3329 0.03-3.5 0.03v-3.5256h1.75z" fill="#204a87" stroke="#204a87" stroke-width=".5"/></g></g></g></g></g></g></svg>
