<?xml version="1.0" encoding="UTF-8"?>
<!-- Created with Inkscape (http://www.inkscape.org/) -->
<svg width="8.4667mm" height="5.2917mm" version="1.1" viewBox="0 0 8.4667 5.2917" xml:space="preserve" xmlns="http://www.w3.org/2000/svg"><g transform="translate(-137.9 -293.86)"><g transform="matrix(.26458 0 0 .26458 108.89 192.44)"><g transform="matrix(3.7795 0 0 3.7795 -629.71 114.01)"><g transform="translate(126.05 10.94)"><g transform="matrix(.74751 0 0 .74751 -7.2186 .23371)"><g transform="matrix(.35395 0 0 .35395 84.28 -305.23)"><path d="m53.119 1097.1 1.4375-3.4375s2.5-2.125 2.75-2.125 2.1875-1.1875 2.1875-1.1875l1.0625-0.1875 15.75 0.062 4.75 2.5625s2.1875 3.625 2.1875 3.875v4.8125l-1.4375 3.5625-2.75 2.9375s-4.0625 1.125-4.5625 1.125-12 0.3125-13.938-0.25-4.25-1.75-4.25-1.75l-2.25-2.5-1.3125-2.9375z" fill="#525252"/><g transform="translate(52.119 1082.4)"><circle cx="10" cy="17" r="6" fill="#ebebeb"/><path d="m10 7c-5.5228 0-10 4.4772-10 10s4.4772 10 10 10h12c5.5228 0 10-4.4772 10-10s-4.4772-10-10-10zm0 1c-4.9706 0-9 4.0294-9 9s4.0294 9 9 9h12c4.9706 0 9-4.0294 9-9s-4.0294-9-9-9z" clip-rule="evenodd" fill="#525252" fill-rule="evenodd"/></g></g></g></g></g></g></g></svg>
