<?xml version="1.0" encoding="UTF-8" standalone="no"?>
<!-- Created with Inkscape (http://www.inkscape.org/) -->

<svg
   xmlns:dc="http://purl.org/dc/elements/1.1/"
   xmlns:cc="http://creativecommons.org/ns#"
   xmlns:rdf="http://www.w3.org/1999/02/22-rdf-syntax-ns#"
   xmlns:svg="http://www.w3.org/2000/svg"
   xmlns="http://www.w3.org/2000/svg"
   xmlns:xlink="http://www.w3.org/1999/xlink"
   xmlns:sodipodi="http://sodipodi.sourceforge.net/DTD/sodipodi-0.dtd"
   xmlns:inkscape="http://www.inkscape.org/namespaces/inkscape"
   id="svg11300"
   width="16"
   height="16"
   version="1.0"
   viewBox="0 0 16 16"
   sodipodi:docname="gimp-tool-free-select.svg"
   inkscape:version="0.92.4 (unknown)">
  <sodipodi:namedview
     pagecolor="#ffffff"
     bordercolor="#666666"
     borderopacity="1"
     objecttolerance="10"
     gridtolerance="10"
     guidetolerance="10"
     inkscape:pageopacity="0"
     inkscape:pageshadow="2"
     inkscape:window-width="1375"
     inkscape:window-height="786"
     id="namedview26"
     showgrid="false"
     inkscape:zoom="29.035572"
     inkscape:cx="5.8336982"
     inkscape:cy="9.0951773"
     inkscape:window-x="65"
     inkscape:window-y="24"
     inkscape:window-maximized="1"
     inkscape:current-layer="g4031"
     inkscape:pagecheckerboard="true" />
  <defs
     id="defs3">
    <linearGradient
       id="linearGradient4126">
      <stop
         id="stop4128"
         offset="0" />
      <stop
         id="stop4130"
         style="stop-opacity:0"
         offset="1" />
    </linearGradient>
    <linearGradient
       id="linearGradient9763"
       x1="1.9001"
       x2="6.0999"
       y1="8.9439"
       y2="8.9439"
       gradientTransform="matrix(.94118 0 0 .94118 .11029 .65038)"
       gradientUnits="userSpaceOnUse">
      <stop
         id="stop9757"
         style="stop-color:#d3d7cf"
         offset="0" />
      <stop
         id="stop9759"
         style="stop-color:#d3d7cf;stop-opacity:0"
         offset="1" />
    </linearGradient>
    <linearGradient
       id="linearGradient4100"
       x1="34.102"
       x2="-1.9225"
       y1="6.0234"
       y2="5.9554"
       gradientUnits="userSpaceOnUse">
      <stop
         id="stop11401"
         offset="0" />
      <stop
         id="stop11403"
         style="stop-opacity:0"
         offset="1" />
    </linearGradient>
    <linearGradient
       id="linearGradient9763-6"
       x1="12.069"
       x2=".76322"
       y1="6.8309"
       y2="8.8496"
       gradientTransform="matrix(.94118 0 0 .94118 .11029 .65038)"
       gradientUnits="userSpaceOnUse"
       xlink:href="#linearGradient4126" />
    <linearGradient
       id="linearGradient4166"
       x1="12.87"
       x2="3.7161"
       y1="12.926"
       y2="12.949"
       gradientUnits="userSpaceOnUse"
       xlink:href="#linearGradient4126" />
  </defs>
  <metadata
     id="metadata4">
    <rdf:RDF>
      <cc:Work
         rdf:about="">
        <dc:format>image/svg+xml</dc:format>
        <dc:type
           rdf:resource="http://purl.org/dc/dcmitype/StillImage" />
        <dc:creator>
          <cc:Agent>
            <dc:title>Jakub Steiner</dc:title>
          </cc:Agent>
        </dc:creator>
        <dc:source>http://jimmac.musichall.cz</dc:source>
        <cc:license
           rdf:resource="http://creativecommons.org/licenses/by-sa/2.0/" />
        <dc:title></dc:title>
      </cc:Work>
      <cc:License
         rdf:about="http://creativecommons.org/licenses/by-sa/2.0/">
        <cc:permits
           rdf:resource="http://web.resource.org/cc/Reproduction" />
        <cc:permits
           rdf:resource="http://web.resource.org/cc/Distribution" />
        <cc:requires
           rdf:resource="http://web.resource.org/cc/Notice" />
        <cc:requires
           rdf:resource="http://web.resource.org/cc/Attribution" />
        <cc:permits
           rdf:resource="http://web.resource.org/cc/DerivativeWorks" />
        <cc:requires
           rdf:resource="http://web.resource.org/cc/ShareAlike" />
      </cc:License>
    </rdf:RDF>
  </metadata>
  <g
     id="layer1">
    <g
       id="g4031">
      <path
         id="path4672-4-8"
         d="M 9.1586,0.62385 C 8.67395,0.6199227 8.1539,0.652941 7.6448,0.715896 c -4.0727,0.50407 -7.2039,3.0568 -7.0129,5.7068 0.191,2.6501 3.6199,4.37 7.6926,3.8659 4.0727,-0.50407 7.2348,-3.0567 7.0438,-5.7068 -0.16712,-2.3188 -2.8171,-3.9264 -6.2097,-3.958 z m -0.18536,1.4727 c 1.3637,0.011094 2.5666,0.30638 3.4601,0.79773 0.89349,0.49135 1.4775,1.1788 1.5447,1.9943 0.15355,1.8641 -2.3794,3.6648 -5.6536,4.0193 C 5.05024,9.26244 2.26834,8.04129 2.11474,6.17718 1.96119,4.31308 4.49414,2.51238 7.76834,2.15788 8.17761,2.1136 8.58357,2.093374 8.97324,2.096516 Z"
         style="display:inline;fill:#666666;stroke:none"
         inkscape:connector-curvature="0" />
      <path
         id="path4660-1-1"
         d="m 3.875,7.1976 c -1.0396,0 -1.8824,0.8375 -1.8824,1.8706 0,1.0331 0.84276,1.8706 1.8824,1.8706 1.03964,0 1.8824,-0.8375 1.8824,-1.8706 0,-1.0331 -0.84276,-1.8706 -1.8824,-1.8706 z m 0,0.93531 c 0.51979,0 0.94118,0.41876 0.94118,0.93531 0,0.51655 -0.42138,0.93531 -0.94118,0.93531 -0.5198,0 -0.94118,-0.41876 -0.94118,-0.93531 0,-0.51655 0.42138,-0.93531 0.94118,-0.93531 z"
         style="display:inline;fill:#666666;fill-opacity:1"
         inkscape:connector-curvature="0" />
      <path
         id="path4664-1-6"
         d="m 3.892,10.12 c 0,0 4.2081,2.8799 0,5.7599 H 5.8319 C 9.3238,13.4366 5.816973,10.12 5.816973,10.12 Z"
         style="display:inline;fill:#666666;fill-opacity:1;stroke:none"
         inkscape:connector-curvature="0" />
    </g>
  </g>
</svg>
