<?xml version="1.0" encoding="UTF-8"?>
<!-- Created with Inkscape (http://www.inkscape.org/) -->
<svg width="8.4667mm" height="5.2917mm" version="1.1" viewBox="0 0 8.4667 5.2917" xml:space="preserve" xmlns="http://www.w3.org/2000/svg"><g transform="translate(-143.99 -297.56)"><g transform="matrix(.26458 0 0 .26458 108.89 192.44)"><g transform="matrix(3.7795 0 0 3.7795 -629.71 114.01)"><g transform="translate(126.05 10.94)"><g transform="matrix(.74751 0 0 .74751 -7.2186 .23371)"><g transform="matrix(.35395 0 0 .35395 84.28 -305.23)"><path d="m83.681 1104.1h14.875l3.4375 1.1875 2.3125 1.8125 1.875 3.5 0.5 3.3125-0.75 3.1875-2.125 3.1875-2.5 1.875-3.4375 0.75h-14.688l-3.1875-1.375-2.75-2.5-1.3125-3.0625-0.3125-3.25 0.75-3 1.75-2.6875 2.625-2.125z" fill="#487b1e"/><g transform="translate(75.119 1097.4)"><circle cx="22" cy="16" r="6" fill="#559223"/><path d="m25.366 13.279c-0.44114-0.3864-1.1589-0.38482-1.5879 0.1055l-2.459 3.0947-0.7283-0.5697c-0.43845-0.43824-1.1524-0.43824-1.5908 0-0.43824 0.43844-0.43824 1.1524 0 1.5908l1.5794 1.4208c0.45875 0.45875 1.2144 0.43414 1.6421-0.0542l3.25-4c0.42977-0.49066 0.33528-1.2022-0.1055-1.5879z" fill="#bceb7d" stroke="#bceb7d" stroke-width=".4"/><path d="m22 26c5.5228 0 10-4.4772 10-10s-4.4772-10-10-10h-12c-5.5228 0-10 4.4772-10 10s4.4772 10 10 10zm0-1c4.9706 0 9-4.0294 9-9s-4.0294-9-9-9h-12c-4.9706 0-9 4.0294-9 9s4.0294 9 9 9z" clip-rule="evenodd" fill="#487b1e" fill-rule="evenodd"/></g></g></g></g></g></g></g></svg>
