<?xml version="1.0" encoding="UTF-8"?>
<!-- Created with Inkscape (http://www.inkscape.org/) -->
<svg width="3.175mm" height="4.2333mm" version="1.1" viewBox="0 0 3.175 4.2333" xml:space="preserve" xmlns="http://www.w3.org/2000/svg" xmlns:xlink="http://www.w3.org/1999/xlink"><g transform="translate(-141.87 -313.17)"><g transform="matrix(.26458 0 0 .26458 108.89 192.44)"><g transform="matrix(3.7795 0 0 3.7795 -629.71 114.01)"><g transform="translate(126.05 10.94)"><g transform="matrix(.74751 0 0 .74751 -7.2186 .23371)"><g transform="matrix(.35395 0 0 .35395 84.28 -305.23)"><g transform="matrix(3.7795 0 0 3.7795 65.118 55.918)" shape-rendering="auto"><path transform="matrix(.19233 0 0 .25647 .67417 292.7)" d="m-0.75391 0.24805v16.506l16.508-2.876v-10.754z" color="#000000" color-rendering="auto" dominant-baseline="auto" fill="#729fcf" image-rendering="auto" solid-color="#000000" style="font-feature-settings:normal;font-variant-alternates:normal;font-variant-caps:normal;font-variant-ligatures:normal;font-variant-numeric:normal;font-variant-position:normal;isolation:auto;mix-blend-mode:normal;shape-padding:0;text-decoration-color:#000000;text-decoration-line:none;text-decoration-style:solid;text-indent:0;text-orientation:mixed;text-transform:none;white-space:normal"/><g stroke="#fff" stroke-opacity=".35294"><path d="m0.95343 293.23v0.85576l0.84749 0.0775v-0.77205zm0 1.2216v0.85628l0.84749-0.0419v-0.77256zm0.84749 1.1452-0.84749 0.077v0.85628l0.84749-0.16123z" color="#000000" color-rendering="auto" dominant-baseline="auto" fill="#729fcf" image-rendering="auto" solid-color="#000000" stroke-width=".39688" style="font-feature-settings:normal;font-variant-alternates:normal;font-variant-caps:normal;font-variant-ligatures:normal;font-variant-numeric:normal;font-variant-position:normal;isolation:auto;mix-blend-mode:normal;shape-padding:0;text-decoration-color:#000000;text-decoration-line:none;text-decoration-style:solid;text-indent:0;text-orientation:mixed;text-transform:none;white-space:normal"/><path d="m2.1151 293.45v0.74104l0.64441 0.0589v-0.67748zm0 1.0584v0.74156l0.64441-0.0315v-0.678zm0.64441 0.99988-0.64441 0.0589v0.74156l0.64441-0.12247z" color="#000000" color-rendering="auto" dominant-baseline="auto" fill="none" image-rendering="auto" solid-color="#000000" stroke-width=".33073" style="font-feature-settings:normal;font-variant-alternates:normal;font-variant-caps:normal;font-variant-ligatures:normal;font-variant-numeric:normal;font-variant-position:normal;isolation:auto;mix-blend-mode:normal;shape-padding:0;text-decoration-color:#000000;text-decoration-line:none;text-decoration-style:solid;text-indent:0;text-orientation:mixed;text-transform:none;white-space:normal"/><path d="m3.0029 293.62v0.65319l0.50591 0.0465v-0.60358zm0 0.93329v0.6537l0.50591-0.0248v-0.6041zm0.50591 0.88728-0.50591 0.0465v0.65371l0.50591-0.0961z" color="#000000" color-rendering="auto" dominant-baseline="auto" fill="none" image-rendering="auto" solid-color="#000000" stroke-width=".26458" style="font-feature-settings:normal;font-variant-alternates:normal;font-variant-caps:normal;font-variant-ligatures:normal;font-variant-numeric:normal;font-variant-position:normal;isolation:auto;mix-blend-mode:normal;shape-padding:0;text-decoration-color:#000000;text-decoration-line:none;text-decoration-style:solid;text-indent:0;text-orientation:mixed;text-transform:none;white-space:normal"/></g><path transform="matrix(.19233 0 0 .25647 .67417 292.7)" d="m-0.75391 0.24805v16.506l16.508-2.876v-10.754zm2.2065 1.8201 4.4046 0.62734v3.0099l-4.4046-0.3021zm6.0386 0.86009 3.3509 0.47727v2.6418l-3.3509-0.22983zm4.6159 0.65744 2.6321 0.37489v2.354l-2.6321-0.18053zm-10.655 3.2459 4.4046 0.16281v3.0115l-4.4046 0.16262zm6.0386 0.22321 3.3509 0.12386v2.6432l-3.3509 0.12372zm4.6159 0.17062 2.6321 0.097291v2.3553l-2.6321 0.097183zm-10.655 4.3714 4.4046-0.30191v3.0115l-4.4046 0.62734zm6.0386-0.41392 3.3509-0.22969v2.6432l-3.3509 0.47727zm4.6159-0.3164 2.6321-0.18042v2.3553l-2.6321 0.37489z" color="#000000" color-rendering="auto" dominant-baseline="auto" fill="#204a87" image-rendering="auto" solid-color="#000000" style="font-feature-settings:normal;font-variant-alternates:normal;font-variant-caps:normal;font-variant-ligatures:normal;font-variant-numeric:normal;font-variant-position:normal;isolation:auto;mix-blend-mode:normal;shape-padding:0;text-decoration-color:#000000;text-decoration-line:none;text-decoration-style:solid;text-indent:0;text-orientation:mixed;text-transform:none;white-space:normal"/></g><g fill="#a4c1e0"><path d="m68.698 1164.2 3.2151 0.6187v2.9169l-3.2041-0.3094z"/><path d="m68.72 1168.8 3.193 0.1657v2.9168l-3.193 0.1436z"/><path d="m73.592 1165.5c0.13258 0.011 1.4253 0.1658 1.4474 0.2984 0.0221 0.1325 0.15468 1.6793 0.08839 1.7898-0.06629 0.1105-1.591-0.022-1.5799-0.1768 0.01105-0.1546 0.04419-1.9114 0.04419-1.9114z"/><path d="m76.763 1166.1c0.19887 0.044 1.1711 0.1215 1.2043 0.2762 0.03315 0.1547 0.11048 1.5136 0.04419 1.5357-0.06629 0.022-1.149-0.077-1.1711-0.1215-0.0221-0.044-0.07734-1.6904-0.07734-1.6904z"/><path d="m73.438 1169.5c0.17678 0.055 1.5799 0.033 1.6462 0.1105 0.06629 0.077-0.01105 1.5909-0.03315 1.6351-0.0221 0.044-1.6683 0.221-1.5468 0.1216 0.12153-0.1-0.06629-1.8672-0.06629-1.8672z"/><path d="m76.785 1169.5c0.20992 0.044 1.1711 0.066 1.2485 0.1547 0.07734 0.088 0.01105 1.4363-0.04419 1.4694-0.05524 0.033-0.97227 0.077-0.97227 0.077s-0.23202 0.022-0.26516-0.1989c-0.03315-0.221-0.05525-1.4915-0.05525-1.4915z"/><path d="m69.294 1173.9c0.07734 0 2.0329-0.232 2.055-0.1657 0.0221 0.066 0.24307 1.8893 0.13258 1.9445-0.11049 0.055-2.4196 0.6408-2.276 0.3425s0.07734-2.1545 0.08839-2.1213z"/><path d="m73.482 1173.4c0.09944 0 1.6462-0.088 1.6462-0.088s0.16573 1.6131 0.06629 1.6904c-0.09944 0.077-1.7346 0.3978-1.7346 0.3426 0-0.055 0.0221-1.9446 0.0221-1.9446z"/><path d="m76.796 1172.9c0.06629 0 1.2485-0.011 1.2595 0.099 0.01105 0.1105-0.0221 1.7015-0.06629 1.7015s-1.1711 0.1768-1.1711 0.1215c0-0.055-0.0221-1.9224-0.0221-1.9224z"/></g></g></g></g></g></g></g></svg>
