<?xml version="1.0" encoding="UTF-8"?>
<!-- Created with Inkscape (http://www.inkscape.org/) -->
<svg width="4.1915mm" height="4.1654mm" version="1.1" viewBox="0 0 4.1915 4.1654" xml:space="preserve" xmlns="http://www.w3.org/2000/svg"><g transform="translate(-138.96 -291.48)"><g transform="matrix(.26458 0 0 .26458 108.89 192.44)"><g transform="matrix(3.7795 0 0 3.7795 -629.71 114.01)"><g transform="translate(126.05 10.94)"><g transform="matrix(.74751 0 0 .74751 -7.2186 .23371)"><g transform="matrix(.35395 0 0 .35395 84.28 -305.23)"><g transform="matrix(.99993 0 0 .99997 55.962 1080.3)"><g fill-rule="evenodd"><path d="m8.597 1.0902h-0.0091c-0.26701 0.013319-0.43687 0.12713-0.71407 0.28223s-0.61212 0.36654-0.98591 0.61653c-0.74759 0.49999-1.6498 1.1518-2.5038 1.7884-0.85399 0.63664-1.6598 1.2573-2.2124 1.6909-0.2763 0.21677-0.48846 0.38592-0.61522 0.49034-0.06338 0.051944-0.08955 0.070324-0.13917 0.121-0.0062 0.00666-0.01291 0.013319-0.02601 0.029967-0.0065 0.00799-0.02709 0.039957-0.02732 0.040623-2.25e-4 3.996e-4 -0.0455 0.14025-0.04552 0.14051-2e-5 1.998e-4 0.23003 0.34722 0.23022 0.34729 1.88e-4 0 0.1856 0.00666 0.186 0.00666 3.96e-4 -1.332e-4 0.04002-0.013319 0.05072-0.017981 0.01071-0.00666 0.01884-0.00866 0.02471-0.011987 0.04696-0.02464 0.05137-0.031299 0.07544-0.047948l-0.3785-0.54368c0.0037 0 0.0066-0.00666 0.013-0.00666 0.0095-0.00666 0.04982-0.017315 0.04943-0.016649-3.96e-4 1.332e-4 0.18228 0.00666 0.18209 0.00666-1.88e-4 -6.66e-5 0.2302 0.34622 0.23022 0.34602 1.9e-5 -2.664e-4 -0.04444 0.13952-0.04423 0.13918 2.24e-4 -3.995e-4 -0.02031 0.029302-0.02601 0.036627-0.0114 0.014651-0.01533 0.019312-0.01821 0.021976-0.02305 0.023308 0.02818-0.025306 0.08715-0.07412 0.11793-0.097095 0.32956-0.26498 0.60351-0.47995 0.54791-0.42987 1.3494-1.0478 2.1981-1.6804 0.84874-0.63271 1.7446-1.2803 2.4752-1.7689 0.36528-0.24427 0.69097-0.44891 0.94169-0.58916 0.25072-0.14031 0.47633-0.20171 0.42272-0.19905h1.9991c0.19438-0.00999 0.69257 0.19645 1.064 0.55154 0.37138 0.35502 0.61732 0.81738 0.5788 1.2018l0.66204 0.066594c0.06867-0.68519-0.31326-1.3028-0.7804-1.7494s-1.0182-0.76384-1.5608-0.73487h0.01821z" color="#000000" color-rendering="auto" dominant-baseline="auto" fill="#494949" image-rendering="auto" shape-rendering="auto" solid-color="#000000" style="font-feature-settings:normal;font-variant-alternates:normal;font-variant-caps:normal;font-variant-ligatures:normal;font-variant-numeric:normal;font-variant-position:normal;isolation:auto;mix-blend-mode:normal;shape-padding:0;text-decoration-color:#000000;text-decoration-line:none;text-decoration-style:solid;text-indent:0;text-orientation:mixed;text-transform:none;white-space:normal"/><g fill="#d3d7cf"><path d="m12.5 3.2344c-0.36859 0-0.66602 0.30078-0.66602 0.67383v2.3203c0.49741 0.22394 0.91174 0.59547 1.209 1.0527 0.07688-0.10985 0.12305-0.24323 0.12305-0.38867v-2.9844c0-0.37305-0.29742-0.67383-0.66602-0.67383z" color="#000000" stroke-linecap="square" stroke-linejoin="round" style="-inkscape-stroke:none"/><path d="m12.5 2.9004c-0.55038 0-0.99531 0.45731-1 1.0078l-0.0221 2.595c0.23879 0.07103 0.48594-0.22348 0.69202-0.09306v-2.502c0-0.19558 0.14328-0.33984 0.33008-0.33984s0.33008 0.14426 0.33008 0.33984v2.9844c0 0.031582-0.0027 0.061415-0.0098 0.089844 0.15588 0.18463 0.29002 0.38838 0.39844 0.60742 0.17388-0.18198 0.28129-0.4284 0.28129-0.69727v-2.9844c0-0.55052-0.44962-1.0078-1-1.0078z" color="#000000" style="-inkscape-stroke:none"/></g><g fill="#edd400" stroke-linecap="square" stroke-linejoin="round"><path d="m13.539 9.832h0.56055v-3.1992h-1.6309c0.65874 0.55267 1.0703 1.4027 1.0703 2.3125z" color="#000000" style="-inkscape-stroke:none"/><path d="m14.213 10.217c0.17058-0.0502 0.28755-0.20696 0.28711-0.38477v-3.1992c1.94e-4 -0.22121-0.17918-0.40058-0.40039-0.40039l-3.3295-0.00552c-0.20191-0.02264-0.30077 0.12682-0.31182 0.31465l2.2908 1.5302v0.98422l-0.24854 0.46404v0.59961c0.23937 0.02055 1.5048-0.0021 1.7124 0.09716z" color="#000000" style="-inkscape-stroke:none"/></g><path d="m13.141 15.444 2.8586 0.01105v-5.082c0-0.28187-0.12503-0.41577-0.25195-0.58398s-0.28602-0.33678-0.45898-0.49609c-0.17296-0.15932-0.35676-0.30643-0.53711-0.42188-0.18034-0.11545-0.332-0.22418-0.5918-0.2207l-1.166 0.015625c0.0096 0.097715 0.01367 0.19554 0.01367 0.29492v0.45508l-0.03711 1.3906c-0.021 0.0047 0.09166 0.02896 0.20508 0.10156 0.12962 0.08298 0.2878 0.20751 0.43359 0.3418s0.28063 0.28113 0.36914 0.39844c0.08851 0.1173 0.09961 0.23853 0.09961 0.13086l-0.0625 0.58398c-1.3106 0.69037-0.86983 1.8018-0.87421 3.0808z" color="#000000" fill="#204a87" stroke-linecap="square" stroke-linejoin="round" style="-inkscape-stroke:none"/></g><path d="m0.15652 0.15652v3.2674h1.1993v3.2451c-0.59827 0.20749-1.199 0.73379-1.1991 1.3309-1e-4 0.59737 0.6008 1.1244 1.1991 1.3319v3.2433h-1.1993v3.2683h2.9983l-1e-6 -3.2683h-1.1993v-3.2433c0.59827-0.2075 1.1995-0.73439 1.1996-1.3319 1.12e-4 -0.59774-0.60067-1.1251-1.1996-1.3329v-3.2432h1.1993v-3.2674z" fill="#494949"/><g transform="matrix(3.5396,0,0,3.5396,-195.4,-161.87)"><g transform="matrix(.74751 0 0 .74751 -7.2186 .23371)"><path d="m87.441 63.346c-0.47964 0-0.84208 0.41979-0.84208 0.90094v0.64658c0 0.48114 0.36243 0.90093 0.84208 0.90093h0.12326c0.47964 0 0.84337-0.41979 0.84337-0.90093v-0.64658c0-0.48115-0.36373-0.90094-0.84337-0.90094zm0 0.45427h0.12326c0.19689 0 0.37756 0.18036 0.37756 0.44667v0.64658c0 0.26631-0.18067 0.44793-0.37756 0.44793h-0.12326c-0.1969 0-0.37758-0.18162-0.37758-0.44793v-0.64658c0-0.26631 0.18068-0.44667 0.37758-0.44667z" color="#000000" color-rendering="auto" dominant-baseline="auto" fill="#494949" image-rendering="auto" shape-rendering="auto" solid-color="#000000" stop-color="#000000" stroke="#ccc" stroke-linecap="round" stroke-linejoin="round" stroke-width=".13121" style="font-feature-settings:normal;font-variant-alternates:normal;font-variant-caps:normal;font-variant-east-asian:normal;font-variant-ligatures:normal;font-variant-numeric:normal;font-variant-position:normal;font-variation-settings:normal;inline-size:0;isolation:auto;mix-blend-mode:normal;paint-order:fill markers stroke;shape-margin:0;shape-padding:0;text-decoration-color:#000000;text-decoration-line:none;text-decoration-style:solid;text-indent:0;text-orientation:mixed;text-transform:none;white-space:normal"/><g fill="#ccc" shape-rendering="auto"><path d="m87.441 63.346c-0.47964 0-0.84208 0.41979-0.84208 0.90094v0.64658c0 0.48114 0.36243 0.90093 0.84208 0.90093h0.12326c0.47964 0 0.84337-0.41979 0.84337-0.90093v-0.64658c0-0.48115-0.36373-0.90094-0.84337-0.90094zm0 0.45427h0.12326c0.19689 0 0.37756 0.18036 0.37756 0.44667v0.64658c0 0.26631-0.18067 0.44793-0.37756 0.44793h-0.12326c-0.1969 0-0.37758-0.18162-0.37758-0.44793v-0.64658c0-0.26631 0.18068-0.44667 0.37758-0.44667z" color="#000000" color-rendering="auto" dominant-baseline="auto" image-rendering="auto" solid-color="#000000" stop-color="#000000" style="font-feature-settings:normal;font-variant-alternates:normal;font-variant-caps:normal;font-variant-east-asian:normal;font-variant-ligatures:normal;font-variant-numeric:normal;font-variant-position:normal;font-variation-settings:normal;inline-size:0;isolation:auto;mix-blend-mode:normal;paint-order:fill markers stroke;shape-margin:0;shape-padding:0;text-decoration-color:#000000;text-decoration-line:none;text-decoration-style:solid;text-indent:0;text-orientation:mixed;text-transform:none;white-space:normal"/><path d="m87.441 63.279c-0.51792 0-0.9082 0.4527-0.9082 0.9668v0.64648c0 0.51408 0.39028 0.9668 0.9082 0.9668h0.12305c0.51791 0 0.91016-0.45259 0.91016-0.9668v-0.64648c0-0.51421-0.39224-0.9668-0.91016-0.9668zm0 0.13281h0.12305c0.44136 0 0.77734 0.3859 0.77734 0.83398v0.64648c0 0.44808-0.33599 0.83594-0.77734 0.83594h-0.12305c-0.44137 0-0.77734-0.38774-0.77734-0.83594v-0.64648c0-0.4482 0.33598-0.83398 0.77734-0.83398zm0 0.32227c-0.23696 0-0.44336 0.21574-0.44336 0.51172v0.64648c0 0.29598 0.20612 0.51367 0.44336 0.51367h0.12305c0.23724 0 0.44336-0.21769 0.44336-0.51367v-0.64648c0-0.29598-0.2064-0.51172-0.44336-0.51172zm0 0.13086h0.12305c0.15683 0 0.3125 0.14422 0.3125 0.38086v0.64648c0 0.23663-0.15595 0.38281-0.3125 0.38281h-0.12305c-0.15656 0-0.3125-0.14618-0.3125-0.38281v-0.64648c0-0.23663 0.15566-0.38086 0.3125-0.38086z" color="#000000" color-rendering="auto" dominant-baseline="auto" image-rendering="auto" solid-color="#000000" stop-color="#000000" style="font-feature-settings:normal;font-variant-alternates:normal;font-variant-caps:normal;font-variant-east-asian:normal;font-variant-ligatures:normal;font-variant-numeric:normal;font-variant-position:normal;font-variation-settings:normal;inline-size:0;isolation:auto;mix-blend-mode:normal;paint-order:fill markers stroke;shape-margin:0;shape-padding:0;text-decoration-color:#000000;text-decoration-line:none;text-decoration-style:solid;text-indent:0;text-orientation:mixed;text-transform:none;white-space:normal"/></g><path d="m86.828 63.87c0.0033-0.01617 0.19963-0.25064 0.19963-0.25064" fill="none" stroke="#ccc" stroke-linecap="round" stroke-width=".20499"/></g><path d="m57.403 48.723c-0.22063 0-0.39836 0.17773-0.39836 0.39836l-0.02207 0.97604h2.3733l0.02207-0.97604c5e-3 -0.22057-0.17729-0.39836-0.39791-0.39836z" fill="#dbb458" style="paint-order:stroke markers fill"/><path d="m58.92 48.723-0.01986 1.3751h0.45813l0.01986-0.97688c4.41e-4 -0.22063-0.17725-0.39826-0.39788-0.39826z" fill="#c48319" style="paint-order:stroke markers fill"/><path d="m57.403 48.723c-0.22063 0-0.39865 0.17763-0.39865 0.39826l-0.02207 0.9798h0.45852l0.02207-1.378z" fill="#e6ca74" style="paint-order:stroke markers fill"/></g></g></g></g></g></g></g></g></svg>
