<?xml version="1.0" encoding="UTF-8"?>
<!-- Created with Inkscape (http://www.inkscape.org/) -->
<svg width="4.233mm" height="4.233mm" version="1.1" viewBox="0 0 4.233 4.233" xml:space="preserve" xmlns="http://www.w3.org/2000/svg" xmlns:xlink="http://www.w3.org/1999/xlink"><defs><radialGradient id="radialGradient97313-1" cx="15.415" cy="35.357" r="7.5792" gradientTransform="matrix(.072127 0 0 .070092 48.346 48.473)" gradientUnits="userSpaceOnUse"><stop offset="0"/><stop offset="1"/></radialGradient></defs><g transform="translate(-126.73 -265.22)"><g transform="matrix(.26458 0 0 .26458 108.89 192.44)"><g id="" transform="matrix(.7377 0 0 .77577 -155.31 51.771)" enable-background="new"><g transform="matrix(7.0752 0 0 6.728 2275.6 1002.1)"><g transform="matrix(.72403 0 0 .72414 -307.34 -143.14)"><path d="m40.951 53.14 1.5437-1.6195 0.14618 0.04677-0.38592 1.0348s-0.71045 0.94128-0.75723 0.92375c-0.04678-0.01754-0.61104-0.38002-0.61104-0.38002z" fill="#673907"/><path d="m40.844 53.24-0.38866 0.97978 0.33077 0.22324 0.92616-0.60358s-0.20673-0.29352-0.22741-0.31006c-0.02067-0.01654-0.2977-0.24391-0.2977-0.24391z" fill="#888a85"/><g transform="matrix(1.0001 0 0 .99999 -4.1269 -4.1785)"><rect x="43.312" y="55.26" width="4.233" height="4.233" fill="none" style="paint-order:stroke markers fill"/><g transform="matrix(.91512 0 0 .91512 -.78125 11.982)"><g transform="translate(4.4436 -5.6139)" shape-rendering="auto"><path transform="scale(.26458)" d="m179.27 201.45c-0.19722 7e-3 -0.39283 0.11646-0.53515 0.29297-0.0275 0.0235-4.153 3.5475-6.5039 6.7695l-0.14062 0.19336 0.19922 0.13868 2.0996 1.4844v-0.50391c0-0.0252 7e-3 -0.0491 8e-3 -0.0742l-1.6113-1.1426c2.3296-3.0866 6.2734-6.5312 6.2734-6.5312l0.0234-0.0156 0.0137-0.0156c0.0921-0.11925 0.19224-0.12495 0.21484-0.11719 0.0113 4e-3 6e-3 2e-3 0.0137 0.0215 8e-3 0.0193 0.0237 0.0696 0 0.16211-1e-3 5e-3 -0.91643 3.0856-1.7773 4.4199-0.86716 1.344-3.3184 3.4661-3.3184 3.4661-0.0509 0.0532 0.0916 0.53386 0.24318 0.2582 0.0927-0.16865 2.5209-2.136 3.4217-3.495 0.90261-1.3618 1.8899-4.5223 1.8899-4.5223v-8e-3c0.0424-0.1657 0.0409-0.32779-0.0156-0.46485-0.0566-0.13706-0.17147-0.24398-0.30273-0.28906-0.0643-0.0221-0.12957-0.0297-0.19532-0.0273z" color="#000000" color-rendering="auto" dominant-baseline="auto" enable-background="accumulate" fill="#673907" image-rendering="auto" solid-color="#000000" stop-color="#000000" style="font-feature-settings:normal;font-variant-alternates:normal;font-variant-caps:normal;font-variant-east-asian:normal;font-variant-ligatures:normal;font-variant-numeric:normal;font-variant-position:normal;font-variation-settings:normal;inline-size:0;isolation:auto;mix-blend-mode:normal;shape-margin:0;shape-padding:0;text-decoration-color:#000000;text-decoration-line:none;text-decoration-style:solid;text-indent:0;text-orientation:mixed;text-transform:none;white-space:normal"/><path transform="scale(.26458)" d="m172.64 208.58c-0.17326-0.0178-0.34773-0.0151-0.51953 0.0137l-0.125 0.0215-1.9336 4.5176 0.17578 0.11133 1.7871 1.0781 1.2962-0.8767v-0.63282c0-0.53247 0.31133-0.60772 4e-3 -0.041l-1.3744 0.95288-1.291-0.78321 1.4774-3.5396c0.48111-0.0432 1.2665 0.0962 1.6454 0.58486 0.46175 0.59539 1.0229 0.38287 1.1888 0.7167l9e-3 -0.25594c5e-3 -0.13706 0.0229-0.27009 0.0391-0.40429-0.13402-0.27019-0.7882-0.78043-0.89057-0.85173-0.45309-0.31554-0.96852-0.55794-1.4883-0.61133z" color="#000000" color-rendering="auto" dominant-baseline="auto" enable-background="accumulate" fill="#888a85" image-rendering="auto" solid-color="#000000" stop-color="#000000" style="font-feature-settings:normal;font-variant-alternates:normal;font-variant-caps:normal;font-variant-east-asian:normal;font-variant-ligatures:normal;font-variant-numeric:normal;font-variant-position:normal;font-variation-settings:normal;inline-size:0;isolation:auto;mix-blend-mode:normal;shape-margin:0;shape-padding:0;text-decoration-color:#000000;text-decoration-line:none;text-decoration-style:solid;text-indent:0;text-orientation:mixed;text-transform:none;white-space:normal"/></g><g><path d="m48.289 51.751c1.4825 0.01082 1.732-4e-3 1.8138-0.61842 0.06699-0.50302-0.80216-0.72022-1.0973-0.15754-0.23833 0.45436-0.7165 0.77596-0.7165 0.77596z" color="#000000" fill="url(#radialGradient97313-1)"/><ellipse cx="49.43" cy="51.026" rx=".18911" ry=".18858" color="#000000" fill="#fff" opacity=".52778"/><path d="m50.181 49.898-0.36068 0.70132" color="#000000" fill="none" stroke="#fff" stroke-linecap="round" stroke-linejoin="round" stroke-width=".12545"/></g><g transform="matrix(.74751 0 0 .74751 -13.952 1.8794)"><path d="m87.441 63.346c-0.47964 0-0.84208 0.41979-0.84208 0.90094v0.64658c0 0.48114 0.36243 0.90093 0.84208 0.90093h0.12326c0.47964 0 0.84337-0.41979 0.84337-0.90093v-0.64658c0-0.48115-0.36373-0.90094-0.84337-0.90094zm0 0.45427h0.12326c0.19689 0 0.37756 0.18036 0.37756 0.44667v0.64658c0 0.26631-0.18067 0.44793-0.37756 0.44793h-0.12326c-0.1969 0-0.37758-0.18162-0.37758-0.44793v-0.64658c0-0.26631 0.18068-0.44667 0.37758-0.44667z" color="#000000" color-rendering="auto" dominant-baseline="auto" enable-background="accumulate" fill="#494949" image-rendering="auto" shape-rendering="auto" solid-color="#000000" stop-color="#000000" stroke="#ccc" stroke-linecap="round" stroke-linejoin="round" stroke-width=".13121" style="font-feature-settings:normal;font-variant-alternates:normal;font-variant-caps:normal;font-variant-east-asian:normal;font-variant-ligatures:normal;font-variant-numeric:normal;font-variant-position:normal;font-variation-settings:normal;inline-size:0;isolation:auto;mix-blend-mode:normal;paint-order:fill markers stroke;shape-margin:0;shape-padding:0;text-decoration-color:#000000;text-decoration-line:none;text-decoration-style:solid;text-indent:0;text-orientation:mixed;text-transform:none;white-space:normal"/><g fill="#ccc" shape-rendering="auto"><path d="m87.441 63.346c-0.47964 0-0.84208 0.41979-0.84208 0.90094v0.64658c0 0.48114 0.36243 0.90093 0.84208 0.90093h0.12326c0.47964 0 0.84337-0.41979 0.84337-0.90093v-0.64658c0-0.48115-0.36373-0.90094-0.84337-0.90094zm0 0.45427h0.12326c0.19689 0 0.37756 0.18036 0.37756 0.44667v0.64658c0 0.26631-0.18067 0.44793-0.37756 0.44793h-0.12326c-0.1969 0-0.37758-0.18162-0.37758-0.44793v-0.64658c0-0.26631 0.18068-0.44667 0.37758-0.44667z" color="#000000" color-rendering="auto" dominant-baseline="auto" enable-background="accumulate" image-rendering="auto" solid-color="#000000" stop-color="#000000" style="font-feature-settings:normal;font-variant-alternates:normal;font-variant-caps:normal;font-variant-east-asian:normal;font-variant-ligatures:normal;font-variant-numeric:normal;font-variant-position:normal;font-variation-settings:normal;inline-size:0;isolation:auto;mix-blend-mode:normal;paint-order:fill markers stroke;shape-margin:0;shape-padding:0;text-decoration-color:#000000;text-decoration-line:none;text-decoration-style:solid;text-indent:0;text-orientation:mixed;text-transform:none;white-space:normal"/><path d="m87.441 63.279c-0.51792 0-0.9082 0.4527-0.9082 0.9668v0.64648c0 0.51408 0.39028 0.9668 0.9082 0.9668h0.12305c0.51791 0 0.91016-0.45259 0.91016-0.9668v-0.64648c0-0.51421-0.39224-0.9668-0.91016-0.9668zm0 0.13281h0.12305c0.44136 0 0.77734 0.3859 0.77734 0.83398v0.64648c0 0.44808-0.33599 0.83594-0.77734 0.83594h-0.12305c-0.44137 0-0.77734-0.38774-0.77734-0.83594v-0.64648c0-0.4482 0.33598-0.83398 0.77734-0.83398zm0 0.32227c-0.23696 0-0.44336 0.21574-0.44336 0.51172v0.64648c0 0.29598 0.20612 0.51367 0.44336 0.51367h0.12305c0.23724 0 0.44336-0.21769 0.44336-0.51367v-0.64648c0-0.29598-0.2064-0.51172-0.44336-0.51172zm0 0.13086h0.12305c0.15683 0 0.3125 0.14422 0.3125 0.38086v0.64648c0 0.23663-0.15595 0.38281-0.3125 0.38281h-0.12305c-0.15656 0-0.3125-0.14618-0.3125-0.38281v-0.64648c0-0.23663 0.15566-0.38086 0.3125-0.38086z" color="#000000" color-rendering="auto" dominant-baseline="auto" enable-background="accumulate" image-rendering="auto" solid-color="#000000" stop-color="#000000" style="font-feature-settings:normal;font-variant-alternates:normal;font-variant-caps:normal;font-variant-east-asian:normal;font-variant-ligatures:normal;font-variant-numeric:normal;font-variant-position:normal;font-variation-settings:normal;inline-size:0;isolation:auto;mix-blend-mode:normal;paint-order:fill markers stroke;shape-margin:0;shape-padding:0;text-decoration-color:#000000;text-decoration-line:none;text-decoration-style:solid;text-indent:0;text-orientation:mixed;text-transform:none;white-space:normal"/></g><path d="m86.828 63.87c0.0033-0.01617 0.19963-0.25064 0.19963-0.25064" fill="none" stroke="#ccc" stroke-linecap="round" stroke-width=".20499"/></g><g><path d="m50.669 50.369c-0.22063 0-0.39836 0.17773-0.39836 0.39836v0.98612h2.3733v-0.98612c0-0.22063-0.17729-0.39836-0.39791-0.39836z" fill="#dbb458" style="paint-order:stroke markers fill"/><path d="m52.186 50.369v1.3844h0.45813v-0.98619c0-0.22063-0.17725-0.39826-0.39788-0.39826z" fill="#c48319" style="paint-order:stroke markers fill"/><path d="m50.669 50.369c-0.22063 0-0.39865 0.17763-0.39865 0.39826v0.98619h0.45852v-1.3844z" fill="#e6ca74" style="paint-order:stroke markers fill"/></g></g></g></g></g></g></g></g></svg>
