<?xml version="1.0" encoding="UTF-8" standalone="no"?>
<svg
   xmlns:dc="http://purl.org/dc/elements/1.1/"
   xmlns:cc="http://creativecommons.org/ns#"
   xmlns:rdf="http://www.w3.org/1999/02/22-rdf-syntax-ns#"
   xmlns:svg="http://www.w3.org/2000/svg"
   xmlns="http://www.w3.org/2000/svg"
   xmlns:sodipodi="http://sodipodi.sourceforge.net/DTD/sodipodi-0.dtd"
   xmlns:inkscape="http://www.inkscape.org/namespaces/inkscape"
   id="svg2"
   width="16"
   height="16"
   enable-background="new 0 0 128 129.396"
   overflow="visible"
   version="1.0"
   viewBox="0 0 16 16"
   xml:space="preserve"
   sodipodi:docname="go-home.svg"
   inkscape:version="0.92.4 (unknown)"><defs
     id="defs16" /><sodipodi:namedview
     pagecolor="#ffffff"
     bordercolor="#666666"
     borderopacity="1"
     objecttolerance="10"
     gridtolerance="10"
     guidetolerance="10"
     inkscape:pageopacity="0"
     inkscape:pageshadow="2"
     inkscape:window-width="1375"
     inkscape:window-height="786"
     id="namedview14"
     showgrid="false"
     inkscape:zoom="37.854492"
     inkscape:cx="6.7187782"
     inkscape:cy="6.9433222"
     inkscape:window-x="65"
     inkscape:window-y="24"
     inkscape:window-maximized="1"
     inkscape:current-layer="svg2" /><metadata
     id="metadata367"><rdf:RDF><cc:Work
         rdf:about=""><dc:format>image/svg+xml</dc:format><dc:type
           rdf:resource="http://purl.org/dc/dcmitype/StillImage" /><cc:license
           rdf:resource="http://creativecommons.org/publicdomain/zero/1.0/" /><dc:title></dc:title><dc:creator><cc:Agent><dc:title /></cc:Agent></dc:creator><dc:source /><dc:subject><rdf:Bag /></dc:subject></cc:Work><cc:License
         rdf:about="http://creativecommons.org/publicdomain/zero/1.0/"><cc:permits
           rdf:resource="http://creativecommons.org/ns#Reproduction" /><cc:permits
           rdf:resource="http://creativecommons.org/ns#Distribution" /><cc:permits
           rdf:resource="http://creativecommons.org/ns#DerivativeWorks" /></cc:License></rdf:RDF></metadata><g
     id="g4339"
     transform="translate(-1.3056,2.2644)"><path
       id="rect1512"
       d="m 8.5122,0.6808 h 1.988 c 0.28021,0 4.8055,5.735 4.8055,6.0548 l -0.02448,6.1748 c 0,0.3198 -0.12638,0.64894 -0.4066,0.64894 l -10.891,0.0046 c -0.28021,0 -0.5058,-0.25745 -0.5058,-0.57725 l 0.018847,-6.5337 c 0,-0.3198 4.7358,-5.7721 5.016,-5.7721 z"
       style="color:#000000;fill:#eeeeec;stroke:none;stroke-width:0.34333"
       inkscape:connector-curvature="0" /><path
       id="path5"
       d="M 17.306,13.736 H 1.423 v -16 h 15.883 z"
       style="fill:none;stroke-width:0.35170999"
       inkscape:connector-curvature="0" /><path
       id="path342"
       d="m 9.4157,1.6711 6.6325,6.0611 0.17335,0.13838 0.14146,-0.0605 L 16.23235,7.5412 16.13506,7.46233 9.41576,1.96523 2.62126,7.52273 2.537998,7.5736 2.462058,7.8231 2.613938,7.86872 2.748698,7.75984 Z"
       style="fill:url(#XMLID_39_);stroke-width:0.35170999"
       inkscape:connector-curvature="0" /><path
       id="path362"
       d="M 9.3745,-1.6076 1.7066,4.7823 1.48768,7.3119 2.1885,8.04062 c 0,0 7.1512,-6.0566 7.2272,-6.1169 l 6.8797,6.1929 0.66525,-0.82039 -0.56621,-2.5104 -6.9787,-6.4304 z"
       style="fill:#ef2929;stroke:none;stroke-width:0.35170999"
       inkscape:connector-curvature="0" /><path
       id="path1536"
       d="M 1.8443,4.8672 1.74213,7.2053 9.38813,0.7607 9.363486,-1.3197 Z"
       style="color:#000000;opacity:0.40909005;fill-opacity:0"
       inkscape:connector-curvature="0" /><path
       id="path2337"
       d="m 9.4283,0.67976 0.034853,-2.0619 6.7733,6.2313 0.52277,2.2948 z"
       style="color:#000000;opacity:0.13636002;fill-opacity:0"
       inkscape:connector-curvature="0" /><path
       id="rect2361"
       d="m 10.346,7.3759 h 3.1678 c 0.27003,0 0.48743,0.219 0.48743,0.49102 l -0.0028,3.205 c 0,0.27203 -0.20897,0.4469 -0.479,0.4469 h -3.1735 c -0.27004,0 -0.48743,-0.219 -0.48743,-0.49102 V 7.8669 c 0,-0.27203 0.21739,-0.49102 0.48743,-0.49102 z"
       style="color:#000000;opacity:0.31818004;fill:none;stroke:none;stroke-width:0.35170999"
       inkscape:connector-curvature="0" /><rect
       id="rect3263"
       x="9.4877005"
       y="7.9176998"
       width="3.6357999"
       height="3.6357999"
       rx="0.13861001"
       ry="0.13914999"
       style="color:#000000;fill:#3465a4;stroke:none;stroke-width:0.36423999;stroke-linecap:square" /><path
       id="path188-3"
       d="m 8.1157,7.9255 v 5.6202 H 4.5639 L 4.495489,7.9255 Z"
       style="clip-rule:evenodd;fill:#999999;fill-rule:evenodd;stroke:none;stroke-width:0.37983;stroke-linecap:round"
       inkscape:connector-curvature="0" /></g></svg>