<?xml version="1.0" encoding="UTF-8" standalone="no"?>
<!-- Created with Inkscape (http://www.inkscape.org/) -->

<svg
   xmlns:dc="http://purl.org/dc/elements/1.1/"
   xmlns:cc="http://creativecommons.org/ns#"
   xmlns:rdf="http://www.w3.org/1999/02/22-rdf-syntax-ns#"
   xmlns:svg="http://www.w3.org/2000/svg"
   xmlns="http://www.w3.org/2000/svg"
   xmlns:sodipodi="http://sodipodi.sourceforge.net/DTD/sodipodi-0.dtd"
   xmlns:inkscape="http://www.inkscape.org/namespaces/inkscape"
   id="svg1"
   width="16"
   height="16"
   version="1.0"
   viewBox="0 0 16 16"
   sodipodi:docname="gtk-select-font.svg"
   inkscape:version="0.92.4 (unknown)">
  <defs
     id="defs13" />
  <sodipodi:namedview
     pagecolor="#ffffff"
     bordercolor="#666666"
     borderopacity="1"
     objecttolerance="10"
     gridtolerance="10"
     guidetolerance="10"
     inkscape:pageopacity="0"
     inkscape:pageshadow="2"
     inkscape:window-width="1375"
     inkscape:window-height="786"
     id="namedview11"
     showgrid="false"
     inkscape:zoom="37.854492"
     inkscape:cx="8"
     inkscape:cy="8"
     inkscape:window-x="65"
     inkscape:window-y="24"
     inkscape:window-maximized="1"
     inkscape:current-layer="svg1" />
  <metadata
     id="metadata162">
    <rdf:RDF>
      <cc:Work
         rdf:about="">
        <dc:format>image/svg+xml</dc:format>
        <dc:type
           rdf:resource="http://purl.org/dc/dcmitype/StillImage" />
        <dc:title></dc:title>
        <dc:creator>
          <cc:Agent>
            <dc:title />
          </cc:Agent>
        </dc:creator>
        <dc:date>2005-02-01</dc:date>
        <cc:license
           rdf:resource="http://creativecommons.org/licenses/GPL/2.0/" />
        <dc:identifier />
        <dc:subject>
          <rdf:Bag>
            <rdf:li>folder</rdf:li>
            <rdf:li>directory</rdf:li>
            <rdf:li>storage</rdf:li>
          </rdf:Bag>
        </dc:subject>
      </cc:Work>
      <cc:License
         rdf:about="http://creativecommons.org/licenses/GPL/2.0/">
        <cc:permits
           rdf:resource="http://web.resource.org/cc/Reproduction" />
        <cc:permits
           rdf:resource="http://web.resource.org/cc/Distribution" />
        <cc:requires
           rdf:resource="http://web.resource.org/cc/Notice" />
        <cc:permits
           rdf:resource="http://web.resource.org/cc/DerivativeWorks" />
        <cc:requires
           rdf:resource="http://web.resource.org/cc/ShareAlike" />
        <cc:requires
           rdf:resource="http://web.resource.org/cc/SourceCode" />
      </cc:License>
    </rdf:RDF>
  </metadata>
  <g
     id="layer2"
     transform="translate(0,-6)">
    <g
       id="g4257">
      <rect
         id="rect1934"
         x="0.49383"
         y="6.4938002"
         width="15.012"
         height="15.012"
         rx="1.4297"
         ry="1.4297"
         style="color:#000000;fill:#d3d7cf;fill-rule:evenodd;stroke:#d3d7cf;stroke-linecap:square;stroke-linejoin:round;stroke-opacity:1" />
      <rect
         id="rect2823"
         x="1.4994"
         y="7.4994001"
         width="13.001"
         height="13.001"
         rx="0.70564997"
         ry="0.70564997"
         style="color:#000000;fill:none;stroke:none;stroke-width:0.99888998;stroke-linecap:square;stroke-linejoin:round" />
      <path
         id="text2841"
         d="m 5.7542,10.983 c -0.70719,3e-6 -1.1971,0.07228 -1.4699,0.21684 -0.27273,0.14456 -0.40909,0.39116 -0.40909,0.7398 -1.5e-6,0.27778 0.10148,0.49887 0.30444,0.66326 0.20613,0.16157 0.4852,0.24235 0.83721,0.24235 0.4852,10e-7 0.87368,-0.15306 1.1654,-0.45918 0.29492,-0.30896 0.44238,-0.71854 0.44239,-1.2287 V 10.98305 H 5.75414 m 1.7458,-0.32313 v 2.7168 H 6.62468 v -0.72279 c -0.19979,0.28912 -0.44874,0.50312 -0.74683,0.64201 -0.2981,0.13605 -0.66279,0.20408 -1.0941,0.20408 -0.54546,0 -0.97992,-0.13605 -1.3034,-0.40816 -0.3203,-0.27494 -0.48044,-0.64201 -0.48044,-1.1012 -8e-7,-0.53571 0.19979,-0.93962 0.59937,-1.2117 0.40275,-0.2721 1.0021,-0.40816 1.7981,-0.40816 h 1.2273 V 10.29426 C 6.624675,9.9343 6.49148,9.65652 6.2251,9.46094 5.96188,9.26253 5.59085,9.16333 5.112,9.16332 4.80756,9.1633242 4.51105,9.19592 4.22246,9.261109 3.93388,9.326305 3.65639,9.424099 3.39001,9.554479 V 8.831689 C 3.7103,8.721149 4.02109,8.638949 4.32236,8.585089 4.62363,8.528404 4.91697,8.50006 5.20238,8.500055 c 0.77061,5e-6 1.3462,0.17858 1.7267,0.53571 0.38055,0.35715 0.57082,0.89853 0.57083,1.6241"
         inkscape:connector-curvature="0" />
      <path
         id="text2849"
         d="m 11.479,14.934 c 0.31891,1e-6 0.56156,-0.11482 0.72795,-0.34448 0.16916,-0.22965 0.25374,-0.5632 0.25374,-1.0006 -4e-6,-0.43743 -0.08459,-0.77098 -0.25374,-1.0006 -0.16639,-0.22965 -0.40904,-0.34448 -0.72795,-0.34448 -0.31892,5e-6 -0.56434,0.1162 -0.73627,0.34858 -0.16917,0.22966 -0.25375,0.56183 -0.25374,0.99653 -3e-6,0.4347 0.08457,0.76824 0.25374,1.0006 0.17193,0.22965 0.41736,0.34448 0.73627,0.34448 m -0.99002,-2.9732 c 0.20521,-0.26792 0.43261,-0.46477 0.68219,-0.59054 0.24958,-0.12849 0.5366,-0.19274 0.86107,-0.19274 0.57404,4e-6 1.0455,0.22556 1.4143,0.67666 0.36882,0.44837 0.55324,1.0266 0.55324,1.7347 -6e-6,0.7081 -0.18442,1.2877 -0.55324,1.7388 -0.36884,0.44837 -0.84027,0.67255 -1.4143,0.67255 -0.32446,0 -0.61148,-0.06288 -0.86107,-0.18864 -0.24959,-0.1285 -0.47698,-0.32671 -0.68219,-0.59464 v 0.66435 h -1.4892 v -6.3811 h 1.4892 v 2.4606"
         inkscape:connector-curvature="0" />
      <path
         id="text2853"
         d="m 7.512,17.948 c -0.23749,0.5055 -0.56607,0.89057 -0.98573,1.1552 -0.41967,0.26464 -0.91579,0.39697 -1.4883,0.39697 -0.75475,0 -1.3111,-0.22748 -1.6689,-0.68243 -0.35786,-0.45792 -0.45545,-1.0645 -0.29279,-1.8198 0.16591,-0.75825 0.52702,-1.3634 1.0833,-1.8153 0.55955,-0.45494 1.2167,-0.68242 1.9715,-0.68242 0.32857,4e-6 0.64739,0.03569 0.95645,0.10705 0.3123,0.06839 0.61648,0.17396 0.91253,0.31668 l -0.26351,1.2132 H 7.21441 C 7.237177,15.72086 7.154221,15.41756 6.96554,15.22725 6.7801,15.03695 6.4743,14.9418 6.04813,14.94179 c -0.48473,4e-6 -0.88976,0.17247 -1.2151,0.5174 -0.32207,0.34196 -0.55793,0.8549 -0.70758,1.5388 -0.14965,0.68391 -0.13989,1.1983 0.029279,1.5433 0.17242,0.34493 0.50262,0.5174 0.99061,0.5174 0.38713,1e-6 0.7157,-0.09218 0.98573,-0.27654 0.27327,-0.18436 0.49286,-0.46238 0.65878,-0.83408 h 0.72222"
         inkscape:connector-curvature="0" />
    </g>
  </g>
</svg>
