<?xml version="1.0" encoding="UTF-8"?>
<!-- Created with Inkscape (http://www.inkscape.org/) -->
<svg width="4.2333mm" height="4.2333mm" version="1.1" viewBox="0 0 4.2333 4.2333" xml:space="preserve" xmlns="http://www.w3.org/2000/svg" xmlns:xlink="http://www.w3.org/1999/xlink"><g transform="translate(-145.2 -318.67)"><g transform="matrix(.26458 0 0 .26458 108.89 192.44)"><g transform="matrix(3.7795 0 0 3.7795 -629.71 114.01)"><g transform="translate(126.05 10.94)"><g transform="matrix(.74751 0 0 .74751 -7.2186 .23371)"><g transform="matrix(.35395 0 0 .35395 84.28 -305.23)"><rect x="82.783" y="1186.3" width="9.9879" height="9.9438" rx="0" fill="#b1b3b0"/><g transform="translate(79.726 1183.2)" fill="none"><g><path d="m0 4c0-2.2091 1.7909-4 4-4h8c2.2091 0 4 1.7909 4 4v8c0 2.2091-1.7909 4-4 4h-8c-2.2091 0-4-1.7909-4-4z" fill="#b1b3b0"/><path d="m1 4c0-1.6568 1.3432-3 3-3h8c1.6569 0 3 1.3432 3 3v8c0 1.6569-1.3431 3-3 3h-8c-1.6568 0-3-1.3431-3-3z" fill="#f0f1f0"/><path d="m4 4h8v2.5926l1-0.99905v-2.5936h-10v10h2.5841l1.0055-1h-2.5896z" fill="#b1b3b0"/></g><path d="m6.5 13.5h6.5v-0.5h-6zm-0.91797-0.5h-2.582v0.5h2.082z" fill="#fff"/><path d="m13 7v6h-6l2.2549-2.2549-1.8998-1.8916c-0.19599-0.19513-0.19634-0.51231-7.7e-4 -0.70788l0.79411-0.79411c0.19448-0.19448 0.50952-0.19537 0.7051-0.00199l1.9092 1.8877z" fill="#7b7d78"/><path d="m13 7v6h-6l2.2549-2.2549-1.8998-1.8916c-0.19599-0.19513-0.19634-0.51231-7.7e-4 -0.70788l0.79411-0.79411c0.19448-0.19448 0.50952-0.19537 0.7051-0.00199l1.9092 1.8877z" fill="#224573"/><path d="m13 13v-6l-2.2373 2.2373-1.9092-1.8877c-0.19558-0.19338-0.51062-0.19249-0.7051 0.00199l-0.79411 0.79411c-0.19557 0.19557-0.19522 0.51275 7.7e-4 0.70788l1.8998 1.8916-2.2549 2.2549zm-0.4998-0.4999v-4.3001l-1.6324 1.6409-0.1078 0.10834-0.1087-0.10834-2.1478-2.1409-0.80326 0.79999 2.2498 2.2501-1.75 1.7501z" clip-rule="evenodd" fill="#23456f" fill-opacity=".4" fill-rule="evenodd"/></g></g></g></g></g></g></g></svg>
