<?xml version="1.0" encoding="UTF-8"?>
<!-- Created with Inkscape (http://www.inkscape.org/) -->
<svg width="4.4978mm" height="4.4978mm" version="1.1" viewBox="0 0 4.4978 4.4978" xml:space="preserve" xmlns="http://www.w3.org/2000/svg" xmlns:xlink="http://www.w3.org/1999/xlink"><defs><linearGradient id="d-3" x1="8.5" x2="8.5" y1=".5" y2="4" gradientUnits="userSpaceOnUse"><stop stop-color="#fff" offset="0"/><stop stop-color="#F5F5F5" offset="1"/></linearGradient></defs><g transform="translate(-139.22 -318.79)"><g transform="matrix(.26458 0 0 .26458 108.89 192.44)"><g transform="matrix(3.7795 0 0 3.7795 -629.71 114.01)"><g transform="translate(126.05 10.94)"><g transform="matrix(.74751 0 0 .74751 -7.2186 .23371)"><g transform="matrix(.35395 0 0 .35395 84.28 -305.23)"><g transform="matrix(.99997 0 0 .99997 57.601 1184.1)"><path d="m0 4c0-2.2091 1.7909-4 4-4h8c2.2091 0 4 1.7909 4 4v8c0 2.2091-1.7909 4-4 4h-8c-2.2091 0-4-1.7909-4-4z" fill="#f0f1f0" stroke="#b1b3b0"/><path d="m0 4h16v0.93751h-16z" fill="#b1b3b0"/><path d="m0.5 4c0-1.933 1.567-3.5 3.5-3.5h8c1.933 0 3.5 1.567 3.5 3.5z" fill="url(#d-3)"/><path d="m6.9989 6h5v5l-1.875-1.875-3.0099 3.0097 0.01104 0.0113 1.875 1.8525h-5v-5l1.8531 1.8531 3.0208-2.9991z" fill="#7b7d78"/><path d="m6.9989 6h5v5l-1.875-1.875-3.0099 3.0097 0.01104 0.0113 1.875 1.8525h-5v-5l1.8531 1.8531 3.0208-2.9991z" fill="#224573"/><path d="m11.999 6h-5l1.875 1.8525-3.0208 2.9991-1.8531-1.8531v5h5l-1.875-1.8525-0.01104-0.0113 3.0099-3.0097 1.875 1.875zm-7.4989 4.2v3.3h3.3l-1.39-1.37 3.71-3.71 1.38 1.38v-3.3h-3.3l1.38 1.35-3.73 3.7z" clip-rule="evenodd" fill="#224573" fill-rule="evenodd"/></g></g></g></g></g></g></g></svg>
