<?xml version="1.0" encoding="UTF-8" standalone="no"?>
<svg
   xmlns:dc="http://purl.org/dc/elements/1.1/"
   xmlns:cc="http://creativecommons.org/ns#"
   xmlns:rdf="http://www.w3.org/1999/02/22-rdf-syntax-ns#"
   xmlns:svg="http://www.w3.org/2000/svg"
   xmlns="http://www.w3.org/2000/svg"
   xmlns:sodipodi="http://sodipodi.sourceforge.net/DTD/sodipodi-0.dtd"
   xmlns:inkscape="http://www.inkscape.org/namespaces/inkscape"
   id="svg2"
   width="16"
   height="16"
   version="1.1"
   viewBox="0 0 16 16"
   sodipodi:docname="gimp-char-picker.svg"
   inkscape:version="0.92.4 (unknown)">
  <sodipodi:namedview
     pagecolor="#ffffff"
     bordercolor="#666666"
     borderopacity="1"
     objecttolerance="10"
     gridtolerance="10"
     guidetolerance="10"
     inkscape:pageopacity="0"
     inkscape:pageshadow="2"
     inkscape:window-width="1375"
     inkscape:window-height="786"
     id="namedview17"
     showgrid="false"
     inkscape:zoom="37.854492"
     inkscape:cx="8"
     inkscape:cy="8"
     inkscape:window-x="65"
     inkscape:window-y="24"
     inkscape:window-maximized="1"
     inkscape:current-layer="svg2" />
  <metadata
     id="metadata90">
    <rdf:RDF>
      <cc:Work>
        <dc:format>image/svg+xml</dc:format>
        <dc:type
           rdf:resource="http://purl.org/dc/dcmitype/StillImage" />
        <dc:title></dc:title>
        <dc:contributor>
          <cc:Agent>
            <dc:title>many unknown and unnamed, Andrew Chadwick, Alexandre Prokoudine, Aryeom Han, Benoit Touchette, Jakub Steiner, Jehan, Johannes Matschke, Kevin Payne, Klaus Staedtler, Marek Dvoroznak, Michael Natterer</dc:title>
          </cc:Agent>
        </dc:contributor>
        <dc:description>Enhanced, extended tango-art-libre for GIMP</dc:description>
      </cc:Work>
    </rdf:RDF>
  </metadata>
  <defs
     id="defs7386">
    <radialGradient
       id="radialGradient4716"
       cx="24.5"
       cy="29.5"
       r="15.095"
       gradientTransform="matrix(.79378 0 0 .77382 -27.444 -12.511)"
       gradientUnits="userSpaceOnUse">
      <stop
         id="stop4712"
         style="stop-color:#f2f4f1"
         offset="0" />
      <stop
         id="stop4714"
         style="stop-color:#d3d7cf"
         offset="1" />
    </radialGradient>
    <linearGradient
       id="linearGradient4734"
       x1="24.095"
       x2="24.095"
       y1="12.595"
       y2="34.095"
       gradientTransform="matrix(.36616 0 0 .35695 -16.819 -.068958)"
       gradientUnits="userSpaceOnUse">
      <stop
         id="stop4730"
         style="stop-color:#eeeeec"
         offset="0" />
      <stop
         id="stop4732"
         style="stop-color:#fff"
         offset="1" />
    </linearGradient>
  </defs>
  <g
     id="g4246">
    <rect
       id="rect4256"
       x="-4.6259e-18"
       y="2.2563e-07"
       width="16"
       height="16"
       style="opacity:0.75;fill:none;paint-order:stroke fill markers" />
    <rect
       id="rect2960"
       x="1.1819"
       y="1.1819"
       width="13.636"
       height="13.636"
       rx="1.6709"
       ry="1.6709"
       style="color:#000000;display:block;fill:#d3d7cf;stroke:none;stroke-width:0.36383" />
    <rect
       id="rect3835"
       transform="scale(-1,1)"
       x="-13.341"
       y="2.2512"
       width="10.689"
       height="10.42"
       rx="1.3097"
       ry="1.2768"
       style="color:#000000;display:block;fill:#d3d7cf;stroke:none;stroke-width:0.36383;fill-opacity:1" />
    <path
       id="text4736"
       d="M 11.107,10.367 H 10.3338 V 9.87356 C 10.02558,10.27245 9.61905,10.4719 9.1142,10.4719 8.71033,10.4719 8.39015,10.3657 8.15368,10.1533 7.91986,9.93831 7.80295,9.65209 7.80295,9.29464 7.8029496,9.05116 7.850776,8.84006 7.94643,8.66133 8.044741,8.48261 8.19088,8.33755 8.38484,8.22617 8.58146,8.11479 8.83654,8.03968 9.15007,8.00082 l 1.1837,-0.15541 c -3e-6,-0.30564 -0.06643,-0.53488 -0.19928,-0.6877 C 10.00429,7.00489 9.809,6.92848 9.54861,6.92848 9.33339,6.9284837 9.10355,6.968632 8.8591,7.04893 8.61731,7.12923 8.40076,7.24579 8.20945,7.39861 V 6.6332 c 0.49687,-0.24348 0.96451,-0.36522 1.4029,-0.36522 0.48358,3.9e-6 0.85291,0.13081 1.108,0.39242 0.25773,0.26162 0.3866,0.63202 0.3866,1.1112 V 10.367 M 10.33375,8.8634 V 8.40882 C 9.66948,8.491708 9.29485,8.53963 9.20985,8.55258 9.12748,8.565534 9.02518,8.59791 8.90296,8.649713 8.78339,8.701519 8.69837,8.770163 8.64788,8.855633 8.600052,8.941111 8.576139,9.065443 8.57614,9.228623 c -1.1e-6,0.18391 0.066426,0.33414 0.19928,0.4507 0.13551,0.11397 0.3122,0.17096 0.53008,0.17095 0.27102,1e-6 0.51015,-0.094543 0.7174,-0.28363 0.20725,-0.18909 0.31087,-0.4235 0.31088,-0.70324 m 0.33479,-4.3671 -1.0721,1.2744 H 9.06639 l 0.86487,-1.2744 h 0.73733"
       inkscape:connector-curvature="0" />
    <rect
       id="rect4740"
       x="1.5319"
       y="1.5319"
       width="12.936"
       height="12.936"
       rx="1.3036"
       ry="1.2708"
       style="color:#000000;display:block;opacity:0.48888999;fill:none;stroke:none;stroke-width:0.36383" />
  </g>
</svg>
