<?xml version="1.0" encoding="UTF-8" standalone="no"?>
<!-- Created with Inkscape (http://www.inkscape.org/) -->

<svg
   xmlns:dc="http://purl.org/dc/elements/1.1/"
   xmlns:cc="http://creativecommons.org/ns#"
   xmlns:rdf="http://www.w3.org/1999/02/22-rdf-syntax-ns#"
   xmlns:svg="http://www.w3.org/2000/svg"
   xmlns="http://www.w3.org/2000/svg"
   xmlns:sodipodi="http://sodipodi.sourceforge.net/DTD/sodipodi-0.dtd"
   xmlns:inkscape="http://www.inkscape.org/namespaces/inkscape"
   id="svg11300"
   width="16"
   height="16"
   version="1.0"
   viewBox="0 0 16 16"
   sodipodi:docname="gimp-color-water.svg"
   inkscape:version="0.92.4 (unknown)">
  <defs
     id="defs25" />
  <sodipodi:namedview
     pagecolor="#ffffff"
     bordercolor="#666666"
     borderopacity="1"
     objecttolerance="10"
     gridtolerance="10"
     guidetolerance="10"
     inkscape:pageopacity="0"
     inkscape:pageshadow="2"
     inkscape:window-width="1375"
     inkscape:window-height="786"
     id="namedview23"
     showgrid="false"
     inkscape:zoom="37.854492"
     inkscape:cx="8"
     inkscape:cy="8"
     inkscape:window-x="65"
     inkscape:window-y="24"
     inkscape:window-maximized="1"
     inkscape:current-layer="svg11300" />
  <metadata
     id="metadata4">
    <rdf:RDF>
      <cc:Work
         rdf:about="">
        <dc:format>image/svg+xml</dc:format>
        <dc:type
           rdf:resource="http://purl.org/dc/dcmitype/StillImage" />
        <dc:creator>
          <cc:Agent>
            <dc:title />
          </cc:Agent>
        </dc:creator>
        <dc:source>http://jimmac.musichall.cz</dc:source>
        <cc:license
           rdf:resource="http://creativecommons.org/licenses/by-sa/2.0/" />
        <dc:title></dc:title>
      </cc:Work>
      <cc:License
         rdf:about="http://creativecommons.org/licenses/by-sa/2.0/">
        <cc:permits
           rdf:resource="http://web.resource.org/cc/Reproduction" />
        <cc:permits
           rdf:resource="http://web.resource.org/cc/Distribution" />
        <cc:requires
           rdf:resource="http://web.resource.org/cc/Notice" />
        <cc:requires
           rdf:resource="http://web.resource.org/cc/Attribution" />
        <cc:permits
           rdf:resource="http://web.resource.org/cc/DerivativeWorks" />
        <cc:requires
           rdf:resource="http://web.resource.org/cc/ShareAlike" />
      </cc:License>
    </rdf:RDF>
  </metadata>
  <g
     id="layer1">
    <g
       id="g4294">
      <path
         id="path4015"
         d="M 7.2138,15.262 C 6.74484,15.202126 5.9556,15.02775 5.5724,14.89938 4.4634,14.52778 3.6936,14.04049 2.7837,13.13408 1.557,11.91198 0.9582,10.70308 0.6941,8.91528 0.43716,7.17568 0.97717,5.11218 2.066,3.67288 2.89091,2.58238 3.9098,1.77148 5.057,1.29228 7.1153,0.43251 9.3884,0.5326 11.3809,1.57073 c 1.2098,0.63029 2.416,1.864 3.03,3.0991 0.32726,0.65827 0.46834,1.07 0.6389,1.8645 0.11539,0.5375 0.13212,0.72353 0.13192,1.4666 -2.34e-4,0.95575 -0.08274,1.4657 -0.38265,2.3659 -0.36525,1.0963 -0.85656,1.8741 -1.7484,2.7682 -1.2222,1.2253 -2.4182,1.8218 -4.1838,2.0868 -0.44243,0.06639 -1.2876,0.08701 -1.6532,0.04034 z m 1.483,-2.8569 c 1.7068,-0.30961 3.107,-1.6022 3.5593,-3.2859 C 12.4023,8.57504 12.41469,7.4709 12.28013,6.9795 12.06647,6.19927 11.69929,5.5302 11.18033,4.9754 10.74475,4.50977 10.35194,4.22198 9.79693,3.9619 7.24783,2.7672 4.24473,4.21189 3.55743,6.9635 3.44112,7.42913 3.44049,8.5884 3.55631,9.0141 c 0.41618,1.5293 1.4233,2.6631 2.8244,3.1796 0.73686,0.27165 1.5664,0.34736 2.316,0.21138 z"
         style="fill:#fce94f;stroke-width:0.038901"
         inkscape:connector-curvature="0" />
      <path
         id="path4017"
         d="M 7.2138,15.262 C 5.9334,15.09853 4.8262,14.70296 3.8701,14.0674 3.21617,13.63274 2.2446,12.649 1.8031,11.9746 0.8015,10.4446 0.4076,8.4136 0.7668,6.6318 1.07787,5.0887 1.7748,3.8231 2.9191,2.7237 3.9717,1.7122 5.0196,1.1752 6.5819,0.8467 7.28029,0.69982 8.4986,0.68738 9.1346,0.82064 c 0.51364,0.10762 1.4571,0.42069 1.9394,0.64359 0.94152,0.43507 2.0743,1.404 2.7527,2.3545 0.50774,0.71146 1.1471,2.1546 1.0137,2.2881 C 14.77854,6.168699 12.4521,6.79444 12.3548,6.77541 12.31367,6.76737 12.24278,6.65137 12.19726,6.51764 11.70398,5.06844 10.38936,3.91614 8.89126,3.61984 8.4822,3.538938 8.25557,3.523089 7.74886,3.539946 7.17812,3.558934 7.0639,3.578699 6.57216,3.743576 c -1.6464,0.55203 -2.7694,1.8329 -3.0587,3.4885 -0.092782,0.53103 -0.068859,1.3563 0.052448,1.8093 0.70707,2.6404 3.3862,4.0739 5.8912,3.1522 0.6457,-0.2376 1.1785,-0.58609 1.7857,-1.1681 0.34061,-0.32644 0.81094,-1.1137 0.95718,-1.6022 0.03864,-0.12907 0.09094,-0.20728 0.13927,-0.2083 0.04257,-8.909e-4 0.63213,0.146 1.3101,0.32642 l 1.2327,0.32804 -0.02311,0.17203 c -0.03808,0.28355 -0.41155,1.1804 -0.67212,1.6141 -0.34737,0.57812 -0.72076,1.0498 -1.2818,1.6191 -1.0537,1.0693 -2.3481,1.6935 -4.0379,1.9471 -0.44243,0.06639 -1.2876,0.08701 -1.6532,0.04034 z"
         style="fill:#8ae234;stroke-width:0.038901"
         inkscape:connector-curvature="0" />
      <path
         id="path4019"
         d="M 7.2138,15.265 C 5.2322,14.96964 4.0609,14.4062 2.7838,13.1339 2.3142,12.66609 2.05596,12.36078 1.80305,11.9745 1.00722,10.7588 0.57505,9.1793 0.64255,7.7332 0.732252,5.8125 1.49299,4.1061 2.84505,2.7926 3.89665,1.7711 4.97055,1.2016 6.46925,0.8707 6.9861,0.75661 7.1809,0.73818 7.89455,0.73583 c 0.94753,-0.003112 1.309,0.056029 2.2342,0.36557 1.2391,0.41455 1.9853,0.87136 2.8468,1.7428 0.65298,0.66049 1.0465,1.1915 1.3891,1.8745 0.29304,0.58414 0.54468,1.3187 0.47546,1.3879 -0.06186,0.061869 -2.3883,0.68761 -2.4856,0.66858 -0.04113,-0.00804 -0.11202,-0.12404 -0.15754,-0.25777 -0.49328,-1.4492 -1.8079,-2.6015 -3.306,-2.8978 -0.60243,-0.11915 -1.5799,-0.10748 -2.0591,0.024586 -1.6315,0.44957 -2.8717,1.7067 -3.2745,3.3192 -0.11631,0.46563 -0.11694,1.6249 -0.00112,2.0506 0.41621,1.5295 1.4242,2.6641 2.8244,3.1794 0.76609,0.2819 1.5235,0.3469 2.3682,0.20326 0.78276,-0.1331 1.4839,-0.46578 2.1321,-1.0117 l 0.21512,-0.18117 0.95964,0.95887 c 0.5278,0.52738 0.94954,0.98516 0.93721,1.0173 -0.03215,0.0838 -0.48037,0.46294 -0.9245,0.78202 -0.73412,0.52741 -1.9232,1.0276 -2.8856,1.2139 -0.39702,0.07683 -1.6665,0.13435 -1.9692,0.08923 z"
         style="fill:#edd400;stroke-width:0.038901"
         inkscape:connector-curvature="0" />
      <path
         id="path4021"
         d="M 7.2138,15.265 C 5.2322,14.96964 4.0609,14.4062 2.7838,13.1339 2.3142,12.66609 2.05596,12.36078 1.80305,11.9745 1.00722,10.7588 0.57505,9.1793 0.64255,7.7332 0.732252,5.8125 1.49299,4.1061 2.84505,2.7926 3.89665,1.7711 4.97055,1.2016 6.46925,0.8707 6.9861,0.75661 7.1809,0.73818 7.89455,0.73583 c 1.1392,-0.003739 1.3728,0.046551 2.7901,0.60073 0.53288,0.20836 1.0776,0.51059 1.5241,0.84556 0.28995,0.21755 0.6856,0.5716 0.74356,0.66539 0.0378,0.061163 -1.7543,1.8949 -1.8519,1.8949 -0.02903,0 -0.10583,-0.056762 -0.17066,-0.12614 C 10.60197,4.26552 9.56865,3.70549 9.15625,3.65511 9.05061,3.642203 8.81316,3.605197 8.62858,3.572875 8.20615,3.498903 7.21998,3.538274 6.83188,3.644605 c -1.6284,0.44612 -2.8717,1.7062 -3.2745,3.3188 -0.11631,0.46563 -0.11694,1.6249 -0.00112,2.0506 0.41621,1.5295 1.4242,2.6641 2.8244,3.1794 0.76609,0.2819 1.5235,0.3469 2.3682,0.20326 0.78276,-0.1331 1.4839,-0.46578 2.1321,-1.0117 l 0.21512,-0.18117 0.95964,0.95887 c 0.5278,0.52738 0.94954,0.98516 0.93721,1.0173 -0.03215,0.0838 -0.48037,0.46294 -0.9245,0.78202 -0.73412,0.52741 -1.9232,1.0276 -2.8856,1.2139 -0.39702,0.07683 -1.6665,0.13435 -1.9692,0.08923 z"
         style="fill:#fcaf3e;stroke-width:0.038901"
         inkscape:connector-curvature="0" />
      <path
         id="path4023"
         d="M 7.2138,15.265 C 5.2322,14.96964 4.0609,14.4062 2.7838,13.1339 1.5571,11.9118 0.9583,10.7029 0.6942,8.9151 0.49461,7.5638 0.783851,5.9508 1.46285,4.6287 2.14956,3.2916 3.46735,2.0328 4.83125,1.4111 5.87305,0.93624 7.44915,0.64134 8.39285,0.74468 8.8806,0.798088 9.69695,0.96088 9.75165,1.01566 9.786551,1.050565 9.14739,3.47406 9.08212,3.55426 9.05234,3.590872 8.93571,3.587861 8.68597,3.544033 c -0.77082,-0.13527 -1.4973,-0.06696 -2.2259,0.20932 -0.67982,0.25777 -1.1753,0.566 -1.6331,1.0159 -0.63223,0.62132 -1.0624,1.3648 -1.2696,2.1941 -0.11631,0.46563 -0.11694,1.6249 -0.00112,2.0506 0.41621,1.5295 1.4242,2.6641 2.8244,3.1794 0.76609,0.2819 1.5235,0.3469 2.3682,0.20326 0.78276,-0.1331 1.4839,-0.46578 2.1321,-1.0117 l 0.21512,-0.18117 0.95964,0.95887 c 0.5278,0.52738 0.94954,0.98516 0.93721,1.0173 -0.03215,0.0838 -0.48037,0.46294 -0.9245,0.78202 -0.73412,0.52741 -1.9232,1.0276 -2.8856,1.2139 -0.39702,0.07683 -1.6665,0.13435 -1.9692,0.08923 z"
         style="fill:#729fcf;stroke-width:0.038901"
         inkscape:connector-curvature="0" />
      <path
         id="path4025"
         d="M 9.4539,13.726 C 9.2686,13.02408 9.10981,12.4279 9.10105,12.4011 9.09229,12.37435 9.25484,12.29259 9.46228,12.21941 c 0.44824,-0.15814 0.86848,-0.39931 1.3127,-0.75336 l 0.32505,-0.25906 0.95774,0.95698 c 0.52676,0.52634 0.94765,0.98327 0.93532,1.0154 -0.0755,0.19677 -1.1503,0.97784 -1.783,1.2958 -0.41126,0.20664 -1.2516,0.52825 -1.3779,0.52734 -0.022798,-1.55e-4 -0.19306,-0.5746 -0.37837,-1.2765 z M 5.4516,14.8109 C 4.49698,14.47418 3.7833,14.03028 2.8864,13.2153 1.7455,12.1786 1.0894,10.9849 0.762,9.3499 0.61657,8.62371 0.60703,7.4756 0.740476,6.7601 c 0.28923,-1.5507 1.0261,-2.9408 2.0957,-3.9534 1.1327,-1.0723 2.0951,-1.5822 3.5688,-1.8906 0.87921,-0.18401 1.437,-0.23224 1.988,-0.1719 0.48775,0.053408 1.3041,0.2162 1.3588,0.27098 0.034901,0.034905 -0.60426,2.4584 -0.66953,2.5386 -0.02978,0.036612 -0.14641,0.033601 -0.39615,-0.010227 -0.77082,-0.13527 -1.4973,-0.06696 -2.2259,0.20932 -0.67982,0.25777 -1.1753,0.566 -1.6331,1.0159 -0.63223,0.62132 -1.0624,1.3648 -1.2696,2.1941 -0.11631,0.46563 -0.11694,1.6249 -0.00112,2.0506 0.19669,0.72279 0.66424,1.61 1.0273,1.9494 0.069366,0.06484 0.12612,0.14596 0.12612,0.18026 0,0.06856 0.53002,0.50868 0.87521,0.72676 0.12034,0.07603 0.41573,0.21848 0.65641,0.31656 0.43255,0.17627 0.43754,0.18022 0.43201,0.34238 -0.00308,0.09023 -0.14312,0.67284 -0.31121,1.2947 -0.35154,1.3005 -0.27081,1.213 -0.91059,0.98734 z"
         style="fill:#f57900;stroke-width:0.038901"
         inkscape:connector-curvature="0" />
      <path
         id="path4027"
         d="M 9.4539,13.726 C 9.2686,13.02408 9.10981,12.4279 9.10105,12.4011 9.09229,12.37435 9.25484,12.29259 9.46228,12.21941 c 0.44824,-0.15814 0.86848,-0.39931 1.3127,-0.75336 l 0.32505,-0.25906 0.95774,0.95698 c 0.52676,0.52634 0.94765,0.98327 0.93532,1.0154 -0.0755,0.19677 -1.1503,0.97784 -1.783,1.2958 -0.41126,0.20664 -1.2516,0.52825 -1.3779,0.52734 -0.022798,-1.55e-4 -0.19306,-0.5746 -0.37837,-1.2765 z M 5.4516,14.8109 C 4.49698,14.47418 3.7833,14.03028 2.8864,13.2153 1.7455,12.1786 1.0894,10.9849 0.762,9.3499 0.61657,8.62371 0.60703,7.4756 0.740476,6.7601 c 0.20166,-1.0812 0.6817,-2.225 1.2628,-3.009 0.32244,-0.43498 0.74962,-0.90571 0.82192,-0.90571 0.025449,0 0.19185,-0.13349 0.36977,-0.29664 0.38947,-0.35713 0.95777,-0.7396 1.5049,-1.0128 0.52028,-0.2598 1.2702,-0.51316 1.333,-0.45036 0.049554,0.049561 0.66918,2.312 0.66996,2.4463 2.723e-4,0.052556 -0.1002,0.11455 -0.30343,0.18716 -0.75178,0.2686 -1.2788,0.63788 -1.7838,1.2499 -0.64403,0.78058 -0.95488,1.4186 -1.1023,2.2624 -0.092782,0.53103 -0.068859,1.3563 0.052448,1.8093 0.1854,0.69234 0.659,1.5867 1.0179,1.9222 0.069366,0.06484 0.12612,0.14596 0.12612,0.18026 0,0.06856 0.53002,0.50868 0.87521,0.72676 0.12034,0.07603 0.41572,0.21848 0.65641,0.31656 0.43255,0.17627 0.43754,0.18022 0.43201,0.34238 -0.00308,0.09023 -0.14312,0.67284 -0.31121,1.2947 -0.35154,1.3005 -0.27081,1.213 -0.91059,0.98734 z"
         style="fill:#3465a4;stroke-width:0.038901"
         inkscape:connector-curvature="0" />
      <path
         id="path4029"
         d="M 9.4539,13.726 C 9.2686,13.02408 9.10981,12.4279 9.10105,12.4011 9.09229,12.37435 9.25484,12.29259 9.46228,12.21941 c 0.44824,-0.15814 0.86848,-0.39931 1.3127,-0.75336 l 0.32505,-0.25906 0.95774,0.95698 c 0.52676,0.52634 0.94765,0.98327 0.93532,1.0154 -0.0755,0.19677 -1.1503,0.97784 -1.783,1.2958 -0.41126,0.20664 -1.2516,0.52825 -1.3779,0.52734 -0.022798,-1.55e-4 -0.19306,-0.5746 -0.37837,-1.2765 z M 2.4321,12.79059 c -1.1633,-1.2438 -1.8739,-3.252 -1.7895,-5.0579 0.082048,-1.7568 0.77269,-3.445 1.895,-4.632 0.13276,-0.14042 0.26221,-0.2553 0.28766,-0.2553 0.025449,0 0.19185,-0.13349 0.36977,-0.29664 0.38947,-0.35713 0.95777,-0.7396 1.5049,-1.0128 0.52028,-0.2598 1.2702,-0.51316 1.333,-0.45036 0.049554,0.049561 0.66918,2.312 0.66996,2.4463 2.723e-4,0.052556 -0.1002,0.11455 -0.30343,0.18716 -0.75178,0.2686 -1.2788,0.63788 -1.7838,1.2499 -0.64403,0.78058 -0.95488,1.4186 -1.1023,2.2624 -0.092782,0.53103 -0.068859,1.3563 0.052448,1.8093 0.18585,0.69401 0.55992,1.4126 0.97394,1.8709 0.11937,0.13214 0.1686,0.22604 0.14971,0.28555 -0.034232,0.10787 -1.8361,1.909 -1.9097,1.909 -0.028761,0 -0.18516,-0.14206 -0.34756,-0.31568 z"
         style="fill:#73d216;stroke-width:0.038901"
         inkscape:connector-curvature="0" />
      <path
         id="path4031"
         d="M 2.432,12.791 C 1.2687,11.5472 0.5581,9.539 0.6425,7.7331 0.724548,5.9763 1.41519,4.2881 2.5375,3.1011 2.67026,2.96068 2.79971,2.8458 2.82516,2.8458 2.850609,2.8458 3.01701,2.71231 3.19493,2.54916 3.5844,2.19203 4.1527,1.80956 4.69983,1.53636 5.22011,1.27656 5.97003,1.0232 6.03283,1.086 c 0.049554,0.049561 0.66918,2.312 0.66996,2.4463 2.723e-4,0.052556 -0.1002,0.11455 -0.30343,0.18716 -0.75178,0.2686 -1.2788,0.63788 -1.7838,1.2499 -0.64403,0.78058 -0.95488,1.4186 -1.1023,2.2624 -0.092782,0.53103 -0.068859,1.3563 0.052448,1.8093 0.18585,0.69401 0.55992,1.4126 0.97394,1.8709 0.11937,0.13214 0.1686,0.22604 0.14971,0.28555 -0.034232,0.10787 -1.8361,1.909 -1.9097,1.909 -0.028761,0 -0.18516,-0.14206 -0.34756,-0.31568 z"
         style="fill:#ad7fa8;stroke-width:0.038901"
         inkscape:connector-curvature="0" />
      <path
         id="path4033"
         d="M 2.4431,12.712 C 1.82382,11.98781 1.3713,11.1961 1.0891,10.343 1.003513,10.08431 0.97182,9.92063 1.001557,9.89088 c 0.049446,-0.049453 2.3168,-0.67355 2.4485,-0.67397 0.052066,-1.556e-4 0.12884,0.13136 0.23405,0.40095 0.18587,0.47629 0.50322,1.0015 0.81407,1.3473 l 0.22492,0.2502 -0.89406,0.90081 c -0.49173,0.49545 -0.92942,0.92027 -0.97264,0.94406 -0.061886,0.03407 -0.14967,-0.03988 -0.41329,-0.34817 z M 2.25425,6.4838 C 1.55894,6.29707 0.96935,6.12441 0.94395,6.10013 0.845544,6.005825 1.33684,4.77273 1.70745,4.18383 c 0.33424,-0.5311 1.0082,-1.3377 1.1177,-1.3377 0.025449,0 0.19185,-0.13349 0.36977,-0.29664 0.38947,-0.35713 0.95777,-0.7396 1.5049,-1.0128 0.52028,-0.2598 1.2702,-0.51316 1.333,-0.45036 0.049554,0.049561 0.66918,2.312 0.66996,2.4463 C 6.7030523,3.585186 6.60258,3.64718 6.39935,3.71979 5.64863,3.98801 5.12025,4.3579 4.61855,4.96649 4.1706,5.50986 3.96614,5.84007 3.75805,6.35619 3.671457,6.57098 3.58212,6.76394 3.55953,6.78498 3.536939,6.806025 2.94957,6.67046 2.25423,6.48373 Z"
         style="fill:#ef2929;stroke-width:0.038901"
         inkscape:connector-curvature="0" />
      <path
         id="path4035"
         d="M 2.4431,12.712 C 1.82382,11.98781 1.3713,11.1961 1.0891,10.343 1.003513,10.08431 0.97182,9.92063 1.001557,9.89088 c 0.049446,-0.049453 2.3168,-0.67355 2.4485,-0.67397 0.052066,-1.556e-4 0.12884,0.13136 0.23405,0.40095 0.18587,0.47629 0.50322,1.0015 0.81407,1.3473 l 0.22492,0.2502 -0.89406,0.90081 c -0.49173,0.49545 -0.92942,0.92027 -0.97264,0.94406 -0.061886,0.03407 -0.14967,-0.03988 -0.41329,-0.34817 z M 2.25425,6.4838 C 1.55894,6.29707 0.96935,6.12441 0.94395,6.10013 0.845544,6.005825 1.33684,4.77273 1.70745,4.18383 1.93165,3.82759 2.26602,3.39275 2.54158,3.09913 L 2.7834,2.84143 4.7517,4.80823 4.49973,5.11222 C 4.16983,5.51023 3.95139,5.87661 3.75801,6.35632 3.671417,6.57111 3.58208,6.76407 3.55949,6.78511 3.536899,6.806155 2.94953,6.67059 2.25419,6.48386 Z"
         style="fill:#cc0000;stroke-width:0.038901"
         inkscape:connector-curvature="0" />
      <path
         id="path4037"
         d="M 2.4431,12.712 C 1.82382,11.98781 1.3713,11.1961 1.0891,10.343 1.003513,10.08431 0.97182,9.92063 1.001557,9.89088 c 0.049446,-0.049453 2.3168,-0.67355 2.4485,-0.67397 0.052066,-1.556e-4 0.12884,0.13136 0.23405,0.40095 0.18587,0.47629 0.50322,1.0015 0.81407,1.3473 l 0.22492,0.2502 -0.89406,0.90081 c -0.49173,0.49545 -0.92942,0.92027 -0.97264,0.94406 -0.061886,0.03407 -0.14967,-0.03988 -0.41329,-0.34817 z"
         style="fill:#75507b;stroke-width:0.038901"
         inkscape:connector-curvature="0" />
      <path
         id="path4039"
         d="M 12.574,8.1352 A 4.6971,4.868 0 0 1 7.928,13.0521 4.6971,4.868 0 0 1 3.1804,8.2405 4.6971,4.868 0 0 1 7.8196,3.3167 4.6971,4.868 0 0 1 12.5738,8.1213"
         style="color:#000000;isolation:auto;mix-blend-mode:normal;solid-color:#000000;fill:#ffffff;color-rendering:auto;image-rendering:auto;shape-rendering:auto"
         inkscape:connector-curvature="0" />
      <path
         id="path4041"
         d="M 7.9024,0.0010713 A 7.9995,7.9995 0 0 0 5e-4,8.0923713 7.9995,7.9995 0 0 0 8.086,16.000071 7.9995,7.9995 0 0 0 15.9996,7.9205713 v -0.023436 a 7.9995,7.9995 0 0 0 -8.0972,-7.896 z m 0.011718,0.96869 a 7.031,7.031 0 0 1 7.1168,6.939 v 0.021483 a 7.031,7.031 0 0 1 -6.9547,7.1010997 7.031,7.031 0 0 1 -7.107,-6.9487997 7.031,7.031 0 0 1 6.9449,-7.1128 z"
         style="color:#000000;isolation:auto;mix-blend-mode:normal;solid-color:#000000;fill:none;color-rendering:auto;image-rendering:auto;shape-rendering:auto"
         inkscape:connector-curvature="0" />
      <path
         id="path4263"
         d="m 4,6.25 c 0,0 1.2577,-1.0669 2,-1 0.82997,0.074838 1.1667,1.5 2,1.5 0.8333,0 1.17,-1.4252 2,-1.5 0.74234,-0.066937 2,1 2,1"
         style="fill:none;stroke:#3465a4;stroke-width:0.5"
         inkscape:connector-curvature="0" />
      <path
         id="path4263-7"
         d="m 4,10.25 c 0,0 1.2577,-1.0669 2,-1 0.82997,0.074838 1.1667,1.5 2,1.5 0.8333,0 1.17,-1.4252 2,-1.5 0.74234,-0.066937 2,1 2,1"
         style="fill:none;stroke:#3465a4;stroke-width:0.5"
         inkscape:connector-curvature="0" />
      <path
         id="path4263-0"
         d="m 4,8.25 c 0,0 1.2577,-1.0669 2,-1 0.82997,0.074838 1.1667,1.5 2,1.5 0.8333,0 1.17,-1.4252 2,-1.5 0.74234,-0.066937 2,1 2,1"
         style="fill:none;stroke:#3465a4;stroke-width:0.5"
         inkscape:connector-curvature="0" />
    </g>
  </g>
</svg>
