<?xml version="1.0" encoding="UTF-8" standalone="no"?>
<!-- Created with Inkscape (http://www.inkscape.org/) -->

<svg
   xmlns:dc="http://purl.org/dc/elements/1.1/"
   xmlns:cc="http://creativecommons.org/ns#"
   xmlns:rdf="http://www.w3.org/1999/02/22-rdf-syntax-ns#"
   xmlns:svg="http://www.w3.org/2000/svg"
   xmlns="http://www.w3.org/2000/svg"
   xmlns:sodipodi="http://sodipodi.sourceforge.net/DTD/sodipodi-0.dtd"
   xmlns:inkscape="http://www.inkscape.org/namespaces/inkscape"
   id="svg11300"
   width="24"
   height="24"
   version="1.0"
   viewBox="0 0 24 24"
   sodipodi:docname="gimp-text-dir-ltr.svg"
   inkscape:version="0.92.2 5c3e80d, 2017-08-06">
  <defs
     id="defs12" />
  <sodipodi:namedview
     pagecolor="#ffffff"
     bordercolor="#666666"
     borderopacity="1"
     objecttolerance="10"
     gridtolerance="10"
     guidetolerance="10"
     inkscape:pageopacity="0"
     inkscape:pageshadow="2"
     inkscape:window-width="764"
     inkscape:window-height="480"
     id="namedview10"
     showgrid="false"
     inkscape:zoom="9.8333333"
     inkscape:cx="12"
     inkscape:cy="12"
     inkscape:window-x="297"
     inkscape:window-y="62"
     inkscape:window-maximized="0"
     inkscape:current-layer="svg11300" />
  <metadata
     id="metadata4">
    <rdf:RDF>
      <cc:Work
         rdf:about="">
        <dc:format>image/svg+xml</dc:format>
        <dc:type
           rdf:resource="http://purl.org/dc/dcmitype/StillImage" />
        <dc:creator>
          <cc:Agent>
            <dc:title>Jakub Steiner</dc:title>
          </cc:Agent>
        </dc:creator>
        <dc:source>http://jimmac.musichall.cz</dc:source>
        <cc:license
           rdf:resource="http://creativecommons.org/licenses/by-sa/2.0/" />
        <dc:title />
      </cc:Work>
      <cc:License
         rdf:about="http://creativecommons.org/licenses/by-sa/2.0/">
        <cc:permits
           rdf:resource="http://web.resource.org/cc/Reproduction" />
        <cc:permits
           rdf:resource="http://web.resource.org/cc/Distribution" />
        <cc:requires
           rdf:resource="http://web.resource.org/cc/Notice" />
        <cc:requires
           rdf:resource="http://web.resource.org/cc/Attribution" />
        <cc:permits
           rdf:resource="http://web.resource.org/cc/DerivativeWorks" />
        <cc:requires
           rdf:resource="http://web.resource.org/cc/ShareAlike" />
      </cc:License>
    </rdf:RDF>
  </metadata>
  <g
     id="layer1"
     transform="translate(0,8)">
    <g
       id="g4450">
      <path
         id="path7106"
         d="m14.15-6.8096c0 8.2231 0.0012 4.192 0.05016 8.9432v0.7034h4.4214c2.7025 0.11045 2.5806-6.6322-0.05016-6.4311-0.01881 0.00142-0.03135-0.00161-0.05016 0h-2.7633v-3.2155h-1.6078zm1.5073 4.6726h3.0144c0.59135-0.061417 0.69872 3.5456 0 3.517h-3.0145c-0.0096-0.76459 0.0064-3.2807 0-3.517z"
         style="fill:#bebebe;stroke-width:0.3;stroke:none" />
      <path
         id="path7104"
         d="m5.7425-5.2018v1.4068h2.8136c0.20394 0.020901 0.31705 0.099038 0.40194 0.20097 0.078941 0.094858 0.18972 0.30017 0.20097 0.60291 8.039e-4 0.022991 0 0.025564 0 0.050162v1.1053h-3.0145c-2.5894-0.18798-2.7125 4.7776-0.050162 4.6726h4.4214v-0.7034l0.05016-5.0745c0-0.59561-0.16418-1.1512-0.50243-1.5575-0.33824-0.40636-0.85073-0.65179-1.3566-0.7034h-2.9642zm0.30146 4.7731h3.0646l-0.050162 1.859h-3.0145c-0.75242 0.029744-0.64542-1.9238 0-1.859z"
         style="fill:#bebebe;stroke-width:0.3;stroke:none" />
      <path
         id="path8347-7"
         d="m10.69 9.1941h-4.1898v2.6834h4.1898v2.6834h1.3966l4.1898-4.0251-4.1898-4.0251h-1.3966z"
         style="fill-rule:evenodd;fill:#2d2d2d;stroke-width:1.0029;stroke:#2d2d2d;stroke-opacity:1" />
      <rect
         id="rect4013"
         y="-8"
         width="24"
         height="24"
         rx=".41507"
         ry="2.1219"
         style="color-rendering:auto;color:#000000;image-rendering:auto;isolation:auto;mix-blend-mode:normal;opacity:0;shape-rendering:auto;solid-color:#000000;stroke-width:.75" />
    </g>
  </g>
</svg>
