<?xml version="1.0" encoding="UTF-8" standalone="no"?>
<!-- Created with Inkscape (http://www.inkscape.org/) -->

<svg
   xmlns:dc="http://purl.org/dc/elements/1.1/"
   xmlns:cc="http://creativecommons.org/ns#"
   xmlns:rdf="http://www.w3.org/1999/02/22-rdf-syntax-ns#"
   xmlns:svg="http://www.w3.org/2000/svg"
   xmlns="http://www.w3.org/2000/svg"
   xmlns:xlink="http://www.w3.org/1999/xlink"
   xmlns:sodipodi="http://sodipodi.sourceforge.net/DTD/sodipodi-0.dtd"
   xmlns:inkscape="http://www.inkscape.org/namespaces/inkscape"
   id="svg1"
   width="16"
   height="16"
   version="1.0"
   viewBox="0 0 16 16"
   sodipodi:docname="gimp-plugin.svg"
   inkscape:version="0.92.2 5c3e80d, 2017-08-06">
  <sodipodi:namedview
     pagecolor="#ffffff"
     bordercolor="#666666"
     borderopacity="1"
     objecttolerance="10"
     gridtolerance="10"
     guidetolerance="10"
     inkscape:pageopacity="0"
     inkscape:pageshadow="2"
     inkscape:window-width="980"
     inkscape:window-height="572"
     id="namedview16"
     showgrid="false"
     inkscape:zoom="14.75"
     inkscape:cx="-1.6271186"
     inkscape:cy="8"
     inkscape:window-x="237"
     inkscape:window-y="84"
     inkscape:window-maximized="0"
     inkscape:current-layer="svg1" />
  <metadata
     id="metadata162">
    <rdf:RDF>
      <cc:Work
         rdf:about="">
        <dc:format>image/svg+xml</dc:format>
        <dc:type
           rdf:resource="http://purl.org/dc/dcmitype/StillImage" />
        <dc:title>Folder</dc:title>
        <dc:creator>
          <cc:Agent>
            <dc:title>Jakub Steiner</dc:title>
          </cc:Agent>
        </dc:creator>
        <dc:date>2005-02-01</dc:date>
        <cc:license
           rdf:resource="http://creativecommons.org/licenses/GPL/2.0/" />
        <dc:identifier>http://jimmac.musichall.cz/</dc:identifier>
        <dc:subject>
          <rdf:Bag>
            <rdf:li>folder</rdf:li>
            <rdf:li>directory</rdf:li>
            <rdf:li>storage</rdf:li>
          </rdf:Bag>
        </dc:subject>
      </cc:Work>
      <cc:License
         rdf:about="http://creativecommons.org/licenses/GPL/2.0/">
        <cc:permits
           rdf:resource="http://web.resource.org/cc/Reproduction" />
        <cc:permits
           rdf:resource="http://web.resource.org/cc/Distribution" />
        <cc:requires
           rdf:resource="http://web.resource.org/cc/Notice" />
        <cc:permits
           rdf:resource="http://web.resource.org/cc/DerivativeWorks" />
        <cc:requires
           rdf:resource="http://web.resource.org/cc/ShareAlike" />
        <cc:requires
           rdf:resource="http://web.resource.org/cc/SourceCode" />
      </cc:License>
    </rdf:RDF>
  </metadata>
  <defs
     id="defs3">
    <linearGradient
       id="linearGradient2864">
      <stop
         id="stop2866"
         style="stop-color:#8ae234"
         offset="0" />
      <stop
         id="stop2868"
         style="stop-color:#4e9a06"
         offset="1" />
    </linearGradient>
    <linearGradient
       id="linearGradient1925"
       x1="30.936"
       x2="30.936"
       y1="44.294"
       y2="-11.761"
       gradientTransform="matrix(.58011 0 0 .52902 -11.376 -7.6838)"
       gradientUnits="userSpaceOnUse"
       xlink:href="#linearGradient2864" />
    <linearGradient
       id="linearGradient2830"
       x1=".44194"
       x2="18.12"
       y1="-1.7219"
       y2="22.408"
       gradientUnits="userSpaceOnUse">
      <stop
         id="stop2826"
         style="stop-color:#eeeeec"
         offset="0" />
      <stop
         id="stop2828"
         style="stop-color:#eeeeec;stop-opacity:0"
         offset="1" />
    </linearGradient>
  </defs>
  <g
     id="layer2"
     style="fill:#9ade00;fill-opacity:1;stroke:#9ade00;stroke-opacity:1">
    <g
       id="g3950"
       transform="matrix(1.0007 0 0 1.0009 -.011671 -.015821)"
       style="fill:#9ade00;fill-opacity:1;stroke:#9ade00;stroke-opacity:1">
      <path
         id="path2848"
         d="m9.0878 0.51598c-0.58011 0-2.0304 0.30048-2.0304 1.3225 0 0.53773 0.45536 0.60941 0.44254 1.6615h-4v4c-1 0-1.4015-1-2-1-1 0-1 1.5-0.98399 2.0092 0.03114 0.99041-0.13678 2.9865 0.98399 2.9908 0.5 0 1-1 2-1v5l3.9741-0.0099c0-1.3225-0.97414-0.93155-0.97414-1.9901 0-0.79352 1.1298-1 2-1 1.4145 0 2-0.05855 2 1 0 0.65054-1 0.94197-1 2h6v-5.052c-1 0.051998-1.3374 1.052-2 1.052-0.5 0-1-0.5-1-2s0.5-2 1-2c1 0 1 1 2 1v-5h-5c-0.0207-1.2976 1.7225-1.0562 1.7144-1.8511 0-1.1329-1.5897-1.1329-3.1266-1.1329z"
         style="color:#000000;fill:#9ade00;stroke-dashoffset:1.5;stroke-linecap:square;stroke:#9ade00;fill-opacity:1;stroke-opacity:1" />
    </g>
  </g>
</svg>
