<?xml version="1.0" encoding="UTF-8" standalone="no"?>
<!-- Created with Inkscape (http://www.inkscape.org/) -->

<svg
   xmlns:dc="http://purl.org/dc/elements/1.1/"
   xmlns:cc="http://creativecommons.org/ns#"
   xmlns:rdf="http://www.w3.org/1999/02/22-rdf-syntax-ns#"
   xmlns:svg="http://www.w3.org/2000/svg"
   xmlns="http://www.w3.org/2000/svg"
   xmlns:xlink="http://www.w3.org/1999/xlink"
   xmlns:sodipodi="http://sodipodi.sourceforge.net/DTD/sodipodi-0.dtd"
   xmlns:inkscape="http://www.inkscape.org/namespaces/inkscape"
   id="svg11300"
   width="24"
   height="24"
   version="1.0"
   viewBox="0 0 24 24"
   sodipodi:docname="gimp-hchain-broken.svg"
   inkscape:version="0.92.2 5c3e80d, 2017-08-06">
  <sodipodi:namedview
     pagecolor="#ffffff"
     bordercolor="#666666"
     borderopacity="1"
     objecttolerance="10"
     gridtolerance="10"
     guidetolerance="10"
     inkscape:pageopacity="0"
     inkscape:pageshadow="2"
     inkscape:window-width="907"
     inkscape:window-height="569"
     id="namedview19"
     showgrid="false"
     inkscape:zoom="13.906433"
     inkscape:cx="10.643188"
     inkscape:cy="8.5448529"
     inkscape:window-x="332"
     inkscape:window-y="6"
     inkscape:window-maximized="0"
     inkscape:current-layer="svg11300" />
  <defs
     id="defs3">
    <linearGradient
       id="linearGradient873">
      <stop
         offset="0"
         style="stop-color:#2d2d2d;stop-opacity:1"
         id="stop867" />
      <stop
         offset=".5"
         style="stop-color:#eeeeec"
         id="stop869" />
      <stop
         offset="1"
         style="stop-color:#2d2d2d;stop-opacity:1"
         id="stop871" />
    </linearGradient>
    <linearGradient
       id="linearGradient865">
      <stop
         offset="0"
         style="stop-color:#2d2d2d;stop-opacity:1"
         id="stop859" />
      <stop
         offset=".5"
         style="stop-color:#eeeeec"
         id="stop861" />
      <stop
         offset="1"
         style="stop-color:#2d2d2d;stop-opacity:1"
         id="stop863" />
    </linearGradient>
    <linearGradient
       id="linearGradient3473">
      <stop
         id="stop3475"
         style="stop-color:#888a85"
         offset="0" />
      <stop
         id="stop3481"
         style="stop-color:#eeeeec"
         offset=".5" />
      <stop
         id="stop3477"
         style="stop-color:#cecec8"
         offset="1" />
    </linearGradient>
    <linearGradient
       id="linearGradient4355-2-8-6-2"
       x1="-16.12"
       x2="-.81032"
       y1=".46894"
       y2="12.573"
       gradientTransform="matrix(0.70829,0,0,0.55939,11.474,-0.10075)"
       gradientUnits="userSpaceOnUse"
       xlink:href="#linearGradient865" />
    <linearGradient
       id="linearGradient4397-4"
       x1="7.4614"
       x2="9.3341"
       y1="8.2303"
       y2="8.2303"
       gradientTransform="matrix(0,-1.6044,1.586,0,-1.053,25.4734)"
       gradientUnits="userSpaceOnUse"
       xlink:href="#linearGradient3473" />
  </defs>
  <metadata
     id="metadata4">
    <rdf:RDF>
      <cc:Work
         rdf:about="">
        <dc:format>image/svg+xml</dc:format>
        <dc:type
           rdf:resource="http://purl.org/dc/dcmitype/StillImage" />
        <dc:creator>
          <cc:Agent>
            <dc:title>Jakub Steiner</dc:title>
          </cc:Agent>
        </dc:creator>
        <dc:source>http://jimmac.musichall.cz</dc:source>
        <cc:license
           rdf:resource="http://creativecommons.org/licenses/by-sa/2.0/" />
        <dc:title />
      </cc:Work>
      <cc:License
         rdf:about="http://creativecommons.org/licenses/by-sa/2.0/">
        <cc:permits
           rdf:resource="http://web.resource.org/cc/Reproduction" />
        <cc:permits
           rdf:resource="http://web.resource.org/cc/Distribution" />
        <cc:requires
           rdf:resource="http://web.resource.org/cc/Notice" />
        <cc:requires
           rdf:resource="http://web.resource.org/cc/Attribution" />
        <cc:permits
           rdf:resource="http://web.resource.org/cc/DerivativeWorks" />
        <cc:requires
           rdf:resource="http://web.resource.org/cc/ShareAlike" />
      </cc:License>
    </rdf:RDF>
  </metadata>
  <rect
     id="rect4273-086"
     y="0.0023999214"
     width="24"
     height="23.896"
     style="opacity:0;stroke-width:0.61922997"
     x="-24"
     transform="rotate(-90)" />
  <g
     id="g4326-1-5-2"
     transform="matrix(0,-1.1017,0.81351,0,-0.1442,7.367)">
    <path
       id="rect4317-8-2-34"
       transform="matrix(1.4119,0,0,1.7877,-16.2,0.18011)"
       d="m 8.3477,0.23633 c 0,0 -1.5774,0.063909 -2.0586,0.48242 -0.89648,0.77968 -0.76367,3.1016 -0.76367,3.1016 0,0 -0.116,2.0678 0.76367,2.8241 0.49526,0.42577 2.1094,0.48242 2.1094,0.48242 0,-1e-7 1.7642,-0.02518 2.3125,-0.48242 0.83586,-0.69701 0.73828,-2.6229 0.73828,-2.6229 0,0 0.22268,-2.4821 -0.73828,-3.3027 C 10.15844,0.24699 8.3477,0.23643 8.3477,0.23643 Z m -1.1384,1.8066 h 2.5716 v 3.2967 H 7.2093 Z"
       style="fill:#666666;stroke:none;stroke-width:0.47580001"
       inkscape:connector-curvature="0" />
  </g>
  <g
     id="g4326-1-5-5-3"
     transform="matrix(0,-1.1017,0.81351,0,12.8558,7.367)">
    <path
       id="rect4317-8-2-2-3"
       transform="matrix(1.4119,0,0,1.7877,-16.2,0.18011)"
       d="m 8.3477,0.43375 c 0,0 -1.5774,0.063909 -2.0586,0.48242 -0.89648,0.77968 -0.76367,2.9041 -0.76367,2.9041 0,0 -0.116,2.2652 0.76367,3.0215 0.49526,0.42577 2.1094,0.48242 2.1094,0.48242 0,-10e-8 1.7642,-0.02518 2.3125,-0.48242 0.83586,-0.69701 0.73828,-2.8203 0.73828,-2.8203 0,0 0.22268,-2.2847 -0.73828,-3.1053 C 10.15844,0.44431 8.3477,0.43375 8.3477,0.43375 Z m -1.1384,1.8066 h 2.5716 v 3.2967 H 7.2093 Z"
       style="fill:#666666;stroke:none;stroke-width:0.47580001;fill-opacity:1"
       inkscape:connector-curvature="0" />
  </g>
  <path
     id="rect4357-44"
     d="m 7.208,13.51 2.9967,-0.0055 0.01107,-2.9986 -2.9987,2.76e-4 z m 6.5766,-3.63e-4 3.0082,-0.0033 0.003,-2.9992 -3.0111,-0.02146 z"
     style="fill:#666666;stroke:#666666;stroke-linejoin:round;stroke-opacity:1;fill-opacity:1"
     inkscape:connector-curvature="0" />
</svg>
