<?xml version="1.0" encoding="UTF-8" standalone="no"?>
<!-- Created with Inkscape (http://www.inkscape.org/) -->

<svg
   xmlns:dc="http://purl.org/dc/elements/1.1/"
   xmlns:cc="http://creativecommons.org/ns#"
   xmlns:rdf="http://www.w3.org/1999/02/22-rdf-syntax-ns#"
   xmlns:svg="http://www.w3.org/2000/svg"
   xmlns="http://www.w3.org/2000/svg"
   xmlns:sodipodi="http://sodipodi.sourceforge.net/DTD/sodipodi-0.dtd"
   xmlns:inkscape="http://www.inkscape.org/namespaces/inkscape"
   id="svg7384"
   width="16"
   height="16"
   version="1.1"
   viewBox="0 0 16 16"
   sodipodi:docname="zoom-fit-best.svg"
   inkscape:version="0.92.4 (unknown)">
  <defs
     id="defs10" />
  <sodipodi:namedview
     pagecolor="#ffffff"
     bordercolor="#666666"
     borderopacity="1"
     objecttolerance="10"
     gridtolerance="10"
     guidetolerance="10"
     inkscape:pageopacity="0"
     inkscape:pageshadow="2"
     inkscape:window-width="1375"
     inkscape:window-height="786"
     id="namedview8"
     showgrid="false"
     inkscape:zoom="37.854492"
     inkscape:cx="8"
     inkscape:cy="8"
     inkscape:window-x="65"
     inkscape:window-y="24"
     inkscape:window-maximized="1"
     inkscape:current-layer="svg7384" />
  <metadata
     id="metadata90">
    <rdf:RDF>
      <cc:Work
         rdf:about="">
        <dc:format>image/svg+xml</dc:format>
        <dc:type
           rdf:resource="http://purl.org/dc/dcmitype/StillImage" />
        <dc:title></dc:title>
      </cc:Work>
    </rdf:RDF>
  </metadata>
  <g
     id="g4317">
    <g
       id="use4898-6"
       transform="matrix(-0.076824,0,0,0.076824,18.702,-1.0767)"
       clip-path="url(#clipPath7655)"
       style="enable-background:new">
      <rect
         id="rect6616"
         transform="scale(-1,1)"
         x="-236.94"
         y="20.524"
         width="195.25"
         height="195.25"
         rx="41.75"
         ry="41.689999"
         style="color:#000000;fill:#cccccc;stroke:#cccccc;stroke-width:13.0170002;stroke-linecap:round;enable-background:new;stroke-opacity:1" />
    </g>
    <path
       id="rect3099-9-3"
       d="M 4,3.5 C 3.73166,3.5 3.5,3.73166 3.5,4 v 2.5 h 2 v -1 h 1 v -2 z m 5.5,0 v 2 h 1 v 1 h 2 V 4 C 12.5,3.73166 12.26834,3.5 12,3.5 Z m -6,6 V 12 c 0,0.26834 0.23166,0.5 0.5,0.5 h 2.5 v -2 h -1 v -1 z m 7,0 v 1 h -1 v 2 H 12 c 0.26834,0 0.5,-0.23166 0.5,-0.5 V 9.5 Z"
       style="color:#000000;stroke:#2d2d2d;stroke-linecap:round;enable-background:new;fill:#2d2d2d;stroke-opacity:1"
       inkscape:connector-curvature="0" />
  </g>
</svg>
